SplineFontDB: 3.0
FontName: FantasqueSansMono-BoldItalic
FullName: Fantasque Sans Mono Bold Italic
FamilyName: Fantasque Sans Mono
Weight: Bold
Copyright: Created by Jany Belluz with FontForge 2.0 (http://fontforge.sf.net)
UComments: "2013-9-13: Created." 
Version: 1.6.5
ItalicAngle: -11
UnderlinePosition: -192
UnderlineWidth: 96
Ascent: 1650
Descent: 398
LayerCount: 2
Layer: 0 0 "Back"  1
Layer: 1 0 "Fore"  0
XUID: [1021 607 50037791 3178130]
FSType: 8
OS2Version: 3
OS2_WeightWidthSlopeOnly: 0
OS2_UseTypoMetrics: 1
CreationTime: 1379052706
ModificationTime: 1405926058
PfmFamily: 49
TTFWeight: 700
TTFWidth: 5
LineGap: 50
VLineGap: 0
Panose: 2 11 8 9 2 2 4 3 2 4
OS2TypoAscent: 1650
OS2TypoAOffset: 0
OS2TypoDescent: -398
OS2TypoDOffset: 0
OS2TypoLinegap: 100
OS2WinAscent: 1750
OS2WinAOffset: 0
OS2WinDescent: 398
OS2WinDOffset: 0
HheadAscent: 1700
HheadAOffset: 0
HheadDescent: -398
HheadDOffset: 0
OS2FamilyClass: 2057
OS2Vendor: 'PfEd'
MarkAttachClasses: 1
DEI: 91125

StartChar: a
Encoding: 97 97 0
Width: 1060
VWidth: 6
Flags: HW
HStem: -31 21G<777.5 824.333> -11 200<255.5 514.68> 819 209<467.228 686.696>
VStem: 69 249<196.7 585.729> 700 186<79.3457 275>
LayerCount: 2
Back
SplineSet
379.618 317 m 0
 360.569 219 423.738 189 487.738 189 c 0
 597.738 189 699.564 291 728.45 347 c 1
 737.586 394 l 1
 709.75 436 648.358 470 584.358 470 c 0
 518.358 470 401 427 379.618 317 c 0
966.424 316 m 2
 948.541 224 957.434 172 1005.69 127 c 1
 863.724 -22 l 1
 819.499 18 787.637 29 759.633 101 c 1
 668.471 23 579.861 -11 397.861 -11 c 0
 226.861 -11 88.3252 120 123.703 302 c 0
 141.197 392 188.108 479 258.966 540 c 0
 372.82 637 481.234 670 623.234 670 c 0
 687.234 670 749.152 649 782.099 623 c 1
 814.366 789 704.392 820 644.392 820 c 0
 529.392 820 459 811 364.509 749 c 1
 225 913 l 1
 425 1037 514.24 1023.27 692.823 1028 c 1
 917.823 1028 1078.58 893 1032.32 655 c 0
 966.424 316 l 2
EndSplineSet
Fore
SplineSet
343 513 m 0x78
 325 423 318 358 318 311 c 0
 318 190 367 189 413 189 c 0
 523 189 641 375 670 431 c 1
 689.333 530.333 708.667 629.667 728 729 c 1
 700 771 641 819 577 819 c 0
 511 819 396 779 343 513 c 0x78
891 316 m 2
 887.671 299.065 886 283 886 267 c 0
 886 196 917 138 956 101 c 1
 903.333 57 850.667 13 798 -31 c 1xb8
 757 5.99999 700 72 700 165 c 0
 700 172 700 178 701 185 c 1
 620 49 505 -11 323 -11 c 0
 188 -11 69 51 69 302 c 0
 69 368 77.7274 448.053 96 543 c 0
 171.867 937.215 430 1028 576 1028 c 1
 657 1028 740 997 778 941 c 1
 784.667 969 791.333 997 798 1025 c 1
 1028 1013 l 0
 982.363 780.817 936.628 548.133 891 316 c 2
EndSplineSet
Validated: 1
EndChar

StartChar: b
Encoding: 98 98 1
Width: 1060
VWidth: -2
Flags: W
HStem: -7 180<418.839 598.156> 813 200<554.835 816.5>
VStem: 294 249<1117.1 1403> 730 251<392.181 804.654>
LayerCount: 2
Back
SplineSet
780.914 478 m 0
 832.036 741 773.031 813 681.031 813 c 0
 609.031 813 533.453 738 489.762 683 c 1
 424.839 349 l 1
 456.012 247 512.628 173 573.628 173 c 0
 681.628 173 743.981 288 780.914 478 c 0
1032.22 459 m 0
 972.546 152 823.64 -7 572.64 -7 c 0
 448.64 -7 378.775 40 351.077 93 c 1
 342.913 51 286.473 -13 286.473 -13 c 1
 94.3604 7 l 1
 117.189 73 143.101 160 159.234 243 c 0
 160.789 251 162.345 259 163.899 267 c 0
 212.3 516 281.472 877 335.898 1157 c 0
 354.17 1251 362.498 1335 368.716 1403 c 1
 617.465 1412 l 1
 612.275 1339 598.615 1243 580.926 1152 c 0
 563.432 1062 546.741 1007 513.773 930 c 1
 556.217 958 640.907 1013 754.907 1013 c 0
 1026.91 1013 1104.53 831 1032.22 459 c 0
EndSplineSet
Fore
SplineSet
706 478 m 0
 722.784 563.042 730 629 730 678 c 0
 730 780 699 813 663 813 c 0
 525 813 444 690 393 570 c 1
 378.667 496.333 364.333 422.667 350 349 c 1
 381 247 438 173 499 173 c 0
 607 173 668.519 288.096 706 478 c 0
957 459 m 0
 897.395 151.924 749 -7 498 -7 c 0
 374 -7 304 40 276 93 c 1
 268 51 211 -13 211 -13 c 1
 147 -6.33333 83 0.333333 19 7 c 1
 42 73 65.7647 160.559 84 243 c 0
 85.7793 251.043 87.2207 258.957 89 267 c 0
 143.706 514.324 207.185 876.965 261 1157 c 0
 279.062 1250.99 288 1335 294 1403 c 1
 377 1406 460 1409 543 1412 c 1
 538 1339 508.608 1169.07 491 1078 c 0
 473.614 988.076 432 903 399 826 c 1
 447 883 534 1013 744 1013 c 0
 889 1013 981 903 981 679 c 0
 981 615 973.107 541.979 957 459 c 0
EndSplineSet
Validated: 1
EndChar

StartChar: c
Encoding: 99 99 2
Width: 1060
VWidth: 4
Flags: W
HStem: -7 210<392.133 646.91> 807 211<495.384 797.893>
VStem: 77 264<251.475 618.558>
LayerCount: 2
Back
SplineSet
429.633 528 m 0
 367.625 209 534.459 203 581.459 203 c 2
 593.459 203 l 2
 693.459 203 760.288 269 824.033 350 c 1
 1023.99 216 l 1
 926.829 66 780.64 -7 562.64 -7 c 0
 458.64 -7 337.194 1 255.189 73 c 1
 144.822 174 134.757 328 173.438 527 c 0
 239.527 867 446.879 1018 761.879 1018 c 0
 856.879 1018 950.186 999 1005.02 957 c 0
 1057.25 917 1091.78 858 1103.67 806 c 1
 863.844 704 l 1
 861.23 742 842.865 807 702.865 807 c 0
 555.865 807 457.43 671 429.633 528 c 0
EndSplineSet
Fore
SplineSet
355 528 m 0
 345.195 478.962 341 437 341 402 c 0
 341 208 466 203 506 203 c 1
 510 203 514 203 518 203 c 1
 618 203 685 269 749 350 c 1
 815.667 305.333 882.333 260.667 949 216 c 1
 852 66 706 -7 488 -7 c 0
 384 -7 262 0.999994 180 73 c 1
 107 140 77 230 77 342 c 0
 77 398 84.9972 460.001 98 527 c 0
 163.986 867.003 372 1018 687 1018 c 0
 869 1018 985 960 1069 876 c 1
 1011.67 809.333 954.333 742.667 897 676 c 1
 877 720 768 807 628 807 c 0
 481 807 383.568 670.884 355 528 c 0
EndSplineSet
Validated: 1
EndChar

StartChar: d
Encoding: 100 100 3
Width: 1060
VWidth: -2
Flags: W
HStem: -7 180<339.151 509.234> 816 200<500.997 688.091>
VStem: 71 252<181.698 559.241> 659 226<7.46553 174> 891 246<1246.08 1403>
LayerCount: 2
Back
SplineSet
440.914 478 m 4
 403.981 288 421.628 173 529.628 173 c 4
 590.628 173 675.012 247 745.839 349 c 5
 810.762 683 l 5
 788.453 738 742.031 813 670.031 813 c 4
 578.031 813 492.036 741 440.914 478 c 4
182.221 459 m 4
 256.279 840 411.907 1013 674.907 1013 c 4
 788.907 1013 851.217 958 882.773 930 c 5
 879.741 1007 884.432 1062 901.926 1152 c 4
 919.615 1243 943.275 1339 966.465 1412 c 5
 1212.72 1403 l 5
 1192.5 1335 1168.17 1251 1149.9 1157 c 4
 1095.47 877 1023.3 516 974.899 267 c 4
 973.345 259 971.789 251 970.234 243 c 4
 954.101 160 947.189 73 944.36 7 c 5
 744.473 -13 l 5
 744.473 -13 711.913 51 720.077 93 c 5
 671.775 40 583.64 -7 459.64 -7 c 4
 208.64 -7 122.546 152 182.221 459 c 4
EndSplineSet
Fore
SplineSet
345 478 m 0
 330.033 400.994 323 337 323 287 c 0
 323 214 360 173 390 173 c 1
 480 173 606 260 694 470 c 1
 708 541 722 612 736 683 c 1
 714 738 682 816 595 816 c 0
 541 816 396.113 740.978 345 478 c 0
86 459 m 0
 159.648 840.068 337 1016 600 1016 c 0
 714 1016 776 958 808 930 c 1
 807 944 807 957 807 970 c 0
 807 1028 812.693 1078.06 827 1152 c 0
 844.622 1243.07 868 1339 891 1412 c 1
 973 1409 1055 1406 1137 1403 c 1
 1117 1335 1093.06 1250.99 1075 1157 c 0
 1021.18 876.965 954.706 514.324 900 267 c 0
 898.221 258.957 896.831 251.035 895 243 c 0
 887.294 209.176 885 172 885 136 c 0
 885 85 892 37 906 6 c 1
 834.333 0.666667 762.667 -4.66667 691 -10 c 1
 677 5 659 95 659 148 c 0
 659 158 660 167 661 174 c 1
 599 49 479 -7 355 -7 c 0
 205 -7 71 103 71 315 c 0
 71 359 75.9519 407.009 86 459 c 0
EndSplineSet
Validated: 1
EndChar

StartChar: e
Encoding: 101 101 4
Width: 1060
VWidth: 32
Flags: W
HStem: -10 206<393.529 715.575> 818 203<482.263 711.12>
VStem: 88 250<255.519 399.546> 738 253<631.132 791.478>
LayerCount: 2
Back
SplineSet
453.795 606 m 1
 570.682 626 665.46 630 798.46 630 c 1
 818.924 761 758.003 818 670.003 818 c 0
 568.003 818 482.343 722 453.795 606 c 1
707.462 1021 m 0
 1026.46 1021 1095.03 813 1029.72 477 c 1
 1025.83 457 1020.36 434 1020.36 434 c 1
 734.584 430 518.862 416 412.975 396 c 1
 407.398 285 478.099 196 570.099 196 c 1
 676.099 196 731.097 232 813.48 306 c 1
 961.157 150 l 1
 838.387 38 763.057 -10 524.057 -10 c 1
 238.057 -10 117.459 203 178.3 516 c 0
 233.893 802 424.462 1021 707.462 1021 c 0
EndSplineSet
Fore
SplineSet
379 606 m 1
 404 610 439 611 477 611 c 0
 535 611 l 0
 604 611 672.034 612.947 703 633 c 0
 723.022 645.966 738 678 738 711 c 0
 738 762 703 818 595 818 c 0
 493 818 408 722 379 606 c 1
632 1021 m 0
 913 1021 991 852 991 717 c 0
 991 678 984.859 643.049 975 615 c 0
 881.67 349.475 469 421 338 396 c 1
 338 383 l 0
 338 278 407 196 495 196 c 1
 601 196 715 223 813 295 c 1
 847 235 881 175 915 115 c 1
 745 25 688 -10 449 -10 c 1
 211 -10 88 137 88 366 c 0
 88 413 92.8182 463.036 103 516 c 0
 158.016 802.186 349 1021 632 1021 c 0
EndSplineSet
Validated: 1
EndChar

StartChar: f
Encoding: 102 102 5
Width: 1060
VWidth: -2
Flags: WO
HStem: 0 21G<167 450> 807 205<220 324 621 904.063> 1217 201<676.563 1055.8>
LayerCount: 2
Back
SplineSet
877.561 1217 m 0
 745.561 1217 720.177 1143 708.514 1083 c 0
 703.266 1056 695.713 1012 695.713 1012 c 1
 763.713 1012 806.713 1012 879.713 1012 c 1
 984.713 1012 1023.38 1000 1051.63 991 c 1
 969.338 794 l 1
 949.698 801 929.865 807 873.865 807 c 2
 654.865 807 l 1
 499 0 l 1
 242 0 l 1
 398.865 807 l 1
 255.865 807 l 1
 295.713 1012 l 1
 438.713 1012 l 1
 441.823 1028 445.127 1045 448.82 1064 c 0
 474.09 1194 583.631 1418 899.631 1418 c 0
 1095.63 1418 1216.47 1376 1264.34 1221 c 1
 1033.48 1124 l 1
 1023.42 1206 967.561 1217 877.561 1217 c 0
EndSplineSet
Fore
SplineSet
1041 1154 m 1
 969 1211 859 1217 803 1217 c 0
 671 1217 645.57 1143.08 634 1083 c 0
 628.808 1056.04 621 1012 621 1012 c 1
 793 1012 l 1
 898 1012 937 1000 965 991 c 1
 945 925.333 925 859.667 905 794 c 1
 885 801 866 807 810 807 c 1
 733.333 807 656.667 807 580 807 c 1
 528 538 476 269 424 0 c 1
 338.333 -0 252.667 0 167 0 c 1
 219.333 269 271.667 538 324 807 c 1
 282 807 240 807 198 807 c 1
 205.333 875.333 212.667 943.667 220 1012 c 1
 268 1012 316 1012 364 1012 c 1
 367 1028 370.167 1044.97 374 1064 c 0
 400.134 1193.76 509 1418 825 1418 c 0
 911 1418 1059 1397 1151 1353 c 1
 1114.33 1286.67 1077.67 1220.33 1041 1154 c 1
EndSplineSet
Validated: 1
EndChar

StartChar: g
Encoding: 103 103 6
Width: 1060
VWidth: 14
Flags: W
HStem: -402 217<174.286 495.241> -8 219<313.111 469.577> 827 207<460.487 715.291>
VStem: 66 233<218.288 614.43>
LayerCount: 2
Back
SplineSet
505.234 -184 m 2
 567.234 -184 705.037 -149 724.087 -51 c 0
 732.057 -10 716.471 23 602.471 23 c 0
 335.276 22 l 1
 306.445 -8 300.225 -40 291.672 -84 c 0
 279.62 -146 346.234 -184 415.234 -184 c 2
 505.234 -184 l 2
786.12 726 m 0
 802.837 812 729.78 822 643.78 822 c 0
 555.78 822 480.949 792 466.371 717 c 0
 448.877 627 511.434 599 601.434 599 c 0
 719.434 599 771.542 651 786.12 726 c 0
1029.2 819 m 1
 1029.2 819 1045.92 797 1030.18 716 c 0
 995.966 540 864.558 399 584.558 399 c 2
 581.558 399 l 2
 506.558 399 449.918 406 437.085 412 c 1
 413.809 390 397.561 363 391.729 333 c 0
 384.926 298 393.541 224 499.541 224 c 0
 678.541 224 l 0
 831.541 224 1018.6 178 979.529 -23 c 0
 936.183 -246 693.358 -384 520.358 -384 c 3
 459.358 -384 447.358 -384 365.358 -384 c 0
 161.358 -384 23.0469 -293 64.8379 -78 c 0
 84.4707 23 131.883 92 194.019 139 c 1
 153.822 174 129.956 257 146.673 343 c 0
 166.305 444 214.635 492 259.604 533 c 1
 230.324 583 200.516 620 214.9 694 c 0
 260.579 929 440.435 1026 694.435 1026 c 0
 794.435 1026 887.713 1012 954.577 965 c 1
 1012.52 1011 1070.43 1026 1186.43 1026 c 1
 1146.78 822 l 1
 1135.17 824 1116.75 827 1106.75 827 c 0
 1072.75 827 1054.36 825 1029.2 819 c 1
EndSplineSet
Fore
SplineSet
299 346 m 0
 299 234 334 211 379 211 c 0
 477 211 738 504 768 601 c 1
 774.333 638.667 780.667 676.333 787 714 c 1
 757 752 687 827 583 827 c 0
 433 827 299 653 299 346 c 0
1095 1013 m 1
 1052 794 1009 575 966 356 c 1
 890 -29 750 -402 354 -402 c 0
 239 -402 98 -360 -75 -257 c 1
 -42 -189.667 -9 -122.333 24 -55 c 1
 169 -156 282 -185 371 -185 c 0
 583 -185 664 110 702 233 c 1
 644 149 533 -8 321 -8 c 0
 166 -8 66 140 66 343 c 0
 66 732 291 1034 604 1034 c 0
 730 1034 797 981 845 948 c 1
 849 967 859 1003 865 1025 c 1
 941.667 1021 1018.33 1017 1095 1013 c 1
EndSplineSet
Validated: 1
EndChar

StartChar: p
Encoding: 112 112 7
Width: 1060
VWidth: -2
Flags: W
HStem: -8 201<373.967 590.726> 811 202<568.744 839> 1002 20G<385.167 424>
VStem: -48 249<-398 -118.344> 191 234<834.691 1000.88> 732 258<447.588 808.288>
LayerCount: 2
Back
SplineSet
784.216 531 m 0xd0
 821.731 724 801.643 811 713.643 811 c 0
 584.643 811 527.619 744 465.514 656 c 1
 400.452 311 l 1
 427.178 253 469.516 193 544.516 193 c 0
 659.516 193 732.316 264 784.216 531 c 0xd0
237.647 739 m 1
 242.701 765 l 2
 258.835 848 262.968 931 265.603 996 c 1
 498.656 1022 l 1xb0
 502.991 998 502.605 960 499.024 921 c 1
 567.076 983 656.519 1011 768.519 1011 c 0
 1043.52 1011 1096.2 819 1044.1 551 c 0
 978.792 215 862.445 -8 500.445 -8 c 0
 400.445 -8 360.637 29 337.663 60 c 1
 333.888 20 333.695 -17 328.143 -61 c 1
 310.454 -152 l 2
 292.183 -246 282.854 -330 276.637 -398 c 1
 27.2764 -405 l 1
 32.4658 -332 45.9316 -237 63.6201 -146 c 2
 237.647 739 l 1
EndSplineSet
Fore
SplineSet
709 531 m 0xc4
 724.092 608.982 732 669 732 714 c 0
 732 780 715 811 677 811 c 0
 548 811 410 604 357 484 c 1
 346.333 426.333 335.667 368.667 325 311 c 1
 352 253 395 193 470 193 c 0
 585 193 657.315 263.939 709 531 c 0xc4
163 739 m 1
 164.667 747.667 166.333 756.333 168 765 c 1
 184 848 188 931 191 996 c 1
 268.667 1004.67 346.333 1013.33 424 1022 c 1xac
 424 1020 425 1015 425 1011 c 0
 425 972 411 868 407 833 c 1
 455 916 584 1013 752 1013 c 0
 926 1013 990 906 990 740 c 0
 990 683 982.075 618.986 969 551 c 0
 904.369 214.929 787 -8 425 -8 c 0xcc
 325 -8 286 29 263 60 c 1
 259 20 259 -17 253 -61 c 1
 247 -91.3333 241 -121.667 235 -152 c 1
 217 -246 207 -330 201 -398 c 1
 118 -400.333 35 -402.667 -48 -405 c 1xd4
 -43 -332 -29 -237 -11 -146 c 1
 47 149 105 444 163 739 c 1
EndSplineSet
Validated: 1
EndChar

StartChar: h
Encoding: 104 104 8
Width: 1060
VWidth: -2
Flags: W
HStem: -11 11G<13 271.5 718 772.5> 796 217<583.716 735.453>
VStem: 270 250<1121.63 1402> 651 258<72.8385 387.23> 741 251<411.639 794.784>
LayerCount: 2
Back
SplineSet
1052.02 566 m 1
 984.375 218 l 0
 968.436 136 975.772 76 993.775 40 c 1
 752.225 -40 l 1
 735.445 -8 708.829 66 730.211 176 c 0
 791.44 491 l 1
 851.504 800 758.031 813 666.031 813 c 0
 589.031 813 509.258 737 465.567 682 c 1
 333 0 l 1
 88 0 l 1
 312.704 1156 l 0
 330.976 1250 338.304 1334 344.521 1402 c 1
 594.271 1411 l 1
 589.081 1338 575.42 1242 557.731 1151 c 0
 540.237 1061 523.547 1006 490.579 929 c 1
 533.021 957 619.907 1013 738.907 1013 c 0
 988.907 1013 1114.61 888 1052.02 566 c 1
EndSplineSet
Fore
SplineSet
977 566 m 1xe8
 957 462.667 936.876 359.357 917 256 c 0
 912 230 909 208 909 190 c 0
 909 152 921 128 950 97 c 1
 879 54 808 11 737 -32 c 1
 699 -5 651 48 651 131 c 0xf0
 651 145 652 160 655 176 c 0
 674.709 281.112 695.668 386.006 716 491 c 1
 734 586 741 651 741 696 c 0
 741 794 708 796 683 796 c 0
 680 796 l 0
 575 796 392 571 339 418 c 1
 312 278.667 285 139.333 258 0 c 1
 176.333 -0 94.6667 0 13 0 c 1
 87.9988 385.327 164.171 770.447 238 1156 c 0
 256 1250 264 1334 270 1402 c 1
 353.333 1405 436.667 1408 520 1411 c 1
 515 1338 478.608 1133.07 461 1042 c 0
 443.614 952.076 380 843 347 766 c 1
 389 794 518 1013 740 1013 c 0
 872 1013 992 926 992 711 c 0
 992 668 988 620 977 566 c 1xe8
EndSplineSet
Validated: 1
EndChar

StartChar: i
Encoding: 105 105 9
Width: 1060
VWidth: 0
Flags: W
HStem: -18 200<494 844.134> 1019 20<453.5 522.667> 1181 225<527 775>
VStem: 321 272<189.641 440.114>
LayerCount: 2
Back
SplineSet
329 1406 m 5
 620 1406 l 5
 620 1181 l 5
 329 1181 l 5
 329 1406 l 5
EndSplineSet
Refer: 177 305 N 1 0 0 1 0 0 2
Fore
SplineSet
527 1406 m 5
 818 1406 l 5
 775 1181 l 5
 484 1181 l 5
 527 1406 l 5
EndSplineSet
Refer: 177 305 N 1 0 0 1 0 0 2
Validated: 1
EndChar

StartChar: j
Encoding: 106 106 10
Width: 1060
VWidth: 0
Flags: W
HStem: -389 201<240.358 456.515> -28 20<125 186> 834 179<443.258 651.491> 1181 225<744 992>
VStem: 660 254<536.195 824.726>
LayerCount: 2
Back
SplineSet
546 1406 m 1
 837 1406 l 1
 837 1181 l 1
 546 1181 l 1
 546 1406 l 1
EndSplineSet
Refer: 332 567 N 1 0 0 1 0 0 2
Fore
SplineSet
744 1406 m 5
 1035 1406 l 5
 992 1181 l 5
 701 1181 l 5
 744 1406 l 5
EndSplineSet
Refer: 332 567 N 1 0 0 1 0 0 2
Validated: 1
EndChar

StartChar: k
Encoding: 107 107 11
Width: 1060
VWidth: -2
Flags: HW
HStem: 0 21G<59 330.167 752 826.667> 813 204<571.989 752.293>
VStem: 308 258<1105.38 1385.06> 757 253<625.461 880.135>
LayerCount: 2
Back
SplineSet
694.045 597 m 0
 784.045 597 806.708 657 820.897 730 c 0
 827.896 766 819.031 813 762.031 813 c 0
 689.031 813 516.15 685 516.15 685 c 1
 504.682 626 l 1
 520.099 623 655.045 597 694.045 597 c 0
383 0 m 1
 134 0 l 1
 372.699 1228 l 2
 384.557 1289 384.858 1342 379.828 1383 c 1
 632.381 1427 l 1
 636.91 1404 647.163 1359 634.334 1293 c 2
 590.987 1070 l 1
 579.713 1012 556.467 949 527.165 896 c 1
 527.165 896 667.685 1017 810.685 1017 c 0
 1010.68 1017 1114.58 929 1076.67 734 c 0
 1052.77 611 1009.44 527 852.026 458 c 1
 948.028 422 962.645 348 974.04 242 c 0
 978.487 198 1021.29 161 1049.63 137 c 1
 825.752 -27 l 1
 705.471 23 692.075 129 680.567 255 c 0
 667.586 394 481.363 398 462.363 398 c 0
 460.363 398 l 1
 383 0 l 1
EndSplineSet
Fore
SplineSet
456 429 m 1
 468 447 558 597 568 608 c 1
 595 599 618 594 639 594 c 0
 702 594 739 637 756 726 c 0
 757 731 757 736 757 741 c 0
 757 775 737 813 687 813 c 0
 614 813 441 685 441 685 c 1
 397 457 352 228 308 0 c 1
 225 -0 142 0 59 0 c 1
 139 409 218 819 298 1228 c 1
 305 1265 308 1299 308 1329 c 0
 308 1349 307 1367 305 1383 c 1
 389 1398 473 1412 557 1427 c 1
 560 1412 566 1388 566 1354 c 0
 566 1336 564 1316 560 1293 c 1
 545 1219 531 1144 516 1070 c 1
 505 1012 481 949 452 896 c 1
 452 896 593 1017 736 1017 c 0
 909 1017 1010 951 1010 808 c 0
 1010 785 1007 761 1002 734 c 0
 968 552 884 452 752 434 c 1
 851 278 908 222 1010 136 c 1
 937 81 863 25 790 -30 c 1
 714 42 577 233 456 429 c 1
EndSplineSet
Validated: 1
EndChar

StartChar: l
Encoding: 108 108 12
Width: 1060
VWidth: -2
Flags: W
HStem: -18 215<489.04 818.08>
VStem: 186 265<236.501 560.039>
LayerCount: 2
Back
SplineSet
632.964 1430 m 2
 886.964 1430 l 1
 833.898 1157 664.26 274 664.26 274 c 1
 651.82 210 662.377 182 754.377 182 c 0
 847.377 182 913.792 215 985.065 273 c 1
 1045.13 83 l 1
 945.333 12 788.501 -18 664.501 -18 c 0
 579.501 -18 491.223 -4 451.888 20 c 0
 376.023 67 383.574 147 395.042 206 c 1
 439.167 433 485.013 674 529.137 901 c 0
 551.296 1015 572.872 1126 594.088 1230 c 1
 584.088 1230 570.088 1230 554.088 1230 c 0
 497.088 1230 411.699 1228 333.395 1211 c 1
 340.549 1397 l 1
 439.992 1425 552.964 1430 632.964 1430 c 2
EndSplineSet
Fore
SplineSet
648 1422 m 9
 585 1093 522 764 459 435 c 1
 454 405 451 378 451 354 c 0
 451 247 505 197 624 197 c 0
 717 197 820 232 899 284 c 1
 922.667 217 946.333 150 970 83 c 1
 870 12 722 -18 598 -18 c 0
 385 -18 186 113 186 288 c 0
 186 317 189 347 195 379 c 1
 260.667 733.333 326.333 1087.67 392 1442 c 25
 477.333 1435.33 562.667 1428.67 648 1422 c 9
EndSplineSet
Validated: 1
EndChar

StartChar: m
Encoding: 109 109 13
Width: 1060
VWidth: 4
Flags: W
HStem: -11 11G<-55 188.667 495.5 552.833 841 891.833> 813 207<407.866 547.998 800 810.994> 1024 20G<294.5 334.5>
VStem: 698 226<143.597 298.322> 811 224<561.641 906.669>
LayerCount: 2
Back
SplineSet
945.78 -32 m 5
 877.501 -18 740.276 22 780.318 228 c 6
 780.707 230 l 5
 883.535 759 l 21
 889.698 801 886.031 813 856.031 813 c 5
 834.031 813 751.514 656 726.628 600 c 5
 608 0 l 5
 383.194 1 l 1
 530.924 761 l 1
 538.115 798 539.031 813 513.031 813 c 1
 489.031 813 404.982 715 362.378 609 c 5
 244 0 l 5
 20 0 l 1
 173.893 802 l 2
 191.971 895 184.579 929 177.104 978 c 1
 407.933 1044 l 1
 416.713 1012 408.272 948 408.08 911 c 1
 444.467 949 521.268 1020 610.268 1020 c 0
 720.268 1020 742.247 917 737.445 846 c 1
 795.385 928 875.268 1020 966.268 1020 c 6
 974.268 1020 l 6
 1098.27 1020 1127.25 881 1099.65 739 c 6
 999.93 226 l 6
 990.017 175 1033.38 146 1071.27 130 c 5
 945.78 -32 l 5
EndSplineSet
Fore
SplineSet
871 -32 m 5xf0
 811 -20 698 12 698 159 c 0xf0
 698 180 700 203 705 228 c 5
 705.333 228.667 705.667 229.333 706 230 c 5
 740.333 406.333 774.667 582.667 809 759 c 21
 811 769 811 778 811 785 c 0
 811 806 803 813 781 813 c 5
 759 813 677 656 652 600 c 5
 612.333 400 572.667 200 533 0 c 5
 458 0.333333 383 0.666667 308 1 c 1
 357.333 254.333 406.667 507.667 456 761 c 1
 459 774 460 785 460 793 c 0
 460 807 455 813 438 813 c 1
 414 813 330 715 287 609 c 5
 247.667 406 208.333 203 169 0 c 5
 94.3333 -0 19.6667 0 -55 0 c 1
 -3.66667 267.333 47.6667 534.667 99 802 c 1
 107 844 110 874 110 899 c 0
 110 929 106 951 102 978 c 1
 179 1000 256 1022 333 1044 c 1
 336 1033 337 1020 337 1004 c 0
 337 973 333 936 333 911 c 1
 369 949 446 1020 535 1020 c 0
 636 1020 663 934 663 865 c 0
 663 859 662 852 662 846 c 1
 720 928 800 1020 891 1020 c 5
 893.667 1020 896.333 1020 899 1020 c 5
 995 1020 1035 937 1035 833 c 0xe8
 1035 803 1031 771 1025 739 c 5
 991.667 568 958.333 397 925 226 c 5
 924 221 924 216 924 211 c 0
 924 169 962 144 996 130 c 5
 954.333 76 912.667 22 871 -32 c 5xf0
EndSplineSet
Validated: 1
EndChar

StartChar: o
Encoding: 111 111 14
Width: 1060
VWidth: 6
Flags: W
HStem: -6 203<374.176 589.96> 830 202<479.857 701.14>
VStem: 72 260<238.301 581.16> 729 258<424.189 804.393>
LayerCount: 2
Back
SplineSet
673.012 247 m 5
 730.12 299 763.335 403 788.021 530 c 4
 789.188 536 789.966 540 791.132 546 c 4
 819.649 703 809.336 830 681.336 830 c 4
 530.336 830 458.122 690 417.691 482 c 4
 385.424 316 425.293 197 546.293 197 c 5
 601.487 198 630.015 211 673.012 247 c 5
505.834 -6 m 5
 195.834 -6 107.766 184 162.192 464 c 4
 234.308 835 413.601 1032 705.601 1032 c 4
 902.601 1032 999.188 963 1043.53 831 c 4
 1069.17 752 1065.21 639 1046.55 543 c 4
 991.15 258 843.834 -6 507.834 -6 c 6
 505.834 -6 l 5
EndSplineSet
Fore
SplineSet
598 247 m 5
 655 299 689.865 402.689 713 530 c 4
 714.087 535.983 714.968 540.006 716 546 c 4
 723.757 591.041 729 633 729 671 c 0
 729 765 698 830 606 830 c 4
 455 830 382.687 690.059 343 482 c 4
 335.944 445.011 332 410 332 379 c 0
 332 269 377 197 471 197 c 5
 526 198 555 211 598 247 c 5
431 -6 m 5
 177 -6 72 121 72 321 c 0
 72 365 77.0494 412.99 87 464 c 4
 159.359 834.93 339 1032 631 1032 c 4
 828 1032 925 963 969 831 c 4
 982 792 987 745 987 695 c 0
 987 644 981.738 592.051 972 543 c 4
 915.482 258.31 769 -6 433 -6 c 5
 432.333 -6 431.667 -6 431 -6 c 5
EndSplineSet
Validated: 1
EndChar

StartChar: n
Encoding: 110 110 15
Width: 1060
VWidth: 6
Flags: W
HStem: 0 21G<25 292.5> 819 207<613.407 868> 1032 20G<388.833 429.5>
VStem: 192 239<822.06 1017.4> 650 265<115.569 423.461> 756 268<601.93 914.5>
LayerCount: 2
Back
SplineSet
518.19 927 m 5
 583.909 977 727.435 1026 837.435 1026 c 4
 1001.43 1026 1124.61 960 1092.73 796 c 6
 992.038 278 l 6
 979.209 212 1024.93 190 1075.1 160 c 5
 920.225 -40 l 5
 831.057 -10 699.44 64 730.152 222 c 6
 822.872 699 l 6
 837.256 773 831.197 819 764.197 819 c 4
 701.197 819 587.811 781 488.427 707 c 5
 351 0 l 5
 100 0 l 5
 237.232 706 l 6
 271.832 884 268.886 910 263.158 1004 c 5
 504.488 1052 l 5
 509.823 1028 520.715 976 518.19 927 c 5
EndSplineSet
Fore
SplineSet
423 821 m 1xf4
 522 935 604 1026 806 1026 c 0
 930 1026 1024 976 1024 853 c 0xf4
 1024 836 1022 816 1018 796 c 1
 984.333 623.333 950.667 450.667 917 278 c 1
 915 270 915 264 915 257 c 0
 915 207 956 187 1000 160 c 1
 948.333 93.3333 896.667 26.6667 845 -40 c 1
 765 -13 650 49 650 176 c 0xf8
 650 190 652 206 655 222 c 1
 686 381 717 540 748 699 c 1
 753 724 756 746 756 764 c 0
 756 799 745 819 716 819 c 0
 610 819 449 622 375 504 c 1
 342 336 309 168 276 0 c 1
 192.333 -0 108.667 0 25 0 c 1
 70.6667 235.333 116.333 470.667 162 706 c 1
 185 824 192 876 192 924 c 0
 192 949 190 972 188 1004 c 1
 268.333 1020 348.667 1036 429 1052 c 1
 430 1047 431 1034 431 1017 c 0
 431 961 425 859 423 821 c 1xf4
EndSplineSet
Validated: 1
EndChar

StartChar: q
Encoding: 113 113 16
Width: 1060
VWidth: -2
Flags: W
HStem: -10 201<344.43 493.922> 811 200<448.761 667.976> 1002 20G<826 870.167>
VStem: 77 254<195.161 613.074> 572 248<-351.398 84.9059>
LayerCount: 2
Back
SplineSet
431.216 531 m 0xd0
 379.316 264 424.516 193 539.516 193 c 0
 614.516 193 681.178 253 730.452 311 c 1
 798.514 656 l 1
 770.619 744 740.643 811 611.643 811 c 0
 523.643 811 468.731 724 431.216 531 c 0xd0
1059.65 739 m 1
 888.62 -146 l 2
 882.983 -175 l 0
 866.461 -260 848.412 -358 856.608 -393 c 1
 614.777 -423 l 1
 605.885 -371 622.183 -246 640.454 -152 c 2
 658.143 -61 l 1
 669.695 -17 682.888 20 694.663 60 c 1
 659.637 29 605.445 -8 505.445 -8 c 0
 143.445 -8 113.792 215 179.104 551 c 0
 231.197 819 359.519 1011 634.519 1011 c 0xd0
 746.519 1011 825.076 983 869.024 921 c 1
 880.605 960 893.991 998 907.656 1022 c 1xb0
 1130.6 996 l 1
 1107.97 931 1080.83 848 1064.7 765 c 2
 1059.65 739 l 1
EndSplineSet
Fore
SplineSet
356 531 m 0xd8
 338.135 440.973 331 373 331 322 c 0
 331 223 359 191 390 191 c 0
 495 191 625 350 695 516 c 1
 704.667 562.667 714.333 609.333 724 656 c 1
 696 744 666 811 537 811 c 0
 449 811 394.288 723.942 356 531 c 0xd8
985 739 m 1
 934 474.667 883 210.333 832 -54 c 1
 824 -96 820 -131 820 -160 c 0
 820 -235 842.629 -273.165 859 -311 c 0
 862.911 -320.038 867 -327 870 -332 c 1
 799.333 -372.333 728.667 -412.667 658 -453 c 1
 611 -384 572 -300 572 -179 c 0
 572 -139 576 -94 586 -45 c 1
 598 -1 615 88 627 128 c 1
 592 97 475 -10 356 -10 c 0
 152 -10 77 110 77 307 c 0
 77 379 86.777 461.043 104 551 c 0
 155.335 819.126 285 1011 560 1011 c 0xd8
 672 1011 750 983 794 921 c 1
 806 960 819 998 833 1022 c 1xb8
 907.333 1013.33 981.667 1004.67 1056 996 c 1
 1033 931 1006 848 990 765 c 1
 988.333 756.333 986.667 747.667 985 739 c 1
EndSplineSet
Validated: 1
EndChar

StartChar: r
Encoding: 114 114 17
Width: 1060
VWidth: 4
Flags: W
HStem: -18 21G<138 399.5> 808 212<753.068 937.5> 1024 20G<351.333 407.5>
VStem: 826 259<689 766.588> 841 250<689.229 878.5>
LayerCount: 2
Back
SplineSet
571.944 864 m 5
 665.994 962 781.268 1020 942.268 1020 c 4
 1109.27 1020 1194.44 918 1157.51 728 c 4
 1151.68 698 l 5
 899.289 696 l 5
 902.427 707 906.537 723 909.842 740 c 4
 917.033 777 915.003 818 859.003 818 c 5
 803.003 818 708.813 745 576.853 560 c 5
 464.501 -18 l 5
 212.501 -18 l 5
 352.844 704 l 6
 363.924 761 324.088 803 272.778 858 c 5
 456.933 1044 l 5
 508.408 995 557.966 967 571.944 864 c 5
EndSplineSet
Fore
SplineSet
514 750 m 1xe8
 592 870 706 1020 867 1020 c 0
 1008 1020 1091 947 1091 810 c 0xe8
 1091 785 1091 748 1085 719 c 0
 1082.93 709.014 1081 698.999 1079 689 c 1
 994.667 688.333 910.333 687.667 826 687 c 1xf0
 829 700 841 738 841 768 c 0
 841 790 835 808 814 808 c 0
 758 808 537 520 447 276 c 1
 428 178 409 80 390 -18 c 1
 306 -18 222 -18 138 -18 c 1
 184.667 222.667 231.333 463.333 278 704 c 1
 279 710 280 717 280 723 c 0
 280 771 243 809 198 858 c 1
 259.333 920 320.667 982 382 1044 c 1
 433 995 514 952 514 750 c 1xe8
EndSplineSet
Validated: 1
EndChar

StartChar: s
Encoding: 115 115 18
Width: 1060
VWidth: 6
Flags: W
HStem: -20 202<345.641 615.99> 829 200<479.079 892.499>
VStem: 75 256<199.357 330> 213 254<701.61 814.446> 661 256<227.435 410.738>
LayerCount: 2
Back
SplineSet
385.715 549 m 4
 311.49 589 272.234 670 293.811 781 c 4
 329.966 967 532.018 1029 707.018 1029 c 4
 846.018 1029 996.102 1014 1083.58 893 c 5
 874.897 730 l 5
 832.172 788 767.142 829 671.142 829 c 4
 589.142 829 552.865 807 545.284 768 c 4
 539.647 739 541.76 719 566.261 701 c 5
 802.045 597 1039.24 562 984.038 278 c 4
 952.548 116 791.442 28 679 0 c 5
 620.473 -13 559.112 -20 502.112 -20 c 4
 246.112 -20 116.354 115 158.146 330 c 5
 411.146 330 l 5
 390.152 222 430.377 182 539.377 182 c 4
 598.377 182 715.265 202 732.37 290 c 4
 743.839 349 729.253 382 686.668 415 c 5
 626.221 459 469.968 504 385.715 549 c 4
EndSplineSet
Fore
SplineSet
311 549 m 0xe8
 250.822 581.667 213 641 213 722 c 0
 213 740 214.969 760.006 219 781 c 0
 254.724 967.052 457 1029 632 1029 c 0
 771 1029 888 1013 1026 947 c 1
 986.667 883.667 947.333 820.333 908 757 c 1
 828 809 692 829 596 829 c 0
 514 829 478.318 806.929 470 768 c 0
 468.074 758.985 467 752 467 745 c 0xd8
 467 728 473 714 491 701 c 1
 704 607 917 569 917 355 c 0
 917 331 914.173 305.967 909 278 c 0
 879.004 115.821 716 28 604 0 c 1
 545 -13 484 -20 427 -20 c 0
 203 -20 75 84 75 254 c 0
 75 278 78 303 83 330 c 1
 167.333 330 251.667 330 336 330 c 1
 332 312 331 296 331 281 c 0
 331 210 374 182 464 182 c 0
 523 182 641.691 201.74 657 290 c 0
 659.246 302.952 661 315 661 326 c 0
 661 364 645 389 612 415 c 1
 552 459 394.747 503.539 311 549 c 0xe8
EndSplineSet
Validated: 1
EndChar

StartChar: t
Encoding: 116 116 19
Width: 1060
VWidth: 0
Flags: HW
HStem: -6 202<467.117 723.614> 805 204<521 948>
VStem: 177 254<229.428 472.672>
LayerCount: 2
Back
SplineSet
514.75 436 m 1
 506.975 396 l 2
 480.928 262 510.598 214 591.876 200 c 0
 609.487 198 643.099 196 656.099 196 c 0
 721.099 196 753.82 210 781.541 224 c 0
 838.983 252 863.202 320 874.089 340 c 1
 1062.65 240 l 1
 1047.21 212 971.438 100 846.998 36 c 0
 782.389 2 703.834 -6 618.834 -6 c 0
 434.834 -6 291.11 16 248.878 164 c 0
 227.874 236 238.646 312 255.363 398 c 2
 263.527 440 l 1
 283.021 530 306.598 641 343.477 805 c 1
 329.477 805 l 2
 301.477 805 272.698 801 245.144 793 c 1
 267.797 997 l 1
 293.353 1005 339.13 1009 372.13 1009 c 2
 387.13 1009 l 1
 400.736 1079 421.369 1180 434.976 1250 c 1
 684.809 1244 l 1
 671.98 1178 652.125 1081 637.907 1013 c 1
 746.907 1013 1058.13 1009 1066.13 1009 c 1
 1023.48 805 l 1
 886.477 805 728.865 807 595.865 807 c 1
 557.598 641 538.188 536 514.75 436 c 1
EndSplineSet
Fore
SplineSet
977 145 m 0
 912 111 751 -6 544 -6 c 0
 272 -6 177 147 177 327 c 0
 177 365 181 405 189 444 c 1
 192 458 195 472 198 486 c 1
 217 576 231 641 268 805 c 1
 263 805 259 805 254 805 c 1
 226 805 198 801 170 793 c 1
 178 861 185 929 193 997 c 1
 219 1005 264 1009 297 1009 c 1
 302 1009 307 1009 312 1009 c 1
 326 1079 346 1180 360 1250 c 1
 443 1248 527 1246 610 1244 c 1
 597 1178 577 1081 563 1013 c 1
 672 1013 983 1009 991 1009 c 1
 977 941 962 873 948 805 c 1
 811 805 654 807 521 807 c 1
 483 641 472 582 449 482 c 1
 446 469 444 455 441 442 c 1
 434 407 431 376 431 349 c 0
 431 243 482 196 581 196 c 0
 739 196 819 300 847 335 c 1
 850 335 977 145 977 145 c 0
EndSplineSet
Validated: 1
EndChar

StartChar: u
Encoding: 117 117 20
Width: 1060
VWidth: 6
Flags: W
HStem: -17 21G<786 844.667> 2 213<316.264 455.141> 1000 20G<391.833 435>
VStem: 46 267<215.184 439.558> 177 258<702.308 991.764>
LayerCount: 2
Back
SplineSet
889.695 -17 m 5xa0
 831.333 12 798.274 58 786.993 108 c 5
 697.025 31 576.972 5 426.389 2 c 5
 417.389 2 l 6
 265.389 2 89.3018 53 123.513 229 c 4
 139.452 311 159.308 408 177.968 504 c 4
 219.954 720 258.746 935 250.825 992 c 5
 510.268 1020 l 5
 514.385 928 457.068 664 387.926 298 c 5
 386.902 231 401.042 206 486.042 206 c 5x60
 639.403 213 723.564 291 748.251 418 c 5
 863.907 1013 l 5
 1114.91 1013 l 5
 977.48 306 l 5
 969.373 254 1021.35 187 1068.27 166 c 5
 889.695 -17 l 5xa0
EndSplineSet
Fore
SplineSet
815 -17 m 1xb0
 757 12 712 51 680 233 c 1
 602 123 502 5 351 2 c 1
 348 2 345 2 342 2 c 1
 206 2 46 20 46 187 c 0x70
 46 206 48.2467 227.952 53 251 c 0
 69.8718 332.81 84.2325 407.955 103 504 c 0
 141.476 700.906 177 897 177 973 c 0
 177 980 177 987 176 992 c 1
 262.333 1001.33 348.667 1010.67 435 1020 c 1
 435 1010 l 0x68
 435 910 380 652 313 298 c 1
 313 295 l 0
 313 230 320 215 365 215 c 1x70
 489 215 703 570 728 697 c 1
 748.333 802.333 768.667 907.667 789 1013 c 1
 872.667 1013 956.333 1013 1040 1013 c 1
 994 777.333 948 541.667 902 306 c 1
 901 302 901 299 901 295 c 0
 901 245 949 186 993 166 c 1
 933.667 105 874.333 44 815 -17 c 1xb0
EndSplineSet
Validated: 1
EndChar

StartChar: v
Encoding: 118 118 21
Width: 1060
VWidth: 6
Flags: W
HStem: -8 21G<269.5 369>
VStem: 809 251<792.34 1013>
LayerCount: 2
Back
SplineSet
425.153 1076 m 1
 540.144 793 568.745 508 586.789 251 c 1
 738.586 394 801.378 609 847.614 816 c 0
 852.308 835 857.167 860 862.026 885 c 0
 870.968 931 879.299 979 883.907 1013 c 1
 1134.91 1013 l 1
 1134.8 997 1115.05 880 1103.78 822 c 0
 1042.16 505 881.209 212 670.829 66 c 0
 588.749 9 548.445 -8 340.445 -8 c 1
 390.595 250 278.312 763 187.884 946 c 1
 425.153 1076 l 1
EndSplineSet
Fore
SplineSet
350 1076 m 1
 465 793 494 508 512 251 c 1
 664 394 723.038 610.043 773 816 c 0
 777.629 835.082 782.052 859.99 787 885 c 0
 796.096 930.981 804 979 809 1013 c 1
 892.667 1013 976.333 1013 1060 1013 c 1
 1060 997 1040.17 879.968 1029 822 c 0
 967.907 504.828 806.006 211.992 596 66 c 0
 514.002 8.99679 473 -8 265 -8 c 1
 274 36 277 88 277 144 c 0
 277 416 188 794 113 946 c 1
 192 989.333 271 1032.67 350 1076 c 1
EndSplineSet
Validated: 1
EndChar

StartChar: w
Encoding: 119 119 22
Width: 1060
VWidth: 4
Flags: HW
HStem: -24 18G<184.5 310 617.5 806.5> 1036 20G<352.167 400>
VStem: 150 257<533.811 982.069> 552 162<587.088 835> 882 238<669.057 1013>
LayerCount: 2
Back
SplineSet
208.271 984 m 1
 471.266 1056 l 1
 500.835 848 462.291 660 429.857 488 c 0
 427.72 477 425.775 467 423.832 457 c 0
 405.561 363 364.846 241 347.625 209 c 1
 468.403 213 523.12 299 554.998 463 c 0
 627.308 835 l 1
 788.502 836 l 1
 788.502 836 778.34 758 746.268 593 c 0
 727.607 497 701.115 371 665.598 214 c 1
 667.598 214 668.598 214 670.598 214 c 0
 807.598 214 851.279 413 890.155 613 c 0
 893.266 629 896.375 645 899.485 661 c 0
 910.371 717 919.867 771 929.197 819 c 0
 943.193 891 953.907 1013 953.907 1013 c 1
 1199.91 1013 l 1
 1195.69 981 1191.61 960 1183.05 916 c 0
 1177.22 886 1171.39 856 1166.14 829 c 0
 1136.4 676 1094.97 468 1017.23 279 c 0
 949.354 115 799 0 580 0 c 2
 546 0 l 1
 546 0 540.829 66 551.74 153 c 1
 503.745 81 389.667 -12 192.667 -12 c 2
 186.667 -12 l 1
 140.861 -11 135.834 -6 123 0 c 1
 128.939 82 227.272 521 225.308 835 c 0
 224.804 889 223.301 943 208.271 984 c 1
EndSplineSet
Fore
SplineSet
133 984 m 1
 221 1008 308 1032 396 1056 c 1
 404 1003 407 952 407 902 c 0
 407 754 380 617 355 488 c 0
 336 391 267 256 247 219 c 1
 406 330 424 375 480 463 c 0
 534 548 533 735 552 835 c 1
 606 835 660 836 714 836 c 1
 714 836 681 642 649 477 c 0
 633 396 621 348 621 261 c 0
 621 245 621 227 622 207 c 1
 756 261 829 587 874 819 c 1
 879 848 882 876 882 903 c 0
 882 945 876 983 871 1013 c 1
 953 1013 1035 1013 1117 1013 c 1
 1119 989 1120 965 1120 941 c 0
 1120 902 1117 862 1111 829 c 1
 1039 459 964 183 649 -27 c 9
 586 -11 523 5 460 21 c 1
 460 21 470 162 481 249 c 1
 432 175 403 153 217 -24 c 1
 152 -2 87 19 22 41 c 1
 101 210 150 508 150 816 c 0
 150 835 l 0
 149 889 148 943 133 984 c 1
EndSplineSet
Validated: 1
EndChar

StartChar: x
Encoding: 120 120 23
Width: 1060
VWidth: 4
Flags: W
HStem: -6 227<829.862 911> 1025 20G<328.5 398.167>
LayerCount: 2
Back
SplineSet
1097.08 839 m 0
 1039.98 751 862.685 590 755.968 504 c 1
 815.946 401 911.762 256 931.234 243 c 0
 934.651 240 939.735 225 973.735 225 c 0
 991.735 225 1010.32 228 1026.9 231 c 1
 980.389 2 l 1
 961.806 -1 937.223 -4 919.223 -4 c 0
 877.223 -4 821.166 6 786.609 34 c 1
 723.745 81 643.403 213 580.34 331 c 1
 175.836 -42 l 1
 37.1309 119 l 1
 477.717 513 l 1
 227.72 904 l 1
 437.127 1045 l 1
 654.818 673 l 1
 728.036 741 783.033 777 876.942 900 c 0
 903.746 935 925.797 997 933.102 1014 c 1
 1170.91 1013 l 1
 1155.38 964 1131.58 893 1097.08 839 c 0
EndSplineSet
Fore
SplineSet
1022 839 m 0
 965.57 750.641 788 590 681 504 c 1
 754 379 843 221 880 221 c 0
 898 221 894 224 911 227 c 1
 913.667 151.333 916.333 75.6667 919 0 c 1
 900 -3 876 -6 858 -6 c 0
 816 -6 756 14 721 42 c 1
 658 89 578 221 515 339 c 1
 377 212 239 85 101 -42 c 1
 52 16.3333 3.00001 74.6667 -46 133 c 1
 103.667 267.667 253.333 402.333 403 537 c 1
 322.333 662.667 241.667 788.333 161 914 c 1
 228 957.667 295 1001.33 362 1045 c 1
 434.333 926.333 506.667 807.667 579 689 c 1
 652 757 686.722 776.214 781 899 c 0
 807.92 934.061 830 996 837 1013 c 1
 923.333 1013 1009.67 1013 1096 1013 c 1
 1080 964 1056.34 892.777 1022 839 c 0
EndSplineSet
Validated: 1
EndChar

StartChar: y
Encoding: 121 121 24
Width: 1060
VWidth: 14
Flags: W
HStem: -376 202<123.156 321.832> -52 20G<22 57> 751 262<153 280.384>
LayerCount: 2
Back
SplineSet
318.178 -174 m 0
 407.178 -174 504.335 -24 542.606 70 c 1
 425.909 550 362.979 751 246.979 751 c 3
 226.979 751 212.979 751 202.785 750 c 1
 252.519 1011 l 1
 252.519 1011 294.907 1013 328.907 1013 c 3
 520.907 1013 618.202 747 715.283 341 c 1
 831.464 558 860.783 786 912.907 1013 c 1
 1168.91 1013 l 1
 1157.24 953 1145.19 891 1133.08 839 c 0
 1055.3 516 853.464 131 612.178 -174 c 0
 475.55 -347 385.913 -376 238.913 -376 c 1
 24.9131 -376 12.3721 -173 42 0 c 1
 292 0 l 1
 279.478 -85 270.178 -174 318.178 -174 c 0
EndSplineSet
Fore
SplineSet
54 -32 m 1
 60 -39 98 -174 243 -174 c 0
 332 -174 442 27 480 121 c 1
 363 601 308 751 192 751 c 3
 172 751 157 751 147 750 c 1
 149 837.667 151 925.333 153 1013 c 1
 254 1013 l 3
 446 1013 543 747 640 341 c 1
 756 558 786 786 838 1013 c 1
 923.333 1013 1008.67 1013 1094 1013 c 1
 1082 953 1070.26 890.936 1058 839 c 0
 981.643 515.621 781.163 113.871 540 -191 c 0
 403.093 -364.073 311 -376 164 -376 c 1
 -6 -376 -117 -206 -138 -200 c 1
 -74 -144 -10 -88 54 -32 c 1
EndSplineSet
Validated: 1
EndChar

StartChar: z
Encoding: 122 122 25
Width: 1060
VWidth: 6
Flags: W
HStem: -8 208<453.809 774.833> 55 187<394 567.723> 803 214<247 702> 1018 20G<988 1030.67>
LayerCount: 2
Back
SplineSet
251.42 815 m 1
 321.685 1017 l 1
 366.713 1012 477.519 1011 601.519 1011 c 0
 787.519 1011 1004.1 1014 1074.49 1016 c 1
 1114.56 826 l 1
 1075.14 793 528.642 384 440.293 197 c 1
 841.459 203 l 2
 843.459 203 845.459 203 847.459 203 c 0
 901.459 203 947.933 190 1003.24 171 c 1
 921.724 -22 l 1
 879.251 -9 865 0 800 0 c 2
 71 0 l 1
 74.8877 20 l 2
 89.0771 93 103.797 143 129.738 189 c 0
 250.335 403 524.792 642 756.671 806 c 1
 688.477 805 655.088 803 554.088 803 c 0
 429.088 803 306.671 806 251.42 815 c 1
EndSplineSet
Fore
SplineSet
176 815 m 1x70
 199.667 882.333 223.333 949.667 247 1017 c 1
 292 1012 754 1011 878 1011 c 0
 938 1011 964 1013 1012 1038 c 1
 1049.33 985.333 1086.67 932.667 1124 880 c 1
 1085 847 562 389 394 242 c 1x70
 488 242 596 200 704 200 c 1
 773 200 791 277 791 293 c 9
 868.667 279.333 946.333 265.667 1024 252 c 1
 1002 146 988 -8 728 -8 c 1xb0
 569 -8 442 55 320 55 c 0
 265 55 210 42 155 4 c 1
 135.333 -11.3333 115.667 -26.6667 96 -42 c 1
 81.7513 -31.8343 -75 80 -75 80 c 0
 90 272 494 620 702 806 c 1
 634 805 580 803 479 803 c 0
 354 803 231 806 176 815 c 1x70
EndSplineSet
Validated: 1
EndChar

StartChar: A
Encoding: 65 65 26
Width: 1060
VWidth: 0
Flags: W
HStem: 0 21G<-69 196.5 692 972> 281 223<409.995 673.747> 1305 20G<505.5 849.5>
LayerCount: 2
Fore
SplineSet
674 504 m 1
 674 511 l 0
 674 625 636 773 636 905 c 0
 636 937 638 968 644 998 c 1
 605 830 472 625 407 486 c 1
 470 499 590 499 674 504 c 1
601 1325 m 1
 675.667 1325 750.333 1325 825 1325 c 1
 874 883 929 448 972 0 c 1
 880 -0 788 0 696 0 c 1
 688 94 681 188 673 281 c 5
 520 278 436 282 310 252 c 1
 294 222 278 192 262 162 c 1
 230 101 202 43 191 0 c 1
 104.333 -0 17.6667 0 -69 0 c 1
 -53 61 -14 143 28 223 c 1
 219 590.333 410 957.667 601 1325 c 1
EndSplineSet
Validated: 1
EndChar

StartChar: B
Encoding: 66 66 27
Width: 1060
VWidth: 0
Flags: W
HStem: -5 197<275 592.359> 636 198<405 585.078> 1123 202<459.443 644.151>
VStem: 656 263<906.486 1110.72> 724 258<328.713 592.431>
LayerCount: 2
Fore
SplineSet
154 837 m 0xe8
 188.111 1013.98 217 1178 233 1308 c 1
 315 1314 460 1325 573 1325 c 0
 591 1325 l 0
 786 1325 919 1254 919 1088 c 0xf0
 919 1065 916.12 1040.98 911 1014 c 0
 883.645 869.881 822 824 739 783 c 1
 872 744 982 661 982 495 c 0
 982 468 979.027 438.995 973 408 c 0
 914.264 105.949 722.915 23.6769 552 3 c 0
 511.981 -1.84135 470 -5 431 -5 c 0
 357 -5 300 0 215 0 c 0
 177 0 l 1
 112.333 -0 47.6667 0 -17 0 c 1
 21 198 72.267 412.949 154 837 c 0xe8
653 1012 m 2
 655.941 1023.76 656 1034 656 1043 c 0
 656 1120 586 1123 565 1123 c 0
 561 1123 l 1
 555.667 1123 550.333 1123 545 1123 c 1
 506 1123 489 1121 458 1118 c 1
 454 1083 446.803 1045.04 439 1004 c 0
 428.742 950.05 416 892 405 834 c 1
 443 834 l 0
 516 834 620 846 651 1004 c 1
 651.667 1006.67 652.333 1009.33 653 1012 c 2
528 638 m 0
 479 638 482 636 409 636 c 1
 394.333 636 379.667 636 365 636 c 1
 316 394 291 276 275 198 c 1
 323 195 362 192 400 192 c 0
 430 192 460.022 193.821 496 198 c 0
 529.018 201.835 683.924 237.832 718 420 c 0
 722.111 441.979 724 462 724 480 c 0xe8
 724 603 633 638 528 638 c 0
EndSplineSet
Validated: 1
EndChar

StartChar: C
Encoding: 67 67 28
Width: 1060
VWidth: 0
Flags: W
HStem: -3 201<416.318 648.987> 1128 204<592.525 818.265>
VStem: 84 265<271.823 726.474>
LayerCount: 2
Fore
SplineSet
710 1128 m 0
 595 1128 435.051 992.18 365 628 c 0
 353.849 570.029 349 518 349 471 c 0
 349 295 419 198 503 198 c 1
 507.667 198 512.333 198 517 198 c 1
 641 198 692 262 765 392 c 5
 838.333 346.333 911.667 300.667 985 255 c 1
 880 97 689 -3 499 -3 c 1
 498 -3 497 -3 496 -3 c 1
 385 -3 259 22 183 116 c 1
 117 202 84 308 84 439 c 0
 84 499 91.0484 563.991 105 636 c 0
 155.174 894.966 266.952 1054.04 334 1132 c 0
 426.934 1240.06 581 1332 756 1332 c 0
 896 1332 1057 1269 1114 1107 c 1
 1028.67 1065.33 943.333 1023.67 858 982 c 1
 832 1106 796 1128 710 1128 c 0
EndSplineSet
Validated: 1
EndChar

StartChar: D
Encoding: 68 68 29
Width: 1060
VWidth: 0
Flags: W
HStem: -10 205<287 551.013> 1127 204<464.233 658.122>
VStem: 757 269<483.778 1009.21>
LayerCount: 2
Fore
SplineSet
547 1127 m 1
 537 1127 527 1127 517 1127 c 1
 501 1127 489 1127 471 1124 c 1
 467 1098 461.954 1068.01 456 1037 c 0
 443.907 974.018 438.147 952.972 425 884 c 0
 366.651 577.877 307 296 287 198 c 1
 374 195 326 195 386 195 c 0
 389 195 l 0
 429 195 572.616 197.239 669 353 c 0
 696.888 398.069 722.062 488.988 733 544 c 0
 750.096 629.981 757 707 757 775 c 0
 757 1006 668 1127 547 1127 c 1
20 128 m 1
 31 183 114 580 176 901 c 1
 181 926.333 186 951.667 191 977 c 1
 216 1106 236 1229 244 1317 c 1
 327 1325 373 1331 472 1331 c 0
 767 1331 875 1260 970 1066 c 1
 1007 986 1026 885 1026 776 c 0
 1026 713 1019.88 646.022 1007 580 c 0
 942.424 249.113 728.05 19.4419 483 -3 c 0
 427.012 -8.12745 376 -10 321 -10 c 0
 237 -10 105 -3 -9 -3 c 1
 -2 31 -2 30 20 128 c 1
EndSplineSet
Validated: 1
EndChar

StartChar: E
Encoding: 69 69 30
Width: 1060
VWidth: 0
Flags: W
HStem: 0 204<323 868.946> 646 203<450 749> 1118 205<502 1033.5>
LayerCount: 2
Fore
SplineSet
283 1319 m 1
 340 1323 410 1323 488 1323 c 0
 586 1323 l 1
 622.667 1323 659.333 1323 696 1323 c 1
 845 1323 981 1320 1055 1320 c 1
 1060.33 1320 1065.67 1320 1071 1320 c 1
 1057.67 1252.67 1044.33 1185.33 1031 1118 c 1
 854.667 1118 678.333 1118 502 1118 c 1
 484.667 1028.33 467.333 938.667 450 849 c 1
 562.667 849 675.333 849 788 849 c 1
 775 781.333 762 713.667 749 646 c 1
 636.333 646 523.667 646 411 646 c 1
 409 635.667 407 625.333 405 615 c 1
 365 408 338 283 323 204 c 1
 461.667 204.667 600.333 205.333 739 206 c 1
 795 206 869 233 869 233 c 1
 880.333 166.667 891.667 100.333 903 34 c 1
 852 21 807 0 709 0 c 1
 481.667 -0 254.333 0 27 0 c 1
 112.333 439.667 197.667 879.333 283 1319 c 1
EndSplineSet
Validated: 1
EndChar

StartChar: F
Encoding: 70 70 31
Width: 1060
VWidth: 0
Flags: W
HStem: 0 21G<262.833 316> 642 216<468 787.395> 1115 209<519 1051.92>
LayerCount: 2
Fore
SplineSet
307 0 m 1
 218.667 1 130.333 2 42 3 c 1
 127.333 443.333 212.667 883.667 298 1324 c 1
 520 1324 742 1324 964 1324 c 1
 1066 1324 1108 1307 1139 1290 c 1
 1110.33 1222.33 1081.67 1154.67 1053 1087 c 1
 1030 1101 1011 1114 913 1115 c 1
 889.667 1115 866.333 1115 843 1115 c 1
 739 1115 702 1115 519 1114 c 1
 502 1028 485 942 468 856 c 1
 588 856 546 858 668 858 c 0
 758 858 821 843 858 825 c 1
 835 756.667 812 688.333 789 620 c 1
 755 637 706 642 661 642 c 0
 576 642 l 0
 546 642 491 642 426 640 c 1
 402 517 325 95 307 0 c 1
EndSplineSet
Validated: 1
EndChar

StartChar: G
Encoding: 71 71 32
Width: 1060
VWidth: 0
Flags: W
HStem: -8 206<372.09 617.958> 567 207<506.497 763> 1121 207<557.613 820.978>
VStem: 49 259<268.34 731.863>
LayerCount: 2
Fore
SplineSet
1064 758 m 1
 1053 700.667 1042 643.333 1031 586 c 1
 944 142 804 50 617 3 c 1
 570 -7 505 -8 463 -8 c 0
 170 -8 49 183 49 442 c 0
 49 505 56.8069 572.038 70 641 c 0
 116.321 883.128 208 1080 364 1210 c 1
 481 1300 601 1328 716 1328 c 1
 722.667 1328 729.333 1328 736 1328 c 1
 949 1323 1080 1237 1123 1071 c 1
 1037.67 1032.33 952.333 993.667 867 955 c 1
 854 1073 815 1121 683 1121 c 0
 515 1121 383.638 919.069 328 630 c 0
 314.915 562.016 308 501 308 447 c 0
 308 291 365 198 493 198 c 0
 665 198 725 374 763 568 c 1
 741.676 567.667 720.327 567 699 567 c 0
 628 567 599 564 502 530 c 5
 488.333 597 474.667 664 461 731 c 1
 564 768 669 774 770 774 c 0
 873 774 989 764 1064 758 c 1
EndSplineSet
Validated: 1
EndChar

StartChar: H
Encoding: 72 72 33
Width: 1060
VWidth: 0
Flags: W
HStem: 0 21G<-15 261 600 897.667> 599 215<398.475 716> 1302 20G<456.167 481.5>
LayerCount: 2
Fore
SplineSet
499 1322 m 1
 464 1143 429 964 394 785 c 5
 490 806 551 814 671 814 c 5
 700 814 729 814 758 814 c 5
 812 1094 823 1152 855 1317 c 1
 940.333 1317 1025.67 1317 1111 1317 c 1
 1025.67 878 940.333 439 855 0 c 1
 770 -0 685 0 600 0 c 1
 638.667 199.667 677.333 399.333 716 599 c 1
 684 599 l 0
 538 599 475 596 352 570 c 1
 284 220 279 185 243 0 c 1
 157 -0 71 0 -15 0 c 1
 70.6667 440 156.333 880 242 1320 c 1
 327.667 1320.67 413.333 1321.33 499 1322 c 1
EndSplineSet
Validated: 1
EndChar

StartChar: K
Encoding: 75 75 34
Width: 1060
VWidth: 0
Flags: W
HStem: -11 6G<8 280.5 746 797> 1315 20G<224.667 526 976 1025>
LayerCount: 2
Fore
SplineSet
638 742 m 1
 735 623 968 192 992 54 c 1
 914 25.3333 836 -3.33333 758 -32 c 1
 734 79 570 445 465 574 c 1
 465 574 397 512 353 440 c 1
 324 291.667 295 143.333 266 -5 c 1
 180 -5 94 -5 8 -5 c 1
 94.6667 441.667 181.333 888.333 268 1335 c 1
 354 1335 440 1335 526 1335 c 1
 496 1180.33 466 1025.67 436 871 c 1
 567 1016 954 1339 998 1376 c 1
 1052 1317 1106 1258 1160 1199 c 1
 952 1064 712 816 638 742 c 1
EndSplineSet
Validated: 1
EndChar

StartChar: L
Encoding: 76 76 35
Width: 1060
VWidth: 0
Flags: W
HStem: -3 210<376 919.823> 1305 20G<296.833 594>
LayerCount: 2
Fore
SplineSet
81 -3 m 5
 167.333 439.667 253.667 882.333 340 1325 c 5
 424.667 1325 509.333 1325 594 1325 c 5
 521.333 952.333 448.667 579.667 376 207 c 5
 518.667 207 661.333 207 804 207 c 5
 864 210 875 213 922 228 c 5
 933.333 162.333 944.667 96.6667 956 31 c 5
 906 15 840 -3 765 -3 c 5
 537 -3 309 -3 81 -3 c 5
EndSplineSet
Validated: 1
EndChar

StartChar: M
Encoding: 77 77 36
Width: 1060
VWidth: 32
Flags: W
HStem: 0 21G<-13 256.333 626 873> 1303 20G<201.167 475 858.5 1128>
LayerCount: 2
Fore
SplineSet
244 1323 m 1
 312 1323 380 1323 448 1323 c 1
 502 1209 563 1020 589 834 c 1
 678 1016 805 1190 912 1323 c 1
 984 1323 1056 1323 1128 1323 c 1
 1051 925 873 5.23327e-05 873 0 c 1
 790.667 -0 708.333 0 626 0 c 1
 664 198.667 702 397.333 740 596 c 1
 760 700 824 898 824 898 c 5
 737 775 630 588 612 551 c 1
 562 550.333 512 549.667 462 549 c 1
 462 549 412 817 380 898 c 5
 380 898 375 709 353 596 c 1
 314.333 397.333 275.667 198.667 237 0 c 1
 153.667 -0 70.3333 0 -13 0 c 1
 72.6667 441 158.333 882 244 1323 c 1
EndSplineSet
Validated: 1
EndChar

StartChar: N
Encoding: 78 78 37
Width: 1060
VWidth: 0
Flags: W
HStem: 0 21G<-1 260 596 870> 1305 20G<214.833 292.833 862.5 924.667>
VStem: 616 249<0 224.453>
LayerCount: 2
Fore
SplineSet
616 0 m 1
 576 259 499 626 408 845 c 1
 390.667 753.333 373.333 661.667 356 570 c 1
 299 271 275 152 245 -3 c 1
 163 -3 81 -3 -1 -3 c 1
 85.3333 439.667 171.667 882.333 258 1325 c 1
 327.667 1322.67 397.333 1320.33 467 1318 c 1
 556 1130 699 656 720 407 c 1
 734.869 529.588 741.405 656.835 765 778 c 0
 802 968 841 1155 884 1329 c 1
 965.333 1328.67 1046.67 1328.33 1128 1328 c 1
 1100 1213 1068.16 1060.97 1036 895 c 0
 991.227 663.956 944.309 405.131 899 170 c 0
 887.83 112.033 875 54 865 0 c 1
 782 -0 699 0 616 0 c 1
EndSplineSet
Validated: 1
EndChar

StartChar: O
Encoding: 79 79 38
Width: 1060
VWidth: 0
Flags: W
HStem: -16 203<360.807 563.347> 1147 203<572.94 756.613>
VStem: 51 263<233.854 671.328> 800 258<593.106 1102.42>
LayerCount: 2
Fore
SplineSet
709 1350 m 1
 843 1350 1058 1299 1058 917 c 0
 1058 841 1049 752 1030 647 c 1
 1029.33 643.333 1028.67 639.667 1028 636 c 1
 996 469 933.404 311.715 867 217 c 0
 763.632 69.561 597 -16 432 -16 c 0
 310 -16 169.299 25.1813 108 127 c 0
 68.195 193.117 51 274 51 367 c 0
 51 432 59.1534 502.97 74 579 c 0
 142.709 930.86 233.119 1089.89 322 1187 c 0
 406.112 1278.9 552 1347 709 1350 c 1
471 187 m 0
 608 187 731 463 767 640 c 1
 768.333 645.667 769.667 651.333 771 657 c 1
 785 726 800 825 800 915 c 0
 800 1038 771 1147 669 1147 c 0
 530 1147 391.673 868.865 337 592 c 0
 324.158 526.969 314 458 314 396 c 0
 314 280 350 187 471 187 c 0
EndSplineSet
Validated: 1
EndChar

StartChar: P
Encoding: 80 80 39
Width: 1060
VWidth: 0
Flags: W
HStem: 0 21G<29 294.5> 439 208<405 679.196> 1117 211<489.125 795.415>
VStem: 824 268<797.732 1091.5>
LayerCount: 2
Fore
SplineSet
816 909 m 0
 821.715 937.055 824 962 824 983 c 0
 824 1114 728 1117 657 1117 c 0
 648 1117 l 1
 587 1117 542 1113 497 1112 c 1
 492.333 1088.33 487.667 1064.67 483 1041 c 1
 447 854 405 649 405 649 c 1
 441 648 476 647 509 647 c 0
 625 647 768.644 676.505 816 909 c 0
279 0 m 5
 195.667 -0 112.333 0 29 0 c 1
 114.667 440 200.333 880 286 1320 c 1
 404 1320 443 1328 576 1328 c 0
 801 1328 968.955 1314.97 1057 1174 c 0
 1081.99 1133.99 1092 1084 1092 1030 c 0
 1092 996 1088 960 1081 924 c 0
 1018 600 862 439 518 439 c 0
 470 439 419 440 365 442 c 1
 313 174 310 159 279 0 c 5
EndSplineSet
Validated: 1
EndChar

StartChar: Q
Encoding: 81 81 40
Width: 1060
VWidth: 0
Flags: W
HStem: -183 216<723.495 865> -3 201<361.63 517> 319 217<388.871 526.938> 1115 216<523.42 734.418>
VStem: 75 246<319.556 729.926> 788 240<608.156 1062.43>
LayerCount: 2
Fore
SplineSet
779 -183 m 0xbc
 664 -183 518 -122 517 8 c 1
 486 7.12907e-06 465 -3 425 -3 c 0x7c
 309 -3 209.556 39.67 147 123 c 0
 97.6522 188.736 75 286 75 404 c 0
 75 476 83.1393 555.973 100 642 c 0
 141.341 852.933 207.772 1048.22 327 1173 c 0
 443.775 1295.21 550 1331 673 1331 c 0
 840 1331 942.81 1264.93 994 1121 c 0
 1018.91 1050.97 1028 981 1028 915 c 0
 1028 832 1014.15 755.97 1002 693 c 0
 959.528 472.899 871 216 718 116 c 1
 718 100 l 0
 718 41 735 34 809 33 c 1
 812.667 33 816.333 33 820 33 c 1
 857 33 882 38 907 44 c 1
 893 -29.6667 879 -103.333 865 -177 c 1
 842 -182 824 -183 779 -183 c 0xbc
516 536 m 4
 631 536 676 477 694 404 c 1
 714 444 729.118 538.971 761 683 c 0
 762.781 691.042 763.246 697.954 765 706 c 0
 777.765 764.559 788 828 788 891 c 0
 788 928 784.201 965.058 774 1001 c 0
 754.387 1070.11 706 1115 634 1115 c 0
 505 1115 406.865 964.827 356 706 c 0
 352.067 685.987 347.344 662.929 343 640 c 0
 335.591 600.897 321 526 321 470 c 0
 321 454 322 440 325 428 c 1
 377 495 444 536 516 536 c 4
532 211 m 1
 532 211 532.919 214.014 533 215 c 0
 533.5 221 535 228 535 235 c 0
 535 271 518 319 460 319 c 0
 428 319 385 308 351 270 c 1
 356 218 415 198 453 198 c 0
 470 198 l 0
 489 198 513 202 532 211 c 1
EndSplineSet
Validated: 1
EndChar

StartChar: R
Encoding: 82 82 41
Width: 1060
VWidth: 0
Flags: W
HStem: 0 21G<15 276> 1124 205<476 748.812>
VStem: 813 269<812.409 1068.19>
LayerCount: 2
Fore
SplineSet
708 548 m 1
 762 424 853 273 896 207 c 1
 911 191 952 155 992 144 c 1
 940.667 81.3333 889.333 18.6667 838 -44 c 1
 782 -35 732 15 706 58 c 1
 630 167 515 434 478 530 c 1
 443 533 407 540 366 558 c 1
 330 372 294 186 258 0 c 1
 177 -0 96 0 15 0 c 1
 88.6667 378.667 162.333 757.333 236 1136 c 1
 249 1204 257 1252 265 1314 c 1
 308 1318 425 1329 486 1329 c 0
 736 1329 954.074 1321.04 1046 1168 c 0
 1070.02 1128.01 1082 1073 1082 1015 c 0
 1082 986 1078.85 957.029 1073 928 c 0
 1027.88 704.233 890 578 708 548 c 1
807 906 m 0
 811.057 926.989 813 945 813 962 c 0
 813 1087 710 1124 539 1124 c 0
 513 1124 505 1124 476 1123 c 1
 453 1004.67 430 886.333 407 768 c 1
 466 741 522 726 565 726 c 0
 573 726 l 1
 743 726 787.276 803.947 807 906 c 0
EndSplineSet
Validated: 1
EndChar

StartChar: S
Encoding: 83 83 42
Width: 1060
VWidth: 0
Flags: W
HStem: -9 209<334.844 620.61> 1118 210<489.142 842.193>
VStem: 23 269<240.962 420> 164 273<895.299 1064.56> 720 266<292.378 530.142>
LayerCount: 2
Fore
SplineSet
292 702 m 1xe8
 211 743 164 837 164 937 c 0
 164 960 166.98 983.004 172 1006 c 0
 219.813 1225.04 398 1328 653 1328 c 0
 662 1328 l 0
 902 1328 1045 1282 1123 1192 c 1
 1063 1128 1003 1064 943 1000 c 1
 862 1102 697 1118 627 1118 c 1
 577 1118 454 1082 441 1014 c 1
 438 1000 437 987 437 976 c 0xd8
 437 909 481.066 889.156 527 870 c 0
 641.161 822.39 710 813 830 752 c 1
 912 708 986 627 986 486 c 0
 986 458 983.183 428.965 977 396 c 0
 920.672 95.696 684 -9 444 -9 c 1
 437.667 -9 431.333 -9 425 -9 c 1
 130 -1 23 137 23 317 c 0
 23 351 27 386 34 422 c 1
 122.667 421.333 211.333 420.667 300 420 c 1
 295 394 292 370 292 349 c 0
 292 252 346 200 471 200 c 0
 550 200 687.423 236.115 716 382 c 0
 718.941 397.011 720 411 720 424 c 0
 720 506 667.033 552.069 605 582 c 0
 499.057 633.118 413 641 292 702 c 1xe8
EndSplineSet
Validated: 1
EndChar

StartChar: T
Encoding: 84 84 43
Width: 1060
VWidth: 0
Flags: W
HStem: 0 21G<280 576.167> 1118 207<221 497 757 1049.96>
LayerCount: 2
Fore
SplineSet
280 0 m 5
 352.333 372.667 424.667 745.333 497 1118 c 1
 299 1118 257 1117 181 1117 c 1
 194.333 1186 207.667 1255 221 1324 c 1
 343 1324 798 1325 986 1325 c 0
 1059 1325 1126 1316 1149 1309 c 1
 1116 1241.33 1083 1173.67 1050 1106 c 1
 1050 1106 1000 1118 940 1118 c 1
 879 1118 818 1118 757 1118 c 1
 684.667 745.333 612.333 372.667 540 0 c 5
 453.333 -0 366.667 0 280 0 c 5
EndSplineSet
Validated: 1
EndChar

StartChar: U
Encoding: 85 85 44
Width: 1060
VWidth: 0
Flags: W
HStem: -10 210<365.969 579.088> 1329 1G<234.5 511 877 929.333>
VStem: 71 264<232.409 658.974> 253 258<1128.91 1329> 888 248<1182.47 1323.31>
LayerCount: 2
Fore
SplineSet
888 1350 m 5xe8
 970.667 1340.67 1053.33 1331.33 1136 1322 c 1
 1119 1272 1111.64 1236.86 1103 1195 c 0
 1101.14 1185.97 1099.98 1176 1098 1166 c 0
 1068.71 1018.06 1047 888 1025 775 c 1
 1021 755.333 1017 735.667 1013 716 c 1
 967 479 918.867 253.139 781 121 c 0
 679.902 24.1022 545 -5 415 -10 c 1
 160 -10 71 106 71 315 c 0xe8
 71 358 75.1852 404.976 82 456 c 0
 92.2791 532.962 114.091 656.982 141 795 c 0
 175.115 969.977 216 1168 253 1329 c 1
 339 1329 425 1329 511 1329 c 1xd8
 474 1161 426.385 931.923 389 743 c 0
 379.102 692.98 370.03 644.994 362 602 c 0
 350.045 537.992 339.74 485.01 338 448 c 0
 336.825 423.009 335 395 335 366 c 0
 335 285 351 203 454 200 c 1
 656 209 702.643 430.877 758 718 c 0
 782.282 843.945 806.174 992.966 840 1166 c 0
 854.072 1237.99 866 1287 888 1350 c 5xe8
EndSplineSet
Validated: 1
EndChar

StartChar: V
Encoding: 86 86 45
Width: 1060
VWidth: 0
Flags: W
HStem: 0 21G<293 623> 1335 20G<385.833 453.5 905 1015.33>
VStem: 175 253<1006.33 1271.04>
LayerCount: 2
Fore
SplineSet
293 0 m 5
 294 15 295 34 295 56 c 0
 295 322 221 1056 175 1266 c 1
 259.333 1295.67 343.667 1325.33 428 1355 c 1
 479 1098 488 707 513 331 c 1
 649 651 830 1095 980 1348 c 1
 1050.67 1321.67 1121.33 1295.33 1192 1269 c 1
 1048 1033 652 204 594 0 c 1
 493.667 -0 393.333 0 293 0 c 5
EndSplineSet
Validated: 1
EndChar

StartChar: W
Encoding: 87 87 46
Width: 1060
VWidth: 0
Flags: W
HStem: 0 21G<79 323.5 547 827> 1301 20G<953 1026.17>
VStem: 192 242<952.303 1291.36> 547 246<0 129.096> 559 167<319 585>
LayerCount: 2
Back
SplineSet
332 0 m 5
 201 0 l 5
 158 170 52 1035 6 1286 c 5
 160 1318 l 5
 280 675 246 608 290 298 c 5
 360 528 429 886 435 957 c 5
 480 957 568 957 602 969 c 5
 638 778 686 485 744 300 c 5
 777 585 741 624 868 1315 c 5
 1023 1281 l 5
 971 1030 868 178 835 0 c 5
 699 0 l 5
 699 0 553 429 521 613 c 5
 474 388 340 22 332 0 c 5
EndSplineSet
Fore
SplineSet
320 0 m 1xe8
 239.667 -0 159.333 0 79 0 c 1
 79 22 l 0
 79 237 188 1043 192 1290 c 1
 272.667 1299.67 353.333 1309.33 434 1319 c 1
 422 1126 405.306 1049.95 396 986 c 0
 360.18 739.834 293 412 284 316 c 1
 284 316 520 916 540 988 c 1
 561 988 592 985 625 985 c 0
 664 985 707 989 739 1004 c 1
 726 786 726 319 726 319 c 1xe8
 770 458 816.662 726.088 878 962 c 0
 894.907 1027.02 916 1132 990 1321 c 1
 1062.33 1308.33 1134.67 1295.67 1207 1283 c 1
 1105 1027 861 182 793 0 c 1
 711 -0 629 0 547 0 c 1xf0
 547 4.92736e-07 554 397 559 585 c 1
 467 355 327 12 320 0 c 1xe8
EndSplineSet
Validated: 1
EndChar

StartChar: X
Encoding: 88 88 47
Width: 1060
VWidth: 0
Flags: W
HStem: -31 21G<708.5 801.5> 1347 29G<351.833 436.5 921.833 1013.17>
LayerCount: 2
Fore
SplineSet
985 1367 m 1
 1041.33 1328.33 1097.67 1289.67 1154 1251 c 1
 1002 1053 850 855 698 657 c 1
 816 385 844 233 959 93 c 1
 896 51.6667 833 10.3333 770 -31 c 1
 647 119 643 221 539 468 c 1
 407.667 294 276.333 120 145 -54 c 1
 83.3333 -10 21.6667 34 -40 78 c 1
 120 283 280 488 440 693 c 1
 360 901 290 1082 181 1241 c 1
 249.333 1286 317.667 1331 386 1376 c 1
 487 1227 537 1054 606 879 c 1
 732.333 1041.67 858.667 1204.33 985 1367 c 1
EndSplineSet
Validated: 1
EndChar

StartChar: Y
Encoding: 89 89 48
Width: 1060
VWidth: 0
Flags: W
HStem: 1342 20G<357.833 406.5 900 978.5>
LayerCount: 2
Fore
SplineSet
279 18.4004 m 1
 379 215.733 466 394.667 566 592 c 1
 509 705 207 1114 177 1222 c 1
 249.333 1268.67 321.667 1315.33 394 1362 c 1
 419 1283 630 962 690 822 c 1
 774 1006.67 858 1191.33 942 1376 c 1
 1015 1344 1088 1312 1161 1280 c 1
 955 853.333 716 361.066 510 -65.5996 c 1
 447 -44.6 354 -17.6 279 18.4004 c 1
EndSplineSet
Validated: 1
EndChar

StartChar: Z
Encoding: 90 90 49
Width: 1060
VWidth: 0
Flags: W
HStem: 0 216<354 895.795> 1119 209<270 821>
LayerCount: 2
Fore
SplineSet
48 0 m 1
 33.3333 49.3333 18.6667 98.6667 4 148 c 1
 276.333 471.667 548.667 795.333 821 1119 c 1
 607 1119 345 1114 231 1114 c 1
 244 1184 257 1254 270 1324 c 1
 390 1324 813 1328 1001 1328 c 0
 1076 1328 1120 1315 1138 1312 c 1
 1138 1310 1137.82 1308.04 1137 1305 c 0
 1126.75 1266.75 1126.95 1159.35 1118 1126 c 0
 1117.18 1122.96 1116 1120 1116 1118 c 1
 862 817.667 608 517.333 354 217 c 5
 475 216.667 596 216.333 717 216 c 1
 802 216 830 221 899 242 c 1
 908.667 170.333 918.333 98.6667 928 27 c 1
 880 11 809 0 734 0 c 0
 55 0 l 1
 52.6667 -0 50.3333 0 48 0 c 1
EndSplineSet
Validated: 1
EndChar

StartChar: I
Encoding: 73 73 50
Width: 1060
VWidth: 0
Flags: W
HStem: 4 214<100 333 590 774> 1112 212<314 509 765 994>
LayerCount: 2
Fore
SplineSet
314 1324 m 1
 471 1328 572 1329 668 1329 c 0
 773 1329 873 1328 1036 1326 c 1
 1022 1255.67 1008 1185.33 994 1115 c 1
 871 1115 860 1120 765 1120 c 1
 706.667 819.667 648.333 519.333 590 219 c 1
 636 219 621 220 672 220 c 0
 717 220 764 219 815 216 c 1
 801.333 143.667 787.667 71.3333 774 -1 c 1
 690 4 628 5 565 5 c 0
 518 5 469 4 410 4 c 0
 336 4 213 -3 58 -3 c 1
 72 69 86 141 100 213 c 1
 186 217 224 218 281 218 c 5
 298.333 218 315.667 218 333 218 c 5
 391.667 518.333 450.333 818.667 509 1119 c 5
 443 1118 386 1118 279 1112 c 1
 290.667 1182.67 302.333 1253.33 314 1324 c 1
EndSplineSet
Validated: 1
EndChar

StartChar: J
Encoding: 74 74 51
Width: 1060
VWidth: 0
Flags: W
HStem: -8 212<305.416 453.257> 1108 216<378.284 696>
VStem: 21 264<218.527 432.885>
LayerCount: 2
Fore
SplineSet
337 -8 m 0
 109 -8 21 145 21 323 c 0
 21 360 25 397 32 435 c 1
 118.667 434.667 205.333 434.333 292 434 c 1
 287 403 285 376 285 351 c 0
 285 253 320 204 373 204 c 0
 571 204 661 775 696 1106 c 1
 647 1106 535 1108 498 1108 c 1
 393 1105 405 1096 377 1090 c 1
 363.333 1160.67 349.667 1231.33 336 1302 c 1
 367 1309 375 1321 494 1324 c 1
 639 1324 832 1323 988 1323 c 1
 859 459 763 -8 337 -8 c 0
EndSplineSet
Validated: 1
EndChar

StartChar: zero
Encoding: 48 48 52
Width: 1060
VWidth: 0
Flags: W
HStem: -17 208<387.943 556.529> 1105 207<557.423 726.539>
LayerCount: 2
Fore
SplineSet
386 581 m 1
 505 710.667 624 840.333 743 970 c 1
 731 1070 724 1105 653 1105 c 0
 499 1105 427.974 814.352 394 631 c 0
 389.747 608.05 386 581 386 581 c 1
731 726 m 1
 609.667 594.667 488.333 463.333 367 332 c 1
 375 237 393 191 461 191 c 0
 618 191 678.956 441.651 723 677 c 0
 728.232 704.955 731 726 731 726 c 1
695 1312 m 0
 929 1312 1002 1140 1002 926 c 0
 1002 841 990.241 749.953 973 660 c 0
 910.869 335.836 770 -17 434 -17 c 0
 185 -17 107 141 107 353 c 0
 107 435 118.072 523.986 136 616 c 0
 201.262 950.949 338 1312 695 1312 c 0
EndSplineSet
Validated: 1
EndChar

StartChar: period
Encoding: 46 46 53
Width: 1060
VWidth: 26
Flags: W
HStem: 0 313<330 584>
VStem: 269 376
LayerCount: 2
Fore
SplineSet
330 313 m 1
 435 313 540 313 645 313 c 1
 624.667 208.667 604.333 104.333 584 0 c 1
 479 -0 374 0 269 0 c 1
 289.333 104.333 309.667 208.667 330 313 c 1
EndSplineSet
Validated: 1
EndChar

StartChar: comma
Encoding: 44 44 54
Width: 1060
VWidth: 26
Flags: W
VStem: 183 461
LayerCount: 2
Fore
SplineSet
317 309 m 1
 426 309.667 535 310.333 644 311 c 1
 624.667 211 605.333 111 586 11 c 1
 586 10 586 9 586 8 c 1
 548 -189 428 -358 246 -434 c 1
 225 -373.667 204 -313.333 183 -253 c 1
 285 -202 348 -132 375 6 c 1
 337.333 5.66667 299.667 5.33333 262 5 c 1
 280.333 106.333 298.667 207.667 317 309 c 1
EndSplineSet
Validated: 1
EndChar

StartChar: ae
Encoding: 230 230 65
Width: 1060
VWidth: 6
Flags: W
HStem: 0 208<630.549 769.447> 4 158<206.461 352.636> 447 207<700 842.878> 508 153<295.226 433.774> 808 210<300.707 470.438 730.827 844.282>
VStem: -1 236<162.269 427.817> 850 194<658.688 805.376>
LayerCount: 2
Fore
SplineSet
704 675 m 1x2e
 702.667 668 701.333 661 700 654 c 1
 738 654 800 654 845 660 c 1
 848 683 850 704 850 721 c 0
 850 782 830 808 784 808 c 0
 744 808 721 760 704 675 c 1x2e
244 322 m 0
 237.838 290.032 235 263 235 241 c 0
 235 188 251 162 278 162 c 0
 368 162 391 299 407 327 c 1
 416.333 376 425.667 425 435 474 c 1
 397 499 392 508 338 508 c 0x5e
 305 508 263.487 423.096 244 322 c 0
647 0 m 0xae
 489 0 466 75 449 97 c 1
 412 63 341 4 238 4 c 0
 175 4 112.91 18.8898 66 57 c 0
 16.9064 96.8842 -1 156 -1 222 c 0
 -1 250 2.21371 279.959 8 309 c 0
 41.2235 475.747 140 661 344 661 c 0x5e
 421 661 430 645 465 629 c 1
 472 663 477 696 477 723 c 0
 477 774 458 808 389 808 c 1
 386 808 383 808 380 808 c 1
 327 808 305 788 259 702 c 1
 198.333 729.333 137.667 756.667 77 784 c 1
 183 970 305 1018 423 1018 c 0
 479 1018 524 1015 576 968 c 1
 592 952 607 928 615 909 c 1
 637 935 712 1018 814 1018 c 1
 977 1018 1044 871 1044 695 c 0
 1044 654 1041 612 1034 570 c 1
 1026.33 531.333 1018.67 492.667 1011 454 c 1
 912 450 774 447 692 447 c 0
 660 447 l 1
 648 389.333 636 331.667 624 274 c 1
 632 232 638 208 677 208 c 0
 752 208 772 244 787 290 c 1
 845.667 266 904.333 242 963 218 c 1
 963 218 872 0 647 0 c 0xae
EndSplineSet
Validated: 1
EndChar

StartChar: exclam
Encoding: 33 33 68
Width: 1060
VWidth: 0
Flags: W
HStem: 0 270<327 625> 1356 20G<532.167 874>
VStem: 275 599
LayerCount: 2
Fore
SplineSet
874 1376 m 1
 809.667 1072 745.333 768 681 464 c 1
 586.667 463.333 492.333 462.667 398 462 c 1
 451.667 766.667 505.333 1071.33 559 1376 c 1
 664 1376 769 1376 874 1376 c 1
327 270 m 1
 443.667 270 560.333 270 677 270 c 1
 659.667 180 642.333 90 625 0 c 1
 508.333 -0 391.667 0 275 0 c 1
 292.333 90 309.667 180 327 270 c 1
EndSplineSet
Validated: 1
EndChar

StartChar: quotesingle
Encoding: 39 39 70
Width: 1060
VWidth: -25
Flags: W
VStem: 434 641
LayerCount: 2
Fore
SplineSet
760 1469 m 1
 865 1455.67 970 1442.33 1075 1429 c 1
 981 1076 720 844 532 742 c 1
 499.333 799.667 466.667 857.333 434 915 c 1
 561 1033 690 1222 760 1469 c 1
EndSplineSet
Validated: 1
EndChar

StartChar: Aring
Encoding: 197 197 76
Width: 1060
VWidth: -8
Flags: W
HStem: 0 21G<-69 196 675 954> 281 223<409.995 673> 1516 142<657.828 819.063>
VStem: 457 190<1395.81 1477.48> 674 285<0 281> 821 192<1405.86 1511.9>
LayerCount: 2
Fore
SplineSet
746 1516 m 0xf4
 694 1516 655.95 1484.35 648 1454 c 0
 647.202 1450.96 647 1448 647 1445 c 0
 647 1417 674 1391 721 1391 c 0
 773 1391 812.05 1423.65 820 1454 c 0
 820.798 1457.04 821 1460 821 1463 c 0
 821 1491 795 1516 746 1516 c 0xf4
674 504 m 1xf8
 674 511 l 0
 674 625 636 773 636 905 c 0
 636 937 638 968 644 998 c 1
 605 830 472 625 407 486 c 1
 470 499 590 499 674 504 c 1xf8
460 1454 m 0
 483.096 1569.98 627 1658 775 1658 c 0
 910 1658 1013 1585 1013 1484 c 0xf4
 1013 1474 1011.99 1464 1010 1454 c 0
 993.904 1373.02 926 1309 830 1279 c 1
 869.333 934 908.667 589 948 244 c 1
 953 194 959 142 959 91 c 0
 959 60 957 30 951 0 c 1
 859 -0 767 0 675 0 c 1
 682 37 685 73 685 107 c 0
 685 127 684 147 682 167 c 1
 679 205 676 243 673 281 c 1
 520 278 436 282 310 252 c 1
 294 222 278 192 262 162 c 1
 230 101 201 43 191 0 c 1
 104.333 -0 17.6667 0 -69 0 c 1
 -53 61 -14 143 28 223 c 1
 210.667 574.667 393.333 926.333 576 1278 c 1
 503 1305 457 1357 457 1424 c 0
 457 1434 458.008 1444 460 1454 c 0
EndSplineSet
Validated: 1
EndChar

StartChar: ccedilla
Encoding: 231 231 81
Width: 1060
VWidth: 12
Flags: W
HStem: -431 172<266.787 489.269> 807 211<495.384 765.81>
VStem: 77 264<251.426 618.558> 495 222<-252.644 -155.42>
LayerCount: 2
Fore
SplineSet
355 528 m 0
 345.195 478.962 341 437 341 402 c 0
 341 207 467 204 507 204 c 1
 511 204 515 204 519 204 c 1
 619 204 685 269 749 350 c 1
 815.667 305.333 882.333 260.667 949 216 c 1
 866 87 745 15 575 -3 c 1
 571 -24 565 -51 565 -53 c 1
 649 -57 717 -102 717 -190 c 0
 717 -202 715.852 -214.971 713 -229 c 0
 686.634 -358.707 560 -431 402 -431 c 0
 336 -431 248 -413 199 -377 c 1
 228.333 -328 257.667 -279 287 -230 c 1
 317 -248 360 -259 411 -259 c 0
 447 -259 483 -248 493 -210 c 1
 493.333 -209.333 493.667 -208.667 494 -208 c 1
 495 -205 495 -201 495 -198 c 0
 495 -173 475 -152 433 -152 c 0
 385 -152 352 -155 322 -165 c 1
 332.667 -109.667 343.333 -54.3333 354 1 c 1
 290 10 228 31 180 73 c 1
 107 140 77 230 77 342 c 0
 77 398 84.9972 460.001 98 527 c 0
 163.986 867.003 372 1018 687 1018 c 0
 782 1018 875.074 999.097 930 957 c 0
 982.07 917.092 1017 858 1029 806 c 1
 949 772 869 738 789 704 c 1
 786 742 768 807 628 807 c 0
 481 807 383.568 670.884 355 528 c 0
EndSplineSet
Validated: 1
EndChar

StartChar: AE
Encoding: 198 198 82
Width: 1060
VWidth: 0
Flags: W
HStem: -5 208<658 918.969> 422 209<376.4 452> 642 208<719 911> 1114 208<748 1102.87>
LayerCount: 2
Fore
SplineSet
939 32 m 1
 887 7.00001 820 -5 745 -5 c 1
 631 -5 517 -5 403 -5 c 1
 422 150 435 267 452 419 c 1
 434 421 420 422 406 422 c 0
 378 422 355 418 319 410 c 1
 265.667 273.333 212.333 136.667 159 0 c 1
 84 15 9.00001 30 -66 45 c 1
 104 431 276 894 454 1323 c 1
 502.333 1322 550.667 1321 599 1320 c 1
 642 1322 696 1322 756 1322 c 0
 881 1322 l 1
 967.667 1322 1054.33 1322 1141 1322 c 1
 1127.67 1253.33 1114.33 1184.67 1101 1116 c 1
 1095.33 1116 1089.67 1116 1084 1116 c 1
 1001 1116 1013 1114 890 1114 c 1
 842.667 1114 795.333 1114 748 1114 c 1
 738.333 1024.67 728.667 935.333 719 846 c 1
 770 847 760 850 845 850 c 1
 880.333 850 915.667 850 951 850 c 1
 937.667 780.667 924.333 711.333 911 642 c 1
 875.667 642 840.333 642 805 642 c 1
 723 642 740 639 695 638 c 1
 682.667 493 670.333 348 658 203 c 1
 710.333 203 762.667 203 815 203 c 1
 876 203 919 228 919 228 c 1
 925.667 162.667 932.333 97.3333 939 32 c 1
477 631 m 1
 490.333 753 503.667 875 517 997 c 1
 469.667 873 422.333 749 375 625 c 1
 405 628 426 631 477 631 c 1
EndSplineSet
Validated: 1
EndChar

StartChar: Ccedilla
Encoding: 199 199 83
Width: 1060
VWidth: 6
Flags: W
HStem: -442 172<298.787 521.223> 1128 204<592.525 818.265>
VStem: 84 265<271.823 726.474> 525 223<-263.644 -166.42>
LayerCount: 2
Fore
SplineSet
710 1128 m 0
 595 1128 435.051 992.18 365 628 c 0
 353.849 570.029 349 518 349 471 c 0
 349 295 419 198 503 198 c 1
 507.667 198 512.333 198 517 198 c 1
 641 198 692 262 765 392 c 1
 838.333 346.333 911.667 300.667 985 255 c 1
 901 128 762 38 612 8 c 1
 608 -7 598 -61 597 -64 c 1
 681 -68 748 -113 748 -201 c 0
 748 -213 746.852 -225.971 744 -240 c 0
 717.634 -369.707 592 -442 434 -442 c 0
 368 -442 280 -424 231 -388 c 1
 260.333 -339 289.667 -290 319 -241 c 1
 349 -259 392 -270 443 -270 c 0
 479 -270 515 -259 525 -221 c 1
 525 -220.333 525 -219.667 525 -219 c 1
 526 -216 526 -212 526 -209 c 0
 526 -184 506 -163 464 -163 c 0
 416 -163 383 -166 353 -176 c 1
 364.667 -115.333 376.333 -54.6667 388 6 c 1
 310 20 235 52 183 116 c 1
 117 202 84 308 84 439 c 0
 84 499 91.0484 563.991 105 636 c 0
 155.174 894.966 266.952 1054.04 334 1132 c 0
 426.934 1240.06 581 1332 756 1332 c 0
 896 1332 1057 1269 1114 1107 c 1
 1028.67 1065.33 943.333 1023.67 858 982 c 1
 832 1106 796 1128 710 1128 c 0
EndSplineSet
Validated: 1
EndChar

StartChar: quotedbl
Encoding: 34 34 92
Width: 1060
VWidth: -25
Flags: W
VStem: 403 310<1222.37 1459> 836 310<1220.37 1457>
LayerCount: 2
Fore
SplineSet
391 1359 m 4
 397.904 1394.02 401 1426 403 1459 c 5
 506.333 1466 609.667 1473 713 1480 c 1
 711 1439 708.165 1403.97 700 1361 c 0
 649.034 1092.81 570 911 456 779 c 1
 384.333 811.333 312.667 843.667 241 876 c 1
 295 939 349.423 1148.12 391 1359 c 4
825 1357 m 4
 831.904 1392.02 834 1424 836 1457 c 5
 939.333 1464 1042.67 1471 1146 1478 c 1
 1144 1437 1141.17 1401.97 1133 1359 c 0
 1082.03 1090.81 1004 909 890 777 c 1
 818.333 809.333 746.667 841.667 675 874 c 1
 729 937 783.423 1146.12 825 1357 c 4
EndSplineSet
Validated: 1
EndChar

StartChar: numbersign
Encoding: 35 35 93
Width: 1060
VWidth: 6
Flags: W
HStem: -19 21G<249.5 289 426.5 448.5> 360 198<32.4172 159 445 529 821 941> 778 197<123.79 294 577 658 945 1029> 1314 20G<426 458.5 1018 1031.5>
VStem: 444 229<1163.12 1331>
LayerCount: 2
Fore
SplineSet
515 782 m 1
 491.667 707.333 468.333 632.667 445 558 c 1
 495.667 557.667 546.333 557.333 597 557 c 1
 617.333 630.667 637.667 704.333 658 778 c 1
 610.333 779.333 562.667 780.667 515 782 c 1
289 -19 m 1
 210 -17.6667 131 -16.3333 52 -15 c 1
 81 98 108 191 159 358 c 1
 106 357 61 348 31 339 c 1
 27.3333 399.667 23.6667 460.333 20 521 c 1
 80 541 158 550 225 555 c 1
 256 635 270 699 294 778 c 1
 288 778.333 282 778.667 276 779 c 1
 210 775 160 770 122 757 c 1
 116 818.333 110 879.667 104 941 c 1
 174 966 258 970 343 975 c 1
 401 1159 408 1189 444 1334 c 1
 473 1334 586 1332 624 1332 c 0
 643 1332 659 1332 673 1331 c 1
 642 1210 620 1122 577 978 c 1
 622 976.667 667 975.333 712 974 c 1
 763 1137 786 1203 828 1322 c 1
 904 1322.33 980 1322.67 1056 1323 c 1
 1007 1202 995 1136 945 978 c 1
 985.667 978 1026.33 978 1067 978 c 1
 1054.33 912 1041.67 846 1029 780 c 1
 982.333 781.333 935.667 782.667 889 784 c 5
 866.333 708.333 843.667 632.667 821 557 c 1
 875 557.333 929 557.667 983 558 c 1
 969 492.667 955 427.333 941 362 c 1
 880 363 819 364 758 365 c 1
 698 168 674 98 641 -23 c 1
 564 -23.6667 487 -24.3333 410 -25 c 1
 443 87 475 185 529 361 c 1
 483.667 360.667 438.333 360.333 393 360 c 1
 349 210 289 -19 289 -19 c 1
EndSplineSet
Validated: 1
EndChar

StartChar: dollar
Encoding: 36 36 94
Width: 1060
VWidth: 0
Flags: W
HStem: 64 198<550 654.135> 1063 203<456.091 546>
VStem: 40 243<292.638 448> 169 259<867.623 1035.66> 726 254<336.81 548.5>
LayerCount: 2
Fore
SplineSet
300 703 m 0xe8
 219.322 740.676 169 802 169 904 c 0xd8
 169 927 171.907 952.018 177 979 c 0
 211.373 1161.12 395 1257 589 1266 c 1
 598.333 1327.67 607.667 1389.33 617 1451 c 1
 699 1446.33 781 1441.67 863 1437 c 1
 844.333 1379 825.667 1321 807 1263 c 1
 944 1248 1050 1175 1080 1053 c 1
 1000 1023 920 993 840 963 c 1
 840 971 l 0
 840 1025 803 1044 753 1052 c 1
 732.333 968.667 711.667 885.333 691 802 c 1
 747 782 778 770 824 748 c 1
 905 707 980 633 980 502 c 0
 980 478 977.235 451.954 972 424 c 0
 925.111 173.623 728 68 501 64 c 1
 488 3 475 -58 462 -119 c 1
 385 -116 308 -113 231 -110 c 1
 249.667 -49 268.333 12 287 73 c 1
 105 102 40 220 40 354 c 0
 40 385 44 416 50 448 c 1
 132.333 448.333 214.667 448.667 297 449 c 1
 292 434 288 420 286 408 c 0
 284 396 283 385 283 375 c 0
 283 325 307 292 345 283 c 1
 376 403.333 407 523.667 438 644 c 1
 400 655 344.17 682.373 300 703 c 0xe8
546 1063 m 1
 487 1063 442.73 1019.83 432 970 c 0
 429.192 956.961 428 946 428 935 c 0
 428 895 447 870 494 857 c 1
 511.333 925.667 528.667 994.333 546 1063 c 1
550 262 m 1
 641 275 700.453 319.915 721 427 c 0
 724.068 442.987 726 458 726 470 c 0
 726 525 695 547 631 578 c 1
 604 472.667 577 367.333 550 262 c 1
EndSplineSet
Validated: 1
EndChar

StartChar: oe
Encoding: 339 339 95
Width: 1060
VWidth: 6
Flags: W
HStem: 0 208<232.535 364.05 628.612 770.607> 447 207<700 842.878> 812 205<375.941 472.328 729.315 844.649>
VStem: 20 233<209.384 577.102> 851 193<656.376 797.671>
LayerCount: 2
Fore
SplineSet
963 218 m 5
 963 218 836 0 633 0 c 4
 541 0 472 40 430 95 c 1
 400 63 335 0 261 0 c 0
 205 0 137.119 5.08797 74 91 c 0
 32.0795 148.058 20 224 20 294 c 0
 20 360 30.7906 421.041 38 459 c 0
 46.7455 505.047 63 585 83 635 c 1
 128 758 241 1017 450 1017 c 0
 529 1017 561.5 989.5 596 954 c 0
 604.868 944.875 611 937 615 931 c 1
 645 968 699 1018 814 1018 c 4
 977 1018 1044 871 1044 695 c 0
 1044 654 1041 612 1034 570 c 5
 1026.33 531.333 1018.67 492.667 1011 454 c 5
 912 450 774 447 692 447 c 0
 660 447 l 5
 648 389.333 636 331.667 624 274 c 5
 632 232 638 208 677 208 c 4
 752 208 772 244 787 290 c 5
 845.667 266 904.333 242 963 218 c 5
704 675 m 5
 702.667 668 701.333 661 700 654 c 5
 738 654 800 654 845 660 c 5
 849 686 851 708 851 727 c 0
 851 783 831 808 773 808 c 4
 733 808 721 760 704 675 c 5
295 208 m 0
 347 208 390 279 401 338 c 1
 425 458 449 578 473 698 c 1
 474 705 477 720 477 737 c 0
 477 771 467 812 419 812 c 0
 391 812 313 687 269 474 c 0
 266 456 l 0
 259 418 253 369 253 325 c 0
 253 262 264 208 295 208 c 0
EndSplineSet
Validated: 1
EndChar

StartChar: bracketleft
Encoding: 91 91 96
Width: 1060
VWidth: 66
Flags: W
HStem: -259 207<496 761.912> 1265 208<753 1045>
LayerCount: 2
Fore
SplineSet
1057 1483 m 5
 1053 1414.33 1049 1345.67 1045 1277 c 5
 962 1269 887 1269 753 1265 c 5
 667.333 825 581.667 385 496 -55 c 5
 574 -52 658 -52 673 -52 c 5
 676.333 -52 679.667 -52 683 -52 c 5
 733 -52 785 -57 795 -60 c 5
 783.667 -129.333 772.333 -198.667 761 -268 c 5
 737 -265 698 -259 627 -259 c 4
 568 -259 287 -261 194 -261 c 5
 229 -83 247.483 -0.091205 282 180 c 4
 299.241 269.953 321.626 391.073 356 570 c 4
 389.633 745.07 422 921 447 1052 c 5
 474.333 1192.33 501.667 1332.67 529 1473 c 5
 622 1473 901 1477 952 1477 c 5
 1025 1480 1034 1481 1057 1483 c 5
EndSplineSet
Validated: 1
EndChar

StartChar: bracketright
Encoding: 93 93 97
Width: 1060
VWidth: 66
Flags: W
HStem: -259 207<74 375> 1277 206<407.268 633>
LayerCount: 2
Fore
SplineSet
412 1483 m 1
 435 1481 444 1480 515 1477 c 1
 566 1477 844 1473 937 1473 c 1
 909.667 1332.67 882.333 1192.33 855 1052 c 1
 830 921 794.575 744.884 760 570 c 0
 724.589 390.886 699.241 269.953 682 180 c 0
 647.483 -0.0911857 633 -83 598 -261 c 1
 505 -261 225 -259 166 -259 c 0
 95 -259 54 -265 28 -268 c 1
 43.3333 -198.667 58.6667 -129.333 74 -60 c 1
 86 -57 140 -52 190 -52 c 1
 193.333 -52 196.667 -52 200 -52 c 1
 215 -52 299 -52 375 -55 c 1
 461 385 547 825 633 1265 c 1
 501 1269 423 1269 344 1277 c 1
 366.667 1345.67 389.333 1414.33 412 1483 c 1
EndSplineSet
Validated: 1
EndChar

StartChar: parenleft
Encoding: 40 40 98
Width: 1060
VWidth: 66
Flags: W
HStem: -262 250<656.162 766> 1250 234<861.229 1061>
VStem: 221 274<159.618 673.049>
LayerCount: 2
Fore
SplineSet
1061 1250 m 5
 1054 1250 l 4
 791 1250 605.5 1067.28 519 616 c 4
 502.718 531.055 495 455 495 389 c 0
 495 109 631 -11 816 -12 c 5
 799.333 -95.3333 782.667 -178.667 766 -262 c 5
 465 -259 221 -77 221 344 c 0
 221 424 229.988 514.002 249 612 c 4
 367.926 1225.01 672 1471 1106 1484 c 5
 1091 1406 1076 1328 1061 1250 c 5
EndSplineSet
Validated: 1
EndChar

StartChar: parenright
Encoding: 41 41 99
Width: 1060
VWidth: 66
Flags: W
HStem: -262 250<69 240.711> 1250 234<359 497.103>
VStem: 639 272<555.536 1101.61>
LayerCount: 2
Fore
SplineSet
314 1250 m 1
 329 1328 344 1406 359 1484 c 1
 707 1473 911 1309 911 918 c 0
 911 828 900.08 725.984 878 612 c 0
 759.431 -0.083197 382 -259 21 -262 c 1
 37 -178.667 53 -95.3333 69 -12 c 1
 298 -11 523.171 173.164 610 616 c 0
 629.811 717.037 639 804 639 879 c 0
 639 1139 524 1250 320 1250 c 0
 314 1250 l 1
EndSplineSet
Validated: 1
EndChar

StartChar: hyphen
Encoding: 45 45 100
Width: 1060
VWidth: 6
Flags: W
HStem: 413 244<134 978>
LayerCount: 2
Fore
SplineSet
134 654 m 5
 179 656 230 657 280 657 c 0
 380 657 480 654 548 654 c 4
 667 654 l 4
 749 654 901 653 1008 652 c 5
 1014 652 1020 652 1026 652 c 5
 1010 570.333 994 488.667 978 407 c 5
 972 407 966 407 960 407 c 5
 826 410 624 410 499 410 c 4
 456 410 365 413 265 413 c 0
 208 413 149 412 93 409 c 5
 100.667 449.667 108.333 490.333 116 531 c 5
 122 572 128 613 134 654 c 5
EndSplineSet
Validated: 1
EndChar

StartChar: plus
Encoding: 43 43 101
Width: 1060
VWidth: 6
Flags: W
HStem: 0 21G<325 589.667> 391 235<105 401 693 971> 998 20G<730 758>
LayerCount: 2
Fore
SplineSet
105 616 m 1
 154 625 185 626 250 626 c 0
 289 626 l 1
 342.333 626 395.667 626 449 626 c 1
 474.333 756.333 499.667 886.667 525 1017 c 1
 607 1017.33 689 1017.67 771 1018 c 1
 745 887.667 719 757.333 693 627 c 1
 819 627 872 625 934 625 c 0
 1016 625 l 1
 1001 547 986 469 971 391 c 1
 966.333 391 961.667 391 957 391 c 1
 951 391 862 391 653 394 c 1
 627.667 262.667 602.333 131.333 577 0 c 1
 493 -0 409 0 325 0 c 1
 350.333 130.333 375.667 260.667 401 391 c 1
 312 391 l 0
 179 391 120 390 61 382 c 1
 75.6667 460 90.3333 538 105 616 c 1
EndSplineSet
Validated: 1
EndChar

StartChar: less
Encoding: 60 60 102
Width: 1060
VWidth: 4
Flags: W
LayerCount: 2
Fore
SplineSet
865 141 m 1
 804.333 77.6667 743.667 14.3333 683 -49 c 1
 666 -13 624 33 583 71 c 1
 503 150 141 377 118 395 c 1
 132 470.333 146 545.667 160 621 c 1
 342 750 697.642 976.695 846 1054 c 0
 878.919 1071.15 903 1085 940 1096 c 1
 970 1027 1000 958 1030 889 c 1
 852 804 576 622 393 499 c 1
 516 398 809 265 865 141 c 1
EndSplineSet
Validated: 1
EndChar

StartChar: greater
Encoding: 62 62 103
Width: 1060
VWidth: 4
Flags: W
LayerCount: 2
Fore
SplineSet
64 166 m 1
 168 290 514 415 677 516 c 1
 542 639 356 807 212 892 c 1
 259.667 952.333 307.333 1012.67 355 1073 c 5
 388 1062 405.195 1048.29 432 1031 c 4
 550.835 954.326 818 727 950 598 c 5
 943.667 531.333 937.333 464.667 931 398 c 1
 902 380 450 153 340 74 c 1
 285 36 225 -10 194 -46 c 1
 150.667 24.6667 107.333 95.3333 64 166 c 1
EndSplineSet
Validated: 1
EndChar

StartChar: slash
Encoding: 47 47 104
Width: 1060
VWidth: 60
Flags: W
LayerCount: 2
Fore
SplineSet
-13 -38 m 5
 169 239 718 1124 922 1480 c 5
 986 1444 1050 1408 1114 1372 c 1
 908 1020 355 133 180 -149 c 1
 115.667 -112 51.3333 -75 -13 -38 c 5
EndSplineSet
Validated: 1
EndChar

StartChar: one
Encoding: 49 49 105
Width: 1060
VWidth: 0
Flags: W
HStem: -9 21G<432 731.667> 1302 20G<701.5 745.833>
LayerCount: 2
Fore
SplineSet
707 1322 m 1
 784.667 1307 862.333 1292 940 1277 c 1
 856.667 848.333 773.333 419.667 690 -9 c 1
 604 -9 518 -9 432 -9 c 1
 493.667 311.667 555.333 632.333 617 953 c 1
 532 868 411 764 267 691 c 5
 233 762.333 199 833.667 165 905 c 1
 502 1059 696 1307 707 1322 c 1
EndSplineSet
Validated: 1
EndChar

StartChar: two
Encoding: 50 50 106
Width: 1060
VWidth: 0
Flags: W
HStem: 0 215<383 857> 1095 211<522.62 756.671>
VStem: 195 257<862.462 1028.39> 779 252<838.872 1067.71>
LayerCount: 2
Fore
SplineSet
456 864 m 1
 369.667 850 283.333 836 197 822 c 1
 196 835 195 851 195 868 c 0
 195 890 195.312 914.153 199 934 c 0
 200.682 943.048 201.217 950.958 203 959 c 0
 245.059 1148.74 416 1306 672 1306 c 0
 903 1306 1031 1225 1031 1033 c 0
 1031 1000 1027.75 964.048 1020 925 c 0
 980.745 727.257 843 623 746 538 c 1
 680 483 394 271 383 215 c 1
 555 215 727 215 899 215 c 1
 885 143.333 871 71.6667 857 0 c 1
 570.333 -0 283.667 0 -3 0 c 1
 3 30 6.83309 62.0321 13 95 c 0
 17.868 121.024 24.703 148.113 35 176 c 0
 70.9548 273.373 170.79 374.268 299 475 c 0
 445.759 590.306 738.564 755.302 773 926 c 0
 776.839 945.031 779 963 779 979 c 0
 779 1058 732 1095 646 1095 c 0
 572 1095 477.161 1050.75 457 951 c 0
 454.164 936.969 452 922 452 905 c 0
 452 892 453 878 456 864 c 1
EndSplineSet
Validated: 1
EndChar

StartChar: three
Encoding: 51 51 107
Width: 1060
VWidth: 0
Flags: W
HStem: -22 213<296.577 564.982> 621 200<425 586.769> 1041 21G<327 362.5> 1122 198<401.088 706.752>
VStem: 671 260<296.678 544.718> 726 260<924.33 1102.34>
LayerCount: 2
Fore
SplineSet
6 333 m 1xf8
 89.6667 333 173.333 333 257 333 c 1
 257 213 355 191 435 191 c 0
 555 191 647.44 284.92 665 379 c 0
 669.103 400.98 671 420 671 437 c 0xf8
 671 506 639.925 537.899 602 566 c 0
 550.899 603.864 466 621 386 621 c 1
 399 687.667 412 754.333 425 821 c 1
 430.333 821 435.667 821 441 821 c 1
 570 821 702.22 879.54 724 1009 c 0
 725.172 1015.97 726 1024 726 1031 c 0
 726 1085 681 1122 598 1122 c 0
 490 1122 375 1077 350 1041 c 1
 304 1098 258 1155 212 1212 c 1
 220 1227 349 1320 629 1320 c 1
 632.667 1320 636.333 1320 640 1320 c 1
 772 1320 986 1259 986 1076 c 0xf4
 986 1060 984.248 1043.95 981 1026 c 0
 957.784 897.703 828 757 725 738 c 1
 866 689 931 593 931 465 c 0
 931 437 927.942 408.011 922 378 c 0
 872.519 128.096 735 -22 387 -22 c 0
 105 -22 6 123 6 333 c 1xf8
EndSplineSet
Validated: 1
EndChar

StartChar: four
Encoding: 52 52 108
Width: 1060
VWidth: 0
Flags: W
HStem: 0 21G<515 784.667> 393 210<376 591 889 975> 1288 20G<984.5 1003.17>
LayerCount: 2
Fore
SplineSet
632 603 m 1
 653 711.333 674 819.667 695 928 c 1
 597 799 475 688 376 601 c 1
 461.333 601.667 546.667 602.333 632 603 c 1
81 558 m 1
 124 604 646 1040 777 1306 c 1
 860 1306.67 943 1307.33 1026 1308 c 1
 980.333 1073 934.667 838 889 603 c 1
 931.333 603 973.667 603 1016 603 c 1
 1002.33 533 988.667 463 975 393 c 1
 932.667 393 890.333 393 848 393 c 1
 822.667 262 797.333 131 772 0 c 1
 686.333 -0 600.667 0 515 0 c 1
 540.333 130 565.667 260 591 390 c 1
 440 389.333 289 388.667 138 388 c 1
 119 444.667 100 501.333 81 558 c 1
EndSplineSet
Validated: 1
EndChar

StartChar: five
Encoding: 53 53 109
Width: 1060
VWidth: 0
Flags: W
HStem: -2 212<335.823 563.186> 709 191<470.77 635.075> 1089 199<525 964>
VStem: 681 269<350.269 660.386>
LayerCount: 2
Fore
SplineSet
534 709 m 0
 414 709 341 618 323 598 c 1
 265 624.667 207 651.333 149 678 c 1
 208.333 881.333 267.667 1084.67 327 1288 c 1
 552.333 1287.33 777.667 1286.67 1003 1286 c 1
 990 1220.33 977 1154.67 964 1089 c 1
 817.667 1089 671.333 1089 525 1089 c 1
 506.667 1022.67 488.333 956.333 470 890 c 1
 470 890 512 900 590 900 c 0
 647 900 723 896 785 863 c 1
 867 815 950 743 950 576 c 0
 950 539 945.173 495.966 936 448 c 0
 875.147 129.785 637 3.65293e-07 397 -2 c 1
 396.333 -2 395.667 -2 395 -2 c 1
 207 -2 89 74 40 234 c 1
 123.333 270.667 206.667 307.333 290 344 c 1
 303 266 354 210 436 210 c 0
 526 210 640.074 273.986 674 450 c 0
 679.011 475.998 681 501 681 524 c 0
 681 640 619 709 534 709 c 0
EndSplineSet
Validated: 1
EndChar

StartChar: six
Encoding: 54 54 110
Width: 1060
VWidth: 0
Flags: W
HStem: -3 203<365.618 576.733> 560 201<452.833 635.19> 1072 226<780.866 974>
VStem: 71 260<230.477 490.642> 666 258<289.757 530.34>
LayerCount: 2
Fore
SplineSet
985 1072 m 1
 707 1042 466 940 396 674 c 1
 396 674 479 761 599 761 c 0
 782 761 924 635 924 447 c 0
 924 422 921.11 394.979 916 368 c 0
 868.039 114.808 677 -3 411 -3 c 4
 224 -3 71 152 71 374 c 0
 71 406 74.2044 439.96 81 474 c 0
 171.723 928.439 422 1208 974 1298 c 1
 977.667 1222.67 981.333 1147.33 985 1072 c 1
341 457 m 1
 335 426 331 395 331 365 c 0
 331 274 365 200 457 200 c 0
 542 200 639.835 266.259 661 367 c 0
 664.79 385.042 666 402 666 418 c 0
 666 506 616 560 560 560 c 0
 455 560 400 522 341 457 c 1
EndSplineSet
Validated: 1
EndChar

StartChar: seven
Encoding: 55 55 111
Width: 1060
VWidth: 0
Flags: W
HStem: 0 21G<219 524> 1070 216<425.598 878>
VStem: 219 261<0 159.707>
LayerCount: 2
Fore
SplineSet
327 1292 m 1
 411 1292 518 1286 595 1286 c 0
 746 1286 912 1293 1055 1293 c 1
 1068.67 1293 1082.33 1293 1096 1293 c 1
 1119 1238.67 1142 1184.33 1165 1130 c 1
 776 662 568 454 480 0 c 1
 393 -0 306 0 219 0 c 1
 298 407 511 674 878 1073 c 1
 790 1070 687 1070 596 1070 c 0
 533 1070 508 1070 446 1073 c 1
 444 1072 416 1006 405 969 c 1
 324.667 990.333 244.333 1011.67 164 1033 c 1
 194 1092 282 1226 327 1292 c 1
EndSplineSet
Validated: 1
EndChar

StartChar: eight
Encoding: 56 56 112
Width: 1060
VWidth: 0
Flags: W
HStem: -9 212<353.004 603.071> 1091 202<505.077 761.757>
VStem: 44 264<248.136 475.418> 224 253<875.098 1061.85> 701 261<299.876 548.437> 768 253<915.378 1080.61>
LayerCount: 2
Fore
SplineSet
469 203 m 0xe8
 538 203 671.924 249.832 698 388 c 4
 700.073 398.986 701 410 701 422 c 0
 701 496 657 580 553 632 c 1
 409 572 328.649 468.861 312 388 c 0
 309.113 373.978 308 361 308 349 c 0
 308 241 407 203 469 203 c 0xe8
593 840 m 1
 705 863 755.904 944.019 765 990 c 0
 766.979 1000 768 1009 768 1017 c 0
 768 1087 701 1091 642 1091 c 0
 576 1091 495.946 1085.18 479 990 c 0
 477.934 984.013 477 977 477 969 c 0xd4
 477 923 504 860 593 840 c 1
681 1293 m 0
 909 1293 1021 1201 1021 1053 c 0xd4
 1021 1032 1018.84 1009.03 1014 985 c 0
 993.301 882.146 886 762 792 736 c 1
 887 692 962 596 962 458 c 0
 962 433 959.209 405.959 954 378 c 0
 909.782 140.682 687 -9 428 -9 c 0
 198 -9 44 109 44 301 c 0xe8
 44 326 46.9073 351.018 52 378 c 0
 86.3733 560.116 222 684 354 736 c 1
 281 759 224 853 224 945 c 0
 224 959 225.213 971.958 228 985 c 0
 268.031 1172.3 420 1293 681 1293 c 0
EndSplineSet
Validated: 1
EndChar

StartChar: nine
Encoding: 57 57 113
Width: 1060
VWidth: 0
Flags: W
HStem: -2 207<253.211 544.128> 583 201<465.259 725.33> 1106 196<502.948 750.119>
VStem: 172 259<818.908 1035.89> 781 243<854.781 1074.66>
LayerCount: 2
Fore
SplineSet
627 1106 m 1
 517 1106 449.278 1025.71 435 958 c 0
 432.248 944.953 431 932 431 920 c 0
 431 835 493 784 574 784 c 0
 670 784 730 826 777 870 c 1
 779 895 781 919 781 941 c 0
 781 1047 748 1106 627 1106 c 1
179 955 m 0
 219.278 1154.73 385 1302 657 1302 c 0
 929 1302 1024 1139 1024 903 c 0
 1024 824 1013.02 736.997 995 644 c 0
 925.062 282.988 801 -2 409 -2 c 0
 166 -2 85 66 -11 171 c 1
 57 222 125 273 193 324 c 1
 241 237 294 205 408 205 c 4
 567 205 686.604 352.887 730 581 c 0
 733.042 596.992 738 631 738 631 c 1
 707 611 647 583 518 583 c 0
 327 583 172 700 172 885 c 0
 172 907 174.154 930.97 179 955 c 0
EndSplineSet
Validated: 1
EndChar

StartChar: equal
Encoding: 61 61 114
Width: 1060
VWidth: 6
Flags: W
HStem: 170 224<56 858> 627 222<146.587 946>
LayerCount: 2
Fore
SplineSet
56 394 m 1
 198 402 309 402 423 402 c 0
 601 402 734 394 902 394 c 1
 887.333 319.333 872.667 244.667 858 170 c 1
 684 170 541 174 359 174 c 0
 309 174 259 176 207 176 c 0
 147 176 83 174 14 170 c 1
 28 244.667 42 319.333 56 394 c 1
140 861 m 1
 281 852 392 849 486 849 c 0
 678 849 789 859 987 859 c 1
 973.333 785.667 959.667 712.333 946 639 c 1
 753 639 640 627 443 627 c 0
 347 627 240 634 97 643 c 1
 103 673 111.808 723.038 121 770 c 0
 127.856 805.028 135 839 140 861 c 1
EndSplineSet
Validated: 1
EndChar

StartChar: backslash
Encoding: 92 92 115
Width: 1060
VWidth: 60
Flags: W
VStem: 256 582
LayerCount: 2
Fore
SplineSet
838 -64 m 1
 758.667 -87.6667 679.333 -111.333 600 -135 c 1
 535 147 326 1034 256 1386 c 1
 335.333 1408.67 414.667 1431.33 494 1454 c 1
 560 1098 764 213 838 -64 c 1
EndSplineSet
Validated: 1
EndChar

StartChar: asciicircum
Encoding: 94 94 116
Width: 1060
VWidth: -10
Flags: W
HStem: 424 677
LayerCount: 2
Fore
SplineSet
659 1101 m 1
 794 930 929 759 1064 588 c 1
 1002.67 533.333 941.333 478.667 880 424 c 1
 787.333 540.667 694.667 657.333 602 774 c 1
 465.667 658.667 329.333 543.333 193 428 c 1
 153.667 479.333 114.333 530.667 75 582 c 1
 269.667 755 464.333 928 659 1101 c 1
EndSplineSet
Validated: 1
EndChar

StartChar: underscore
Encoding: 95 95 117
Width: 1060
VWidth: 41
Flags: W
HStem: -334 213<-53 852>
LayerCount: 2
Fore
SplineSet
-53 -121 m 1
 262.333 -121 577.667 -121 893 -121 c 1
 879.333 -192 865.667 -263 852 -334 c 1
 535.333 -334 218.667 -334 -98 -334 c 1
 -83 -263 -68 -192 -53 -121 c 1
EndSplineSet
Validated: 1
EndChar

StartChar: grave
Encoding: 96 96 118
Width: 1060
VWidth: -25
Flags: W
VStem: 542 306<891.427 1452.91> 595 302<1295.08 1468>
LayerCount: 2
Fore
SplineSet
870 1367 m 0x40
 853.904 1286.02 848 1205 848 1132 c 0
 848 1015 864 919 882 880 c 1
 797.667 847.667 713.333 815.333 629 783 c 1
 585 879 542 1004 542 1168 c 0x80
 542 1229 548.202 1295.96 562 1369 c 0
 570.119 1411.98 581 1447 595 1488 c 1
 695.667 1481 796.333 1474 897 1467 c 1
 887 1434 876.958 1402.01 870 1367 c 0x40
EndSplineSet
Validated: 1
EndChar

StartChar: question
Encoding: 63 63 119
Width: 1060
VWidth: 0
Flags: W
HStem: 0 270<291 591> 1153 192<483.183 767.025>
VStem: 358 272<431 565.855> 791 255<918.459 1124.96>
LayerCount: 2
Fore
SplineSet
291 270 m 5
 408.333 270 525.667 270 643 270 c 5
 625.667 180 608.333 90 591 0 c 5
 473.667 -0 356.333 0 239 0 c 5
 256.333 90 273.667 180 291 270 c 5
219 1215 m 5
 393 1342 575 1345 674 1345 c 4
 687 1345 l 4
 912 1345 1046 1246 1046 1070 c 4
 1046 1045 1043.21 1018.96 1038 991 c 4
 1006.28 820.771 889.8 755.285 789 685 c 4
 721.868 638.191 656 567 639 479 c 5
 636 462.667 633 446.333 630 430 c 5
 539.333 430.333 448.667 430.667 358 431 c 5
 360.667 445.667 363.333 460.333 366 475 c 5
 394 621 515.143 733.812 596 795 c 4
 692.169 867.775 769.808 907.038 787 994 c 4
 789.967 1009.01 791 1024 791 1037 c 4
 791 1106 751 1153 660 1153 c 4
 610 1153 494 1152 356 1013 c 5
 310.333 1080.33 264.667 1147.67 219 1215 c 5
EndSplineSet
Validated: 1
EndChar

StartChar: asciitilde
Encoding: 126 126 120
Width: 1060
VWidth: -12
Flags: W
HStem: 375 210<686.037 837.441> 596 211<279.57 437.784>
LayerCount: 2
Fore
SplineSet
414 807 m 0
 644 807 659 585 749 585 c 0
 835 585 874 675 893 743 c 1
 959 725 1025 707 1091 689 c 1
 1071 584 975 375 698 375 c 1
 474 375 478 596 366 596 c 0
 310 596 246 531 205 441 c 1
 151.333 477.667 97.6667 514.333 44 551 c 1
 103 681 212 807 414 807 c 0
EndSplineSet
Validated: 1
EndChar

StartChar: Oslash
Encoding: 216 216 127
Width: 1060
VWidth: 0
Flags: W
HStem: -16 203<356.479 578.472> 1147 203<553.062 758.395>
LayerCount: 2
Fore
SplineSet
1029 1128 m 1
 1048 1072 1058 1004 1058 918 c 0
 1058 842 1050 752 1030 647 c 1
 1029.33 643.333 1028.67 639.667 1028 636 c 1
 996 469 933.404 311.715 867 217 c 0
 763.632 69.561 597 -16 432 -16 c 0
 357 -16 275 -1 208 35 c 1
 170.333 -15 132.667 -65 95 -115 c 1
 48.6667 -80.3333 2.33334 -45.6667 -44 -11 c 1
 1.09597e-06 47 44 106 88 164 c 1
 62 222 50 289 50 365 c 0
 50 431 59.1534 502.97 74 579 c 0
 142.709 930.86 233.119 1089.89 322 1187 c 0
 406.112 1278.9 552 1347 709 1350 c 1
 774 1350 859 1338 928 1282 c 1
 964 1331 1002 1379 1038 1428 c 1
 1084.67 1394.33 1131.33 1360.67 1178 1327 c 1
 1128.33 1260.67 1078.67 1194.33 1029 1128 c 1
355 232 m 1
 382 196 415 187 471 187 c 0
 550 187 611 249 657 326 c 1
 695 385 747 541 767 640 c 1
 768.333 645.667 769.667 651.333 771 657 c 1
 780 705 789 761 795 817 c 1
 648.333 622 501.667 427 355 232 c 1
774 1076 m 1
 750 1129 714 1147 669 1147 c 0
 604 1147 560.966 1122.03 507 1051 c 0
 443.96 968.031 384.769 834.846 337 592 c 0
 330.111 556.979 323 514 319 471 c 1
 472 673 623 875 774 1076 c 1
EndSplineSet
Validated: 1
EndChar

StartChar: multiply
Encoding: 215 215 128
Width: 1060
VWidth: 6
Flags: W
LayerCount: 2
Fore
SplineSet
317 999 m 1
 390 940 491 780 559 693 c 1
 681 792 803 891 925 990 c 1
 971 931.667 1017 873.333 1063 815 c 1
 940.667 716.333 818.333 617.667 696 519 c 1
 812 369 840 323 942 191 c 1
 875.333 136.333 808.667 81.6667 742 27 c 1
 633 177 687 104 500 353 c 1
 379.667 248 259.333 143 139 38 c 1
 92.6667 98.3333 46.3333 158.667 0 219 c 1
 119 323 238 427 357 531 c 1
 246 674 164 793 117 835 c 1
 183.667 889.667 250.333 944.333 317 999 c 1
EndSplineSet
Validated: 1
EndChar

StartChar: oslash
Encoding: 248 248 140
Width: 1060
VWidth: 6
Flags: HW
HStem: -6 203<369.79 590.092> 830 202<480.462 685.741>
LayerCount: 2
Fore
SplineSet
598 247 m 1
 655 299 690 403 713 530 c 0
 714 536 715 540 716 546 c 0
 719 560 721 573 723 586 c 1
 601 477 480 368 358 259 c 1
 380 220 418 197 471 197 c 0
 526 198 555 211 598 247 c 1
980 1067 m 1
 1021 1020 1062 974 1103 927 c 1
 1060 889 1017 850 974 812 c 1
 983 777 987 736 987 693 c 0
 987 643 981 591 972 543 c 0
 918 258 769 -6 433 -6 c 1
 432 -6 432 -6 431 -6 c 1
 306 -6 218 25 160 80 c 1
 130 53 101 27 71 0 c 1
 31 44 -9 89 -49 133 c 1
 -7 171 35 210 77 248 c 1
 73 271 72 295 72 321 c 0
 72 365 77 413 87 464 c 0
 159 835 339 1032 631 1032 c 0
 740 1032 817 1011 873 970 c 1
 909 1002 944 1035 980 1067 c 1
688 802 m 1
 668 820 642 830 606 830 c 0
 457 830 384 693 344 490 c 1
 459 594 573 698 688 802 c 1
EndSplineSet
Validated: 1
EndChar

StartChar: plusminus
Encoding: 177 177 145
Width: 1060
VWidth: -6
Flags: W
HStem: 164 245<61 393 644 917> 629 235<139 435 727 1005>
LayerCount: 2
Fore
SplineSet
139 854 m 1
 189 863 219 864 284 864 c 0
 323 864 l 1
 376.333 864 429.667 864 483 864 c 1
 506 983 529 1102 552 1221 c 1
 634.333 1221.33 716.667 1221.67 799 1222 c 1
 775 1103 751 984 727 865 c 1
 853 865 907 863 969 863 c 0
 1051 863 l 1
 1035.67 785 1020.33 707 1005 629 c 1
 1000.33 629 995.667 629 991 629 c 1
 985 629 896 629 687 632 c 1
 673 558 658 485 644 411 c 1
 737 411 866 410 947 409 c 1
 953 409 959 409 965 409 c 1
 949 327.333 933 245.667 917 164 c 1
 911 164 905 164 899 164 c 1
 765 167 524 167 399 167 c 0
 332 167 174 166 20 158 c 1
 27.6667 198.667 35.3333 239.333 43 280 c 1
 49 321 55 362 61 403 c 1
 175 409 297 411 393 411 c 1
 407 483.667 421 556.333 435 629 c 1
 346 629 l 0
 213 629 155 628 96 620 c 1
 110.333 698 124.667 776 139 854 c 1
EndSplineSet
Validated: 1
EndChar

StartChar: divide
Encoding: 247 247 146
Width: 1060
VWidth: 6
Flags: W
HStem: 2 282<336 596> 413 244<118 962> 758 280<483 743>
LayerCount: 2
Fore
SplineSet
483 1038 m 1
 588 1038 693 1038 798 1038 c 1
 779.667 944.667 761.333 851.333 743 758 c 1
 638 758 533 758 428 758 c 1
 446.333 851.333 464.667 944.667 483 1038 c 1
336 284 m 1
 441 284 546 284 651 284 c 1
 632.667 190 614.333 96 596 2 c 1
 491 2 386 2 281 2 c 1
 299.333 96 317.667 190 336 284 c 1
118 654 m 1
 163 656 214 657 264 657 c 0
 364 657 464 654 532 654 c 0
 651 654 l 0
 733 654 885 653 992 652 c 1
 998 652 1004 652 1010 652 c 1
 994 570.333 978 488.667 962 407 c 1
 956 407 950 407 944 407 c 1
 810 410 608 410 483 410 c 0
 440 410 349 413 249 413 c 0
 192 413 133 412 77 409 c 1
 84.6667 449.667 92.3333 490.333 100 531 c 1
 106 572 112 613 118 654 c 1
EndSplineSet
Validated: 1
EndChar

StartChar: OE
Encoding: 338 338 149
Width: 1060
VWidth: 0
Flags: HW
HStem: -1 207<306.637 399.407 651 910.763> 644 205<776 945> 1127 203<496.996 581 830 1106>
VStem: 24 260<222.059 677.409>
LayerCount: 2
Fore
SplineSet
400 199 m 1
 460 508 521 818 581 1127 c 1
 472 1127 378 951 305 578 c 0
 291 506 284 440 284 385 c 0
 284 268 316 197 381 197 c 0
 397 197 387 198 400 199 c 1
776 206 m 1
 835 208 865 216 913 232 c 1
 922 165 931 99 940 32 c 1
 828 3 703 -1 592 -1 c 0
 545 -1 495 0 440 0 c 1
 422 -7 326 -8 311 -8 c 0
 93 -4 24 150 24 347 c 0
 24 425 35 510 52 597 c 0
 137 1033 293 1330 628 1330 c 0
 654 1330 681 1328 706 1323 c 1
 766 1326 829 1326 892 1326 c 0
 977 1326 1063 1325 1145 1325 c 1
 1132 1259 1119 1193 1106 1127 c 1
 1014 1127 1022 1128 951 1128 c 0
 916 1128 877 1128 830 1127 c 1
 812 1034 794 942 776 849 c 1
 846 849 915 849 985 849 c 1
 972 781 958 712 945 644 c 1
 875 644 806 644 736 644 c 1
 697 442 666 286 651 207 c 1
 693 207 734 206 776 206 c 1
EndSplineSet
Validated: 1
EndChar

StartChar: yen
Encoding: 165 165 150
Width: 1060
VWidth: 0
Flags: W
HStem: -6 21G<292 546.333> 323 218<115 359 655 919> 638 218<164.271 316 868 980> 1343 20G<382 435.5 928.5 989.667>
LayerCount: 2
Fore
SplineSet
292 -6 m 1
 301.333 42 310.667 90 320 138 c 1
 328 177 343 247 359 323 c 1
 267 323 l 0
 207 323 144 322 74 318 c 1
 87.6667 392.333 101.333 466.667 115 541 c 1
 225 547 318 549 407 549 c 1
 412 573 416 595 419 613 c 1
 418 616 415 620 413 624 c 1
 333 626 244 631 131 638 c 1
 137 668 145.808 718.038 155 765 c 0
 161.856 800.028 169 834 174 856 c 1
 225 853 272 851 316 849 c 1
 256 994 195 1158 177 1222 c 1
 259 1269 341 1316 423 1363 c 1
 448 1284 542 992 602 852 c 1
 728 994 901 1287 956 1376 c 1
 1023.33 1330.67 1090.67 1285.33 1158 1240 c 1
 1119 1184 988 1008 868 853 c 1
 914 854 964 854 1021 854 c 1
 1007.33 781 993.667 708 980 635 c 1
 867 635 782 631 690 628 c 1
 681 618 673 609 667 602 c 1
 664 584 658 565 655 547 c 1
 758 545 852 541 962 541 c 1
 947.667 466.333 933.333 391.667 919 317 c 1
 809 317 710 320 607 321 c 1
 588 233 574 157 568 128 c 1
 559.333 83.3333 550.667 38.6667 542 -6 c 1
 458.667 -6 375.333 -6 292 -6 c 1
EndSplineSet
Validated: 1
EndChar

StartChar: Eth
Encoding: 208 208 152
Width: 1060
VWidth: 0
Flags: W
HStem: -10 205<287 551.549> 732 210<114 143 436 651> 1127 204<464.259 671.305>
VStem: 762 264<478.979 1030.94>
LayerCount: 2
Fore
SplineSet
547 1127 m 1
 537 1127 527 1127 517 1127 c 1
 501 1127 489 1127 471 1124 c 1
 467 1098 462.023 1068 456 1037 c 0
 448.031 995.994 442 973 436 942 c 1
 520.667 942 605.333 942 690 942 c 1
 677 872.333 664 802.667 651 733 c 1
 565.667 732.667 480.333 732.333 395 732 c 1
 347 488 304 280 287 198 c 1
 374 195 326 195 386 195 c 0
 389 195 l 0
 429 195 572.616 197.239 669 353 c 0
 696.888 398.069 722.052 488.99 733 544 c 0
 753.096 644.981 762 734 762 810 c 0
 762 1018 689 1127 547 1127 c 1
184 942 m 1
 186.333 953.667 188.667 965.333 191 977 c 1
 216 1106 236 1229 244 1317 c 1
 327 1325 373 1331 472 1331 c 0
 743 1331 883 1249 970 1066 c 1
 1007 986 1026 885 1026 776 c 0
 1026 713 1019.73 646.051 1007 580 c 0
 993.716 511.056 972.007 441.997 946 376 c 0
 851.026 134.99 666.029 13.6723 483 -3 c 0
 427.009 -8.10023 376 -10 321 -10 c 0
 237 -10 105 -3 -9 -3 c 1
 -2 31 -2 30 20 128 c 1
 29 174 88 454 143 732 c 1
 119.667 732 96.3333 732 73 732 c 1
 86.6667 802 100.333 872 114 942 c 1
 137.333 942 160.667 942 184 942 c 1
EndSplineSet
Validated: 1
EndChar

StartChar: currency
Encoding: 164 164 153
Width: 1060
VWidth: 6
Flags: HW
HStem: -20 13G<93.5 151.833 709 769.833> 127 150<397.342 592.217> 745 150<475.129 689.587> 1002 20G<290.167 348.333>
VStem: 146 224<325.844 598.86> 709 223<409.715 687.99>
LayerCount: 2
Fore
SplineSet
605 314 m 1
 653 352 677 431 698 524 c 0
 699 528 699 531 700 535 c 0
 707 565 709 593 709 619 c 0
 709 693 681 745 598 745 c 0
 467 745 408 642 377 488 c 0
 372 464 370 442 370 421 c 0
 370 335 410 277 494 277 c 0
 495 277 495 277 496 277 c 0
 544 278 568 287 605 314 c 1
225 677 m 1
 184 729 142 780 101 832 c 1
 177 895 252 959 328 1022 c 1
 369 972 409 921 450 871 c 1
 498 887 554 895 614 895 c 0
 686 895 742 886 787 869 c 1
 843 916 898 962 954 1009 c 1
 1005 945 1057 882 1108 818 c 1
 1049 768 989 719 930 669 c 1
 931 655 932 640 932 625 c 0
 932 594 929 563 923 533 c 0
 908 454 881 378 838 313 c 1
 878 263 919 212 959 162 c 1
 883 99 808 35 732 -28 c 1
 686 28 640 85 594 141 c 1
 556 132 515 127 468 127 c 1
 467 127 467 127 466 127 c 1
 408 127 358 133 316 145 c 1
 250 90 185 35 119 -20 c 1
 68 44 17 107 -34 171 c 1
 27 222 89 274 150 325 c 1
 147 343 146 362 146 383 c 0
 146 412 149 443 155 475 c 0
 170 553 194 620 225 677 c 1
EndSplineSet
Validated: 1
EndChar

StartChar: sterling
Encoding: 163 163 154
Width: 1060
VWidth: 0
Flags: HW
HStem: -16 204<573.271 755.227> -13 171<98 270.28> 666 200<207 365 606 916> 1149 202<638.944 810.281>
VStem: 366 237<382.927 661 866 1115.08> 755 226<194.167 266>
LayerCount: 2
Fore
SplineSet
273 193 m 1x7c
 246 223 234 250 224 272 c 1
 217 267 199 239 197 218 c 0
 197 216 196 214 196 212 c 0
 193 170 199 158 208 158 c 0
 230 158 253 173 273 193 c 1x7c
916 670 m 1
 840 661 757 661 659 661 c 1
 640 661 622 661 603 661 c 1
 603 568 600 495 579 385 c 0
 569 333 554 278 542 254 c 1
 602 210 636 188 684 188 c 0
 710 188 750 198 755 224 c 0
 756 229 762 262 763 267 c 1
 839 267 915 266 991 266 c 1
 988 248 984 231 981 213 c 1
 951 77 832 -16 691 -16 c 0xbc
 573 -16 519 9 424 79 c 1
 345 -6 231 -13 144 -13 c 0
 52 -13 19 42 19 119 c 0
 19 141 22 166 27 191 c 0
 54 327 154 456 250 456 c 0
 309 456 316 427 337 382 c 1
 343 402 344 407 348 429 c 0
 365 517 366 555 366 621 c 0
 366 664 l 1
 314 666 230 666 185 666 c 1
 179 666 174 666 168 666 c 1
 181 733 194 799 207 866 c 1
 260 866 312 866 365 866 c 1
 366 937 363 977 376 1043 c 0
 416 1248 577 1351 766 1351 c 0
 929 1351 1034 1256 1040 1129 c 1
 966 1111 892 1093 818 1075 c 1
 814 1137 770 1149 726 1149 c 0
 720 1149 l 0
 666 1149 630 1116 617 1051 c 0
 607 997 608 927 606 861 c 1
 638 862 669 863 701 864 c 1
 758 864 l 0
 832 864 898 865 955 871 c 1
 942 804 929 737 916 670 c 1
EndSplineSet
Validated: 1
EndChar

StartChar: cent
Encoding: 162 162 155
Width: 1060
VWidth: 6
Flags: W
HStem: -9 281<387.056 535> 742 291<504 711.133>
VStem: 137 217<305.253 617.365>
LayerCount: 2
Fore
SplineSet
364 525 m 4
 356.966 489.007 354 458 354 432 c 0
 354 275 461 272 494 272 c 5
 497.333 272 500.667 272 504 272 c 5
 587 272 641 323 693 386 c 5
 749 351.333 805 316.667 861 282 c 5
 794 183 697 126 559 111 c 5
 551 71 543 31 535 -9 c 5
 457 -9 379 -9 301 -9 c 5
 309.667 34.6667 318.333 78.3333 327 122 c 5
 290 131 252.902 145.884 224 170 c 4
 160.788 222.744 137 296 137 385 c 0
 137 428 142.163 473.968 152 524 c 4
 192.673 730.865 305 847 476 889 c 5
 485.333 937 494.667 985 504 1033 c 5
 582 1033 660 1033 738 1033 c 5
 729.333 989.333 720.667 945.667 712 902 c 5
 762 895 806.963 880.947 838 859 c 4
 881.947 827.925 911 782 921 741 c 5
 855 714.667 789 688.333 723 662 c 5
 721 692 704 742 588 742 c 4
 466 742 385.893 637.021 364 525 c 4
EndSplineSet
Validated: 1
EndChar

StartChar: percent
Encoding: 37 37 156
Width: 1060
VWidth: 0
Flags: W
HStem: -14 193<629.126 736.367> 392 193<668.387 784.526> 722 193<340.126 448.821> 1128 193<379.421 495.526> 1356 20G<937.833 1023.83>
VStem: 117 219<917.391 1086.9> 406 219<182.981 351.095> 496 229<962.975 1126.07> 785 229<229.083 390.068>
LayerCount: 2
Fore
SplineSet
678 179 m 0xfe80
 710 179 770.16 253.194 781 304 c 0
 783.783 317.043 785 328 785 338 c 0
 785 374 767 390 732 392 c 0
 730 392 l 0
 698 392 636.476 321.894 627 277 c 0
 625.096 267.981 625 259 625 251 c 0
 625 210 645 179 678 179 c 0xfe80
389 915 m 0
 421 915 481.16 989.194 492 1040 c 0
 494.783 1053.04 496 1064 496 1074 c 0xfd80
 496 1110 478 1126 443 1128 c 0
 441 1128 l 0
 409 1128 347.476 1057.89 338 1013 c 0
 336.096 1003.98 336 995 336 987 c 0
 336 946 356 915 389 915 c 0
-37 82 m 1
 67.6667 222.667 172.333 363.333 277 504 c 1
 407 679 566 788 614 853 c 1
 545 776 449 722 347 722 c 0
 210 722 117 824 117 955 c 0
 117 974 119.035 991.993 123 1012 c 0
 155.288 1174.94 322 1318 486 1321 c 0
 493 1321 l 0
 633 1321 725 1231 725 1108 c 0xfd80
 725 1091 721.5 1075 720 1057 c 0
 719.838 1055.03 719.318 1051.93 717 1040 c 0
 711.73 1012.88 697 975 677 939 c 1
 781.333 1084.67 885.667 1230.33 990 1376 c 1
 1057.67 1338.67 1125.33 1301.33 1193 1264 c 1
 1088.33 1121.67 983.667 979.333 879 837 c 1
 785 705 613 591 502 450 c 1
 573 529 676 583 775 585 c 0
 782 585 l 0
 922 585 1014 495 1014 372 c 0
 1014 355 1010.5 339 1009 321 c 0
 1008.84 319.027 1008.21 315.955 1008 314 c 0
 990.5 152 815 -14 636 -14 c 0
 499 -14 406 88 406 219 c 0xfe80
 406 238 408 256 412 276 c 0
 419 311 431 345 449 377 c 1
 354.667 242 260.333 107 166 -28 c 1
 98.3333 8.66667 30.6667 45.3333 -37 82 c 1
EndSplineSet
Validated: 1
EndChar

StartChar: guillemotleft
Encoding: 171 171 157
Width: 1060
VWidth: 6
Flags: W
VStem: 249 235<100.693 204.688> 651 235<89.7536 198.129>
LayerCount: 2
Fore
SplineSet
463 566 m 5
 632 696 801 857 851 997 c 5
 922.333 973 993.667 949 1065 925 c 5
 988 736 828 613 682 504 c 5
 787 386 874 267 886 95 c 5
 807.667 66.3333 729.333 37.6667 651 9 c 5
 642 158 572 310 441 451 c 5
 448.333 489.333 455.667 527.667 463 566 c 5
61 576 m 5
 230 706 399 867 449 1007 c 5
 520.333 983.333 591.667 959.667 663 936 c 5
 586 747 426 624 280 515 c 5
 385 397 472 278 484 106 c 5
 405.667 77 327.333 48 249 19 c 5
 240 168 170 320 39 461 c 5
 46.3333 499.333 53.6667 537.667 61 576 c 5
EndSplineSet
Validated: 1
EndChar

StartChar: section
Encoding: 167 167 159
Width: 1060
VWidth: 4
Flags: W
HStem: -285 200<304.17 486.031> 1051 21G<751 973> 1168 200<560.976 742.613>
VStem: 69 223<-70.2459 32> 87 250<568.756 712.656> 263 252<901.007 1121.28> 533 250<-38.2227 179.979> 710 251<367.001 514.806> 754 223<1051 1153.74>
LayerCount: 2
Fore
SplineSet
645 354 m 1xe9
 697 382 704 396 710 429 c 1
 710 435 l 0
 710 454 704.907 473.917 686 495 c 0
 589.529 602.574 473 679 403 729 c 1
 351 701 343 687 337 654 c 1
 337 648 l 0
 337 629 342.05 609.045 361 588 c 0
 456.249 482.225 540 428 637 361 c 1
 639.667 358.667 642.333 356.333 645 354 c 1xe9
281 883 m 1
 281 883 263 904 263 965 c 0
 263 987 265.833 1015.03 272 1048 c 0
 310.944 1256.19 531 1362 685 1368 c 0
 703 1368 l 0
 878 1368 977 1267 977 1117 c 0
 977 1096 975 1074 971 1051 c 1
 897.667 1051 824.333 1051 751 1051 c 1
 753 1061 754 1071 754 1080 c 0xe480
 754 1141 709 1168 652 1168 c 1
 620 1168 548 1149 523 1054 c 0
 522.199 1050.96 521.879 1047.02 521 1043 c 0
 517.529 1027.12 515 1009 515 990 c 0
 515 958 523.953 924.936 556 901 c 0
 676.82 810.76 793.2 725.178 881 627 c 0
 938.13 563.117 961 526 961 472 c 0xe5
 961 453 957.959 433.008 953 408 c 0
 929.808 291.038 865 238 776 180 c 1
 776 180 783 151 783 108 c 0
 783 87 781 61 776 35 c 0
 736 -173 516 -279 362 -285 c 0
 344 -285 l 0
 168 -285 69 -183 69 -33 c 0
 69 -12 71 9 75 32 c 1
 148.333 32 221.667 32 295 32 c 1
 293 22 292 12 292 3 c 0
 292 -58 337 -85 394 -85 c 1
 426 -85 500 -66 525 29 c 0
 525.801 32.0389 526.096 35.9808 527 40 c 0
 530.353 54.9118 533 74 533 92 c 0xf2
 533 124 524.109 157.146 491 182 c 0
 370.401 272.529 255.223 358.202 167 456 c 0
 109.147 520.132 87 557 87 612 c 0
 87 630 89.195 650.963 94 675 c 0
 122.138 815.763 281 883 281 883 c 1
EndSplineSet
Validated: 1
EndChar

StartChar: braceleft
Encoding: 123 123 160
Width: 1060
VWidth: 66
Flags: W
HStem: -282 218<644.434 762.938> 1266 218<883.189 1066.37>
VStem: 364 266<-60 95.8128> 502 261<214.442 403.806> 601 249<952.751 1230.63> 623 246<830.021 1145.35>
LayerCount: 2
Fore
SplineSet
555 600 m 1xc8
 644 577 763 506 763 381 c 0xd0
 763 364 761.176 346.965 758 330 c 0
 739.055 228.814 672 132 638 54 c 0
 634.438 45.8356 633.081 37.9865 632 31 c 0
 631.07 24.99 630 20 630 15 c 0
 630 -39 693 -59 807 -64 c 1
 791.333 -136.667 775.667 -209.333 760 -282 c 1
 628 -276 467.254 -274.483 396 -166 c 0
 373.769 -132.154 364 -96 364 -60 c 0xe0
 364 -45 366.059 -29.0114 369 -14 c 0
 383.288 58.9423 426 133 462 198 c 1
 482 234 494.132 263.976 499 290 c 0
 501.056 300.989 502 311 502 320 c 0xd0
 502 427 371 447 263 479 c 1
 270 516.667 277 554.333 284 592 c 1
 292.667 635.667 301.333 679.333 310 723 c 1
 441 758 594.865 777.689 619 911 c 0
 621.167 922.967 623 937 623 952 c 0xc4
 623 968 621 985 618 1004 c 1
 611 1050 601 1100 601 1152 c 0
 601 1173 602.981 1195 607 1216 c 0
 616.954 1268.01 642.842 1320.17 693 1368 c 0
 806.64 1476.37 968 1478 1102 1484 c 1
 1089.33 1411.33 1076.67 1338.67 1064 1266 c 1
 936 1261 862.785 1238.28 852 1170 c 0
 850.745 1162.05 850 1153 850 1144 c 0xc8
 850 1083 869 1014 869 940 c 0xc4
 869 918 867.808 895.038 863 872 c 0
 859.875 857.027 855.945 842.02 850 826 c 0
 802.562 698.164 653 623 555 600 c 1xc8
EndSplineSet
Validated: 1
EndChar

StartChar: bar
Encoding: 124 124 161
Width: 1060
VWidth: 66
Flags: W
VStem: 240 594
LayerCount: 2
Fore
SplineSet
312 152 m 0
 383.554 516.891 489 1111 545 1399 c 1
 551 1430 557 1461 563 1492 c 1
 653.333 1492 743.667 1492 834 1492 c 5
 824.667 1443.67 815.333 1395.33 806 1347 c 5
 752 1070 665 558 600 224 c 5
 590 174 580 124 570 74 c 5
 548 -41 537 -97 512 -198 c 5
 421.333 -197.667 330.667 -197.333 240 -197 c 1
 256 -135 265.226 -92.0432 276 -37 c 0
 285.192 9.96154 295.131 65.9746 312 152 c 0
EndSplineSet
Validated: 1
EndChar

StartChar: braceright
Encoding: 125 125 162
Width: 1060
VWidth: 66
Flags: W
HStem: -282 218<59 239.334> 1266 218<363 479.26>
VStem: 254 246<52.436 367.436> 272 249<-28.5186 245.296> 362 260<797.347 982.998> 494 265<1105.48 1266>
LayerCount: 2
Fore
SplineSet
569 600 m 1xe0
 480 623 362 696 362 820 c 0
 362 826 l 0xc8
 362 842 364.028 856.994 367 872 c 0
 387.192 973.962 455.438 1067.84 486 1148 c 0
 489.044 1155.98 490.919 1163.01 492 1170 c 0
 492.93 1176.01 494 1182 494 1187 c 0
 494 1242 432 1261 318 1266 c 1
 333 1338.67 348 1411.33 363 1484 c 1
 496 1478 657 1476 729 1368 c 0
 751 1335 759 1301 759 1266 c 0xc4
 759 1249 757.126 1232.98 754 1216 c 0
 740.542 1142.9 698 1069 662 1004 c 1
 642 968 629.868 937.024 625 911 c 0
 622.944 900.011 622 890 622 881 c 0xc8
 622 774 754 755 862 723 c 1
 853.333 679.333 844.667 635.667 836 592 c 1
 828.333 554.333 820.667 516.667 813 479 c 1
 682 444 531.195 423.744 504 291 c 0
 501.127 276.975 500 262 500 246 c 0xe0
 500 231 501 215 504 198 c 1
 511 152 521 102 521 50 c 0
 521 29 519.019 6.99644 515 -14 c 0
 505.046 -66.0088 480.158 -118.166 430 -166 c 0
 316.36 -274.375 154 -276 20 -282 c 1
 33 -209.333 46 -136.667 59 -64 c 1
 187 -58 258.61 -36.23 270 32 c 0
 271.163 38.9688 271 46 272 54 c 0
 272 61 l 0xd0
 272 121 254 189 254 262 c 0
 254 284 255.192 306.962 260 330 c 0
 263.125 344.973 267.217 360.92 273 376 c 0
 321.81 503.276 471 577 569 600 c 1xe0
EndSplineSet
Validated: 1
EndChar

StartChar: at
Encoding: 64 64 163
Width: 1060
VWidth: 6
Flags: W
HStem: -253 200<358.439 663.403> -25 20G<630 668.333> 162 200<483 701.428> 658 200<617.297 771.84> 1095 205<554 796.768>
VStem: 21 226<74.2635 590.932> 343 223<362.16 601.404> 838 225<800.914 1056.57>
LayerCount: 2
Back
SplineSet
691 209 m 4
 742 209 794 312 800 329 c 5
 809 377 l 5
 797 417 767 448 749 448 c 4
 709 448 665 414 649 333 c 6
 647 322 l 5
 643 299 641 280 641 265 c 4
 641 219 659 209 691 209 c 4
858 629 m 5
 878 731 l 5
 879 735 879 738 879 742 c 4
 879 785 832 825 774 825 c 4
 726 825 671 797 632 720 c 5
 479 797 l 5
 579 970 698 1029 794 1029 c 7
 861 1029 922 998 936 975 c 5
 936 975 929 1178 757 1178 c 4
 579 1178 396 905 321 518 c 4
 306 441 299 367 299 297 c 4
 299 18 411 -185 562 -185 c 4
 635 -185 695 -158 731 -137 c 5
 788 -320 l 5
 736 -349 636 -380 520 -380 c 4
 262 -380 83 -181 83 212 c 4
 83 309 94 418 117 538 c 4
 230 1120 513 1385 787 1385 c 4
 1057 1385 1130 1195 1130 981 c 4
 1130 889 1116 793 1099 705 c 5
 1007 233 l 5
 1004 216 1003 200 1003 184 c 4
 1003 120 1023 66 1023 66 c 5
 802 -22 l 5
 791 78 l 5
 791 78 726 -9 560 -9 c 4
 448 -9 410 81 410 190 c 4
 410 228 414 268 422 308 c 4
 440 400 474 488 507 530 c 4
 590 636 671 667 740 670 c 4
 742 670 744 670 746 670 c 4
 788 670 839 643 858 629 c 5
EndSplineSet
Fore
SplineSet
572 496 m 0
 567.896 474.02 566 455 566 437 c 0
 566 391 580 362 612 362 c 0
 710 362 745 480 773 530 c 1
 777.333 552.667 781.667 575.333 786 598 c 1
 745 642 745 658 696 658 c 0
 646 658 594.428 616.104 572 496 c 0
779 267 m 1
 708 204 680 162 554 162 c 0
 412 162 343 272 343 405 c 0
 343 431 345.88 458.023 351 485 c 0
 392.033 701.179 523 858 707 858 c 0
 776 858 798 832 825 798 c 1
 833 839 838 881 838 919 c 0
 838 1017 804 1095 690 1095 c 0
 525 1095 349.956 922.198 269 500 c 0
 254.817 426.035 247 356 247 292 c 0
 247 89 323 -53 494 -53 c 0
 542 -53 598 -41 662 -5 c 1
 674.667 -68.6667 687.333 -132.333 700 -196 c 1
 612 -238 513 -253 443 -253 c 0
 134 -253 21 -3.00002 21 274 c 0
 21 347 28.9333 422.013 43 495 c 0
 140.538 1001.09 416 1300 728 1300 c 0
 976 1300 1063 1127 1063 949 c 0
 1063 912 1059 874 1052 838 c 1
 1030.67 728 1009.33 618 988 508 c 1
 981 472 972 427 972 391 c 0
 972 352 980 313 1003 265 c 1
 936 233 869 201 802 169 c 1
 788 205 785 213 779 267 c 1
EndSplineSet
Validated: 1
EndChar

StartChar: brokenbar
Encoding: 166 166 164
Width: 1060
VWidth: 66
Flags: W
VStem: 240 594
LayerCount: 2
Fore
SplineSet
429 779 m 1
 473 1018 516 1250 545 1399 c 1
 551 1430 557 1461 563 1492 c 1
 653.333 1492 743.667 1492 834 1492 c 1
 824.667 1443.67 815.333 1395.33 806 1347 c 1
 778 1202 740 993 701 779 c 1
 610.333 779 519.667 779 429 779 c 1
659 539 m 1
 638 426 618 318 600 224 c 1
 590 174 580 124 570 74 c 1
 548 -41 537 -97 512 -198 c 1
 421.333 -197.667 330.667 -197.333 240 -197 c 1
 256 -135 265.226 -92.0432 276 -37 c 0
 285.192 9.96154 295.052 65.9899 312 152 c 0
 334.067 263.987 359 399 385 539 c 1
 476.333 539 567.667 539 659 539 c 1
EndSplineSet
Validated: 1
EndChar

StartChar: copyright
Encoding: 169 169 165
Width: 1060
VWidth: 6
Flags: W
HStem: -336 155<283.066 511.289> -17 152<407.596 532.085> 859 174<533.115 645.548> 1202 153<540.197 745.135>
VStem: 26 141<-28.5763 561.06> 236 153<140.321 584.215> 654 152<804.624 857> 872 150<459.54 1020.15>
LayerCount: 2
Fore
SplineSet
607 1033 m 0
 610 1033 l 0
 617 1033 623.01 1035.24 635 1035 c 0
 710 1033.5 786 962 806 810 c 1
 755.333 791 704.667 772 654 753 c 1
 647 810 649 859 603 859 c 0
 527 859 444.702 688.857 409 510 c 0
 398.213 455.958 389 377 389 306 c 0
 389 215 404 135 451 135 c 0
 513 135 545 182 583 273 c 1
 622.667 260 662.333 247 702 234 c 1
 635 93 555 -17 431 -17 c 0
 276 -17 236 134 236 283 c 0
 236 359 246.77 433.045 257 487 c 0
 295.141 688.159 363.162 811.894 404 874 c 0
 455.202 951.866 531 1019 607 1033 c 0
655 1202 m 0
 489 1202 271.857 904.83 195 512 c 0
 176.21 415.959 167 324 167 242 c 0
 167 -9.99998 250 -181 386 -181 c 0
 571 -181 771 118 847 510 c 1
 848 515.667 849 521.333 850 527 c 1
 865 604 872 677 872 745 c 0
 872 1016 765 1202 655 1202 c 0
684 1355 m 0
 914 1355 1022 1129 1022 822 c 0
 1022 723 1010.74 617.05 989 506 c 0
 899.951 51.2079 646 -336 356 -336 c 0
 131 -336 26 -112 26 193 c 0
 26 293 37.0676 400.987 59 513 c 0
 148.275 968.946 396 1355 684 1355 c 0
EndSplineSet
Validated: 1
EndChar

StartChar: registered
Encoding: 174 174 166
Width: 1060
VWidth: 6
Flags: W
HStem: -336 155<283.066 511.289> 0 21G<530 569.333> 891 153<554 634.832> 1202 153<540.197 745.135>
VStem: 26 141<-28.5763 561.06> 650 136<568.556 878.352> 872 150<459.54 1020.15>
LayerCount: 2
Fore
SplineSet
646 722 m 0
 649.324 743.946 650 763 650 780 c 0
 650 863 615 891 563 891 c 0
 554 891 l 1
 531.333 773.333 508.667 655.667 486 538 c 1
 507 531 525 528 540 528 c 0
 598 528 619.904 576.019 636 657 c 0
 639.976 677.005 642.357 697.951 646 722 c 0
543 0 m 1
 517 82 500 316 486 378 c 1
 467 381 469 377 455 381 c 1
 430 254 421.713 203.054 411 148 c 0
 403.808 111.038 396 73 382 10 c 1
 332.667 10.6667 283.333 11.3333 234 12 c 1
 294 321 426 1007 426 1007 c 1
 475 1042 528.162 1037.71 581 1043 c 0
 589.015 1043.8 597 1044 605 1044 c 0
 739 1044 786 935 786 800 c 0
 786 763 782 723 776 684 c 1
 754 570 707 433 633 392 c 1
 656 298 677 112 701 92 c 1
 648.333 61.3333 595.667 30.6667 543 0 c 1
655 1202 m 0
 489 1202 271.857 904.83 195 512 c 0
 176.21 415.959 167 324 167 242 c 0
 167 -9.99998 250 -181 386 -181 c 0
 571 -181 771 118 847 510 c 1
 848 515.667 849 521.333 850 527 c 1
 865 604 872 677 872 745 c 0
 872 1016 765 1202 655 1202 c 0
684 1355 m 0
 914 1355 1022 1129 1022 822 c 0
 1022 723 1010.74 617.05 989 506 c 0
 899.951 51.2079 646 -336 356 -336 c 0
 131 -336 26 -112 26 193 c 0
 26 293 37.0676 400.987 59 513 c 0
 148.275 968.946 396 1355 684 1355 c 0
EndSplineSet
Validated: 1
EndChar

StartChar: germandbls
Encoding: 223 223 167
Width: 1060
VWidth: 0
Flags: W
HStem: -37 21G<23.6667 61.5> -2 201<475.5 676.559> 634 206<464 618.68> 1122 206<469.578 657.841>
VStem: 343 214<119 319.735> 676 251<902.325 1101.27> 735 248<265.355 553.75>
LayerCount: 2
Fore
SplineSet
187 1003 m 0xfc
 217.232 1158.95 366 1328 573 1328 c 0
 781 1328 927 1262 927 1085 c 0xfc
 927 1062 924 1036 919 1009 c 1
 895 886 836 815 746 779 c 1
 864 758 983 687 983 495 c 0
 983 461 979.06 422.988 971 381 c 0
 912.437 75.9169 769 -2 549 -2 c 0
 402 -2 343 57 343 181 c 0
 343 215 348 254 356 298 c 0
 362 322 l 1
 429.667 321.333 497.333 320.667 565 320 c 1
 561 298 557 277 557 258 c 0
 557 224 569 199 610 199 c 0
 664 199 701.604 246.887 730 395 c 0
 733.065 410.987 735 427 735 443 c 0xfa
 735 539 671 634 424 634 c 1
 437.333 702.667 450.667 771.333 464 840 c 1
 629 840 652.412 905.647 674 1003 c 0
 675.784 1011.04 676 1019 676 1026 c 0
 676 1094 609 1122 556 1122 c 1
 489 1122 449.852 1073.03 437 1007 c 0
 406.65 851.069 369.673 636.865 333 450 c 0
 325.144 409.972 318.904 370.019 311 331 c 0
 294.803 251.04 277.976 176.013 247 117 c 0
 203.967 35.0175 92 -9 31 -37 c 1
 16.3333 45.6667 1.66666 128.333 -13 211 c 1
 9 221 30 235 43 261 c 0
 56 287 63 323 78 398 c 0
 81 413 84.165 428.968 88 448 c 0
 125.613 634.66 153.26 828.95 187 1003 c 0xfc
EndSplineSet
Validated: 1
EndChar

StartChar: ampersand
Encoding: 38 38 168
Width: 1060
VWidth: 0
Flags: W
HStem: -22 203<289.933 554.142> 1146 201<478.782 627.42>
VStem: 14 256<199.876 472.865> 207 240<870.455 1111.06> 631 252<967.554 1145>
LayerCount: 2
Fore
SplineSet
671 94 m 1xd8
 568 12 460 -22 340 -22 c 0
 161 -22 14 46 14 255 c 0xe8
 14 289 18.0477 325.991 26 367 c 0
 63.2232 558.956 184 670 309 758 c 1
 245 830 207 917 207 995 c 0
 207 1009 208.141 1022.97 211 1037 c 0
 254.117 1248.55 433 1347 613 1347 c 0
 761 1347 883 1294 883 1145 c 0
 883 1126 881.208 1104.96 877 1082 c 0
 841.751 889.695 709 784 583 700 c 1
 635.667 600 688.333 500 741 400 c 1
 757 417 768.808 446.038 776 483 c 0
 782.817 518.035 786 561 786 608 c 0
 786 622 785 637 785 652 c 1
 866.333 652 947.667 652 1029 652 c 1
 973 364 851 246 851 246 c 1
 878.667 198 906.333 150 934 102 c 25
 869.667 57.3333 805.333 12.6667 741 -32 c 25
 717.667 10 694.333 52 671 94 c 1xd8
391 573 m 1
 337 530 291.046 443.991 277 370 c 0
 273.013 348.998 270 327 270 306 c 0
 270 240 296 181 383 181 c 0
 469 181 537 208 576 238 c 1
 514.333 349.667 452.667 461.333 391 573 c 1
488 867 m 1
 558 915 618.61 994.77 629 1056 c 0
 630.182 1062.96 631 1071 631 1078 c 0
 631 1114 614 1146 568 1146 c 0
 510 1146 460.741 1095.84 452 1053 c 0
 448.315 1034.94 447 1018 447 1001 c 0xd8
 447 951 462 907 488 867 c 1
EndSplineSet
Validated: 1
EndChar

StartChar: uni00B5
Encoding: 181 181 169
Width: 1060
VWidth: 6
Flags: W
HStem: -17 21G<774 832.667> 2 204<298.094 541.375> 1000 20G<372.833 415>
VStem: 163 252<702.308 991.764>
LayerCount: 2
Fore
SplineSet
241 8 m 1x70
 213.333 -127.333 185.667 -262.667 158 -398 c 25
 74.6667 -397 -8.66666 -396 -92 -395 c 1
 -49.6714 -187.023 -5.64606 20.6889 35 229 c 0
 51 311 70.2325 407.955 89 504 c 0
 127.476 700.906 163 897 163 973 c 0
 163 980 163 987 162 992 c 1
 246.333 1001.33 330.667 1010.67 415 1020 c 1
 415 1010 l 0
 415 910 360 652 293 298 c 1
 293 292 l 0
 293 230 309 206 391 206 c 1x70
 589 206 645 370 655 418 c 1
 693 612 731 806 769 1000 c 1
 854.667 1000 940.333 1000 1026 1000 c 1
 980.667 768.667 935.333 537.333 890 306 c 1
 889 302 889 299 889 295 c 0
 889 245 937 186 981 166 c 1
 921.667 105 862.333 44 803 -17 c 1xb0
 745 12 711 58 700 108 c 1
 610 31 488 5 337 2 c 1
 334 2 331 2 328 2 c 1
 299 2 270 4 241 8 c 1x70
EndSplineSet
Validated: 1
EndChar

StartChar: paragraph
Encoding: 182 182 170
Width: 1060
VWidth: 0
Flags: W
HStem: -10 21G<648 651.167> 1112 216<720.99 838>
LayerCount: 2
Fore
SplineSet
824 1041 m 1
 828.667 1064.67 833.333 1088.33 838 1112 c 1
 749 1112 l 0
 721 1112 l 1
 663 816 608.958 520.008 551 224 c 0
 532.987 132.003 469 -2.00001 423 -41 c 1
 361 -7 299 27 237 61 c 1
 267 103 304 141 320 221 c 1
 334.333 294 348.667 367 363 440 c 1
 223 450 125 568 125 772 c 0
 125 818 130.115 868.977 141 924 c 0
 159.192 1015.96 195.132 1107.87 262 1174 c 0
 404.28 1314.72 578 1328 803 1328 c 0
 936 1328 973 1320 1091 1320 c 1
 1004.67 877 918.333 434 832 -9 c 1
 759.667 -9.33333 687.333 -9.66667 615 -10 c 1
 681 332 739 604 824 1041 c 1
EndSplineSet
Validated: 1
EndChar

StartChar: dieresis
Encoding: 168 168 173
Width: 1060
VWidth: -28
Flags: W
HStem: 1119 240<311 544 731 966>
LayerCount: 2
Fore
SplineSet
731 1359 m 1
 825 1358 919 1357 1013 1356 c 1
 997.333 1276 981.667 1196 966 1116 c 1
 872.333 1117 778.667 1118 685 1119 c 1
 700.333 1199 715.667 1279 731 1359 c 1
311 1359 m 1
 404 1359 497 1359 590 1359 c 1
 574.667 1279 559.333 1199 544 1119 c 1
 451 1119 358 1119 265 1119 c 1
 280.333 1199 295.667 1279 311 1359 c 1
EndSplineSet
Validated: 1
EndChar

StartChar: acute
Encoding: 180 180 174
Width: 1060
VWidth: -43
Flags: W
HStem: 1267 442
VStem: 404 585
LayerCount: 2
Fore
SplineSet
404 1441 m 1
 556 1489 752 1601 888 1709 c 1
 921.667 1651.67 955.333 1594.33 989 1537 c 1
 856 1425 612 1314 460 1267 c 1
 441.333 1325 422.667 1383 404 1441 c 1
EndSplineSet
Validated: 1
EndChar

StartChar: degree
Encoding: 176 176 175
Width: 1060
VWidth: -8
Flags: W
HStem: 1278 132<648.419 808.905> 1535 142<655.698 817.047>
VStem: 454 191<1415.96 1521.29> 819 192<1425.27 1530.9>
LayerCount: 2
Fore
SplineSet
744 1535 m 0
 691 1535 653.95 1503.35 646 1473 c 0
 645.202 1469.96 645 1468 645 1465 c 0
 645 1437 673 1410 720 1410 c 0
 772 1410 810.05 1442.65 818 1473 c 0
 818.798 1476.04 819 1479 819 1482 c 0
 819 1510 792 1535 744 1535 c 0
457 1473 m 0
 480.096 1588.98 625 1677 773 1677 c 0
 908 1677 1011 1604 1011 1503 c 0
 1011 1493 1009.96 1483.01 1008 1473 c 0
 985.519 1358.1 855 1278 695 1278 c 0
 555 1278 454 1346 454 1444 c 0
 454 1453 455.008 1463 457 1473 c 0
EndSplineSet
Validated: 1
EndChar

StartChar: macron
Encoding: 175 175 176
Width: 1060
VWidth: -34
Flags: W
HStem: 1463 194<482.235 947>
VStem: 447 538
LayerCount: 2
Fore
SplineSet
985 1657 m 1
 972.333 1592.33 959.667 1527.67 947 1463 c 5
 941.345 1463 935.651 1463.19 930 1463 c 4
 872 1461 773 1456 699 1456 c 4
 625 1456 533 1457 465 1459 c 4
 459.001 1459.18 452.993 1459.67 447 1460 c 5
 459.667 1525.67 472.333 1591.33 485 1657 c 1
 491.274 1656.34 497.697 1655.19 504 1655 c 0
 569 1653 683 1652 775 1652 c 0
 836 1652 923 1657 968 1657 c 0
 985 1657 l 1
EndSplineSet
Validated: 1
EndChar

StartChar: dotlessi
Encoding: 305 305 177
Width: 1060
VWidth: 0
Flags: W
HStem: -18 200<494 844.134> 1019 20G<453.5 522.667>
VStem: 321 272<189.641 440.114>
LayerCount: 2
Fore
SplineSet
481 1039 m 1
 564.333 1030.33 647.667 1021.67 731 1013 c 1
 678 740 598 326 598 326 c 1
 595 309 593 292 593 275 c 0
 593 226 611 182 679 182 c 0
 772 182 839 215 910 273 c 1
 930 209.667 950 146.333 970 83 c 1
 870 12 714 -18 590 -18 c 0
 398 -18 321 61 321 185 c 0
 321 208 324 232 329 258 c 1
 360 417.667 391 577.333 422 737 c 1
 422 737 388 703 288 655 c 1
 251 716.333 214 777.667 177 839 c 1
 301 879 426 937 481 1039 c 1
EndSplineSet
Validated: 1
EndChar

StartChar: asterisk
Encoding: 42 42 191
Width: 1060
VWidth: 0
Flags: W
LayerCount: 2
Fore
SplineSet
489 792 m 1
 500.667 927.333 512.333 1062.67 524 1198 c 1
 622 1198.67 720 1199.33 818 1200 c 1
 781.667 1064 745.333 928 709 792 c 1
 814.667 852 920.333 912 1026 972 c 1
 1048 889.333 1070 806.667 1092 724 c 1
 964 686 836 648 708 610 c 1
 782.333 520 856.667 430 931 340 c 1
 846.333 281.333 761.667 222.667 677 164 c 1
 634.667 282 592.333 400 550 518 c 1
 459.333 398.667 368.667 279.333 278 160 c 1
 220.667 217.333 163.333 274.667 106 332 c 1
 211.333 425.333 316.667 518.667 422 612 c 1
 312.667 643.333 203.333 674.667 94 706 c 1
 141 792.667 188 879.333 235 966 c 1
 319.667 908 404.333 850 489 792 c 1
EndSplineSet
Validated: 1
EndChar

StartChar: ordfeminine
Encoding: 170 170 193
Width: 1060
VWidth: 6
Flags: W
HStem: 430 153<201.281 678> 659 108<402.315 562.487> 919 108<422.06 600.016> 1034 21G<392 427> 1108 112<437.227 620.447>
VStem: 260 142<768.484 895.667> 628 138<917.643 1101.4>
LayerCount: 2
Fore
SplineSet
404 836 m 0
 402.943 830.011 402 823 402 818 c 0
 402 779 432 767 463 767 c 0
 523 767 580 822 596 852 c 1
 597.667 860.667 599.333 869.333 601 878 c 1
 585 900 551 919 516 919 c 0
 480 919 414.432 895.095 404 836 c 0
727 836 m 2
 723.942 820.011 722 807 722 795 c 0
 722 769 730 750 748 734 c 1
 722 707 696 680 670 653 c 1
 645 675 628 680 613 719 c 1
 563 677 514 659 414 659 c 0
 330 659 260 716 260 798 c 0
 260 808 261.06 817.989 263 828 c 0
 272.288 875.942 298.722 923.331 337 956 c 0
 398.544 1008.53 459 1027 537 1027 c 0
 572 1027 607 1015 625 1001 c 1
 627 1012 628 1021 628 1030 c 0
 628 1095 577 1108 548 1108 c 0
 485 1108 446 1076 408 1034 c 1
 376 1053.67 344 1073.33 312 1093 c 1
 384 1191 476 1218 574 1220 c 1
 684 1220 766 1164 766 1061 c 0
 766 1048 765 1034 762 1019 c 0
 749.823 958.115 738.664 896.985 727 836 c 2
706 583 m 5
 696.667 532.667 687.333 482.333 678 432 c 5
 672.333 432 666.667 432 661 432 c 5
 603 430 533 430 459 430 c 4
 378 430 l 4
 325 430 223 430 175 433 c 5
 184.667 483.667 194.333 534.333 204 585 c 5
 210.333 585 216.667 585 223 585 c 5
 288 583 433 583 525 583 c 4
 706 583 l 5
EndSplineSet
Validated: 1
EndChar

StartChar: logicalnot
Encoding: 172 172 194
Width: 1060
VWidth: 6
Flags: W
HStem: 410 244<134 731>
LayerCount: 2
Fore
SplineSet
134 654 m 1
 179 656 230 657 280 657 c 0
 380 657 480 654 548 654 c 0
 667 654 l 0
 749 654 901 653 1008 652 c 1
 1014 652 1020 652 1026 652 c 1
 1015.67 600 1005.33 548 995 496 c 1
 995.667 496 996.333 496 997 496 c 1
 976.667 390.667 956.333 285.333 936 180 c 1
 852.667 180 769.333 180 686 180 c 1
 701 256.667 716 333.333 731 410 c 1
 499 410 l 0
 456 410 365 413 265 413 c 0
 208 413 149 412 93 409 c 1
 100.667 449.667 108.333 490.333 116 531 c 1
 122 572 128 613 134 654 c 1
EndSplineSet
Validated: 1
EndChar

StartChar: uni00AD
Encoding: 173 173 195
Width: 1060
VWidth: 6
Flags: W
HStem: 413 244<134 978>
LayerCount: 2
Fore
SplineSet
134 654 m 5
 179 656 230 657 280 657 c 0
 380 657 480 654 548 654 c 4
 667 654 l 4
 749 654 901 653 1008 652 c 5
 1014 652 1020 652 1026 652 c 5
 1010 570.333 994 488.667 978 407 c 5
 972 407 966 407 960 407 c 5
 826 410 624 410 499 410 c 4
 456 410 365 413 265 413 c 0
 208 413 149 412 93 409 c 5
 100.667 449.667 108.333 490.333 116 531 c 5
 122 572 128 613 134 654 c 5
EndSplineSet
Validated: 1
EndChar

StartChar: cedilla
Encoding: 184 184 198
Width: 1060
VWidth: 12
Flags: W
HStem: -398 172<294.374 517.219> -119 176<385 521.985>
VStem: 521 224<-218.613 -122.055>
LayerCount: 2
Fore
SplineSet
608 56 m 1
 605 48 592 -16 591 -19 c 1
 676 -23 745 -68 745 -157 c 0
 745 -169 743.759 -181.954 741 -195 c 0
 713.626 -324.452 588 -398 430 -398 c 0
 364 -398 275 -380 226 -344 c 1
 255.667 -294.667 285.333 -245.333 315 -196 c 1
 345 -214 386 -226 437 -226 c 0
 473 -226 511 -214 521 -176 c 1
 521 -175.333 521 -174.667 521 -174 c 1
 522 -171 522 -167 522 -164 c 0
 522 -139 502 -119 460 -119 c 0
 412 -119 379 -121 349 -131 c 1
 361 -68.3333 373 -5.66667 385 57 c 1
 459.333 56.6667 533.667 56.3333 608 56 c 1
EndSplineSet
Validated: 1
EndChar

StartChar: ordmasculine
Encoding: 186 186 200
Width: 1060
VWidth: 6
Flags: W
HStem: 430 153<201.281 678> 656 110<429.746 610.96> 1109 109<480.929 670.146>
VStem: 237 177<781.498 1031> 680 176<840.154 1100.29>
LayerCount: 2
Fore
SplineSet
706 583 m 1
 696.667 532.667 687.333 482.333 678 432 c 1
 672.333 432 666.667 432 661 432 c 1
 603 430 533 430 459 430 c 0
 378 430 l 0
 325 430 223 430 175 433 c 1
 184.667 483.667 194.333 534.333 204 585 c 1
 210.333 585 216.667 585 223 585 c 1
 288 583 433 583 525 583 c 0
 706 583 l 1
600 793 m 1
 638 821 654.65 880.45 672 947 c 0
 672.794 950.039 673.192 951.962 674 955 c 0
 679.2 974.6 680 994 680 1012 c 0
 680 1069 657 1109 590 1109 c 0
 486 1109 439.517 1032.09 418 920 c 0
 414.931 904.014 414 889 414 875 c 0
 414 809 447 766 515 766 c 1
 553 766 571 774 600 793 c 1
493 656 m 1
 311 656 237 732 237 848 c 0
 237 868 238.871 889.025 243 911 c 0
 280.812 1112.22 400 1218 601 1218 c 0
 736 1218 804.967 1179.98 839 1109 c 0
 850.989 1083.99 856 1052 856 1020 c 0
 856 997 853.138 974.973 849 953 c 0
 819.968 798.824 726 656 495 656 c 1
 494.333 656 493.667 656 493 656 c 1
EndSplineSet
Validated: 1
EndChar

StartChar: onequarter
Encoding: 188 188 201
Width: 1060
VWidth: 0
Flags: W
HStem: 0 21G<136.5 178.245 690 837> 214 115<615 731 894 941> 1039 21G<236.5 282> 1356 20G<467 489.667>
LayerCount: 2
Fore
SplineSet
470 1376 m 1
 509.333 1368 548.667 1360 588 1352 c 1
 543.333 1123.33 498.667 894.667 454 666 c 1
 410.667 666 367.333 666 324 666 c 1
 357 837 390 1008 423 1179 c 1
 380 1134 319 1078 245 1039 c 5
 228 1077 211 1115 194 1153 c 1
 365 1235 464 1368 470 1376 c 1
754 329 m 1
 765.333 388 776.667 447 788 506 c 1
 734 436 669 375 615 328 c 1
 661.333 328.333 707.667 328.667 754 329 c 1
455 304 m 1
 478 329 762 567 833 712 c 1
 878.333 712.333 923.667 712.667 969 713 c 1
 944 585 919 457 894 329 c 1
 917 329 940 329 963 329 c 1
 955.667 290.667 948.333 252.333 941 214 c 1
 918 214 895 214 872 214 c 1
 858 142.667 844 71.3333 830 0 c 1
 783.333 -0 736.667 0 690 0 c 1
 703.667 71 717.333 142 731 213 c 1
 649.333 212.333 567.667 211.667 486 211 c 1
 475.667 242 465.333 273 455 304 c 1
-6 85 m 1
 529 700 l 0
 959 1382 l 1
 1016.33 1348 1073.67 1314 1131 1280 c 1
 616 649 l 0
 165 -32 l 1
 108 7 51 46 -6 85 c 1
EndSplineSet
Validated: 1
EndChar

StartChar: onehalf
Encoding: 189 189 202
Width: 1060
VWidth: 0
Flags: W
HStem: -20 21G<124.5 166.216> 6 114<677 929.75> 589 112<732.349 884.484> 1039 21G<236.5 282> 1356 20G<467 489.667>
VStem: 580 136<466 571.617> 887 133<427.844 583.145>
LayerCount: 2
Fore
SplineSet
470 1376 m 1
 509.333 1368 548.667 1360 588 1352 c 1
 543.333 1123.33 498.667 894.667 454 666 c 1
 410.667 666 367.333 666 324 666 c 1
 357 837 390 1008 423 1179 c 1
 380 1134 319 1078 245 1039 c 5
 228 1077 211 1115 194 1153 c 1
 365 1235 464 1368 470 1376 c 1
716 466 m 1
 670.667 458.667 625.333 451.333 580 444 c 1
 578 459 577.615 484.077 581 503 c 0
 581.897 508.016 582.104 512.98 583 517 c 0
 605.588 618.353 696 701 831 701 c 0
 952 701 1020 658 1020 556 c 0
 1020 538 1018 519 1014 498 c 0
 994 393 920 337 869 292 c 1
 834 263 683 150 677 120 c 1
 767.667 120 858.333 120 949 120 c 1
 941.667 82 934.333 44 927 6 c 1
 776 6 625 6 474 6 c 1
 477 22 479.59 39.0878 483 57 c 0
 485.676 71.0541 488.229 84.9163 494 100 c 0
 513.776 151.69 566.611 205.497 634 259 c 0
 711.544 320.565 865.904 408.019 884 499 c 0
 885.989 509.002 887 519 887 527 c 0
 887 570 862 589 817 589 c 0
 778 589 729.059 564.756 718 512 c 0
 715.264 498.95 713 484 716 466 c 1
-18 97 m 1
 517 712 l 0
 947 1394 l 1
 1004.33 1360 1061.67 1326 1119 1292 c 1
 603 661 l 0
 153 -20 l 1
 96 19 39 58 -18 97 c 1
EndSplineSet
Validated: 1
EndChar

StartChar: threequarters
Encoding: 190 190 203
Width: 1060
VWidth: 0
Flags: W
HStem: 0 21G<136.5 178.245 690 837> 214 115<615 731 894 941> 651 115<227.494 393.771> 999 108<296 388.713> 1270 107<302.947 452.148>
VStem: 88 136<770.981 844> 427 140<798.521 971.36> 457 141<1140.73 1266.49>
LayerCount: 2
Fore
SplineSet
754 329 m 1xfc
 765.333 388 776.667 447 788 506 c 1
 734 436 669 375 615 328 c 1
 661.333 328.333 707.667 328.667 754 329 c 1xfc
455 304 m 1
 478 329 762 567 833 712 c 1
 878.333 712.333 923.667 712.667 969 713 c 1
 944 585 919 457 894 329 c 1
 917 329 940 329 963 329 c 1
 955.667 290.667 948.333 252.333 941 214 c 1
 918 214 895 214 872 214 c 1
 858 142.667 844 71.3333 830 0 c 1
 783.333 -0 736.667 0 690 0 c 1
 703.667 71 717.333 142 731 213 c 1
 649.333 212.333 567.667 211.667 486 211 c 1
 475.667 242 465.333 273 455 304 c 1
92 844 m 5
 136.667 844 181.333 844 226 844 c 5
 225 837 224 830 224 824 c 0
 224 777 263 766 301 766 c 4
 365 766 414.73 816.878 424 868 c 4
 426.17 879.967 427 891 427 900 c 0xfe
 427 937 409.865 953.827 390 969 c 4
 362.82 989.76 318 999 275 999 c 5
 282 1035 289 1071 296 1107 c 5
 298.667 1107 301.333 1107 304 1107 c 5
 373 1107 440.353 1139.41 456 1209 c 4
 456.904 1213.02 457 1217 457 1221 c 0
 457 1251 433 1270 389 1270 c 4
 331 1270 290 1211 276 1192 c 5
 244 1216.67 212 1241.33 180 1266 c 5
 185 1274 256 1377 406 1377 c 5
 408 1377 410 1377 412 1377 c 5
 524 1377 598 1347 598 1257 c 0xfd
 598 1245 596.825 1232.03 594 1218 c 4
 580.146 1149.18 511 1072 456 1062 c 5
 532 1036 567 984 567 915 c 0xfe
 567 900 565.096 883.981 562 868 c 4
 547.453 792.915 520.941 754.07 470 711 c 4
 423.947 672.063 360 651 275 651 c 4
 145 651 88 713 88 800 c 0
 88 814 89 829 92 844 c 5
-6 85 m 1
 529 700 l 0
 959 1382 l 1
 1016.33 1348 1073.67 1314 1131 1280 c 1
 616 649 l 0
 165 -32 l 1
 108 7 51 46 -6 85 c 1
EndSplineSet
Validated: 1
EndChar

StartChar: Thorn
Encoding: 222 222 204
Width: 1060
VWidth: 0
Flags: W
HStem: -10 21G<235.333 292.5> 439 208<405 705.573> 988 211<514 761.913> 1308 20G<487 534.833>
VStem: 803 271<736.057 949.973>
LayerCount: 2
Fore
SplineSet
800 829 m 0
 802.063 839.988 803 850 803 860 c 0
 803 956 706 988 632 988 c 0
 623 988 l 1
 562 988 517 984 472 983 c 1
 467.333 959.333 462.667 935.667 458 912 c 1
 422 725 405 649 405 649 c 1
 441 648 476 647 509 647 c 0
 625 647 769.924 668.832 800 829 c 0
277 -10 m 1
 193.667 -9.66667 110.333 -9.33333 27 -9 c 1
 113.333 434 199.667 877 286 1320 c 1
 392 1320 435 1327 539 1328 c 1
 530.667 1285 522.333 1242 514 1199 c 1
 551 1199 l 0
 776 1199 944.096 1186.06 1032 1045 c 0
 1060.03 1000.02 1074 966 1074 919 c 0
 1074 897 1070.81 873.037 1065 844 c 0
 1023.64 637.281 862 439 518 439 c 0
 470 439 419 440 365 442 c 1
 313 174 308 149 277 -10 c 1
EndSplineSet
Validated: 1
EndChar

StartChar: eth
Encoding: 240 240 205
Width: 1060
VWidth: 6
Flags: W
HStem: 1 210<355.598 590.399>
VStem: 62 254<249.134 613.144> 759 254<417.781 782.674>
LayerCount: 2
Fore
SplineSet
686 825 m 1
 440 825 355.426 651.109 327 504 c 0
 319.856 467.028 316 429 316 394 c 0
 316 294 350 211 450 211 c 0
 620 211 707.88 333.023 748 540 c 0
 754.979 576.004 759 608 759 636 c 0
 759 705 736 757 686 825 c 1
482 1258 m 1
 467 1292 421 1323 420 1331 c 1
 500.333 1368.67 580.667 1406.33 661 1444 c 1
 683 1404 716 1363 737 1328 c 1
 841.667 1359.33 946.333 1390.67 1051 1422 c 1
 1057.33 1354.67 1063.67 1287.33 1070 1220 c 1
 984.333 1207 898.667 1194 813 1181 c 1
 925 1005 1013 863 1013 672 c 0
 1013 630 1009.09 585.983 1000 539 c 0
 934.616 200.882 731 1 409 1 c 1
 408.333 1 407.667 1 407 1 c 1
 179 2 62 158 62 374 c 0
 62 416 66.1362 458.974 75 504 c 0
 112.577 694.885 247 994 620 1018 c 1
 614 1029 592 1071 569 1101 c 1
 471 1072 402 1041 316 1012 c 1
 309.333 1079.33 302.667 1146.67 296 1214 c 1
 296 1214 417 1236 482 1258 c 1
EndSplineSet
Validated: 1
EndChar

StartChar: thorn
Encoding: 254 254 206
Width: 1060
VWidth: -2
Flags: W
HStem: -8 201<383.967 600.63> 811 200<500.127 718.401> 1291 20G<451.167 491>
VStem: -38 249<-398 -118.344> 257 237<999.859 1286.22> 737 260<442.422 798.521>
LayerCount: 2
Fore
SplineSet
173 739 m 1
 193.333 844 213.667 949 234 1054 c 1
 250 1137 254 1220 257 1285 c 1
 334.667 1293.67 412.333 1302.33 490 1311 c 1
 492 1297 494 1279 494 1259 c 0
 494 1244 493 1228 490 1211 c 0
 472.898 1114.09 452.658 1017.62 434 921 c 1
 502 983 592 1011 704 1011 c 0
 918 1011 997 895 997 717 c 0
 997 666 990.717 610.055 979 551 c 0
 912.397 215.326 797 -8 435 -8 c 0
 335 -8 296 29 273 60 c 1
 269 20 269 -17 263 -61 c 1
 257 -91.3333 251 -121.667 245 -152 c 1
 227 -246 217 -330 211 -398 c 1
 128 -400.333 45 -402.667 -38 -405 c 1
 -33 -332 -19 -237 -1 -146 c 1
 57 149 115 444 173 739 c 1
719 531 m 0
 731.036 592.993 737 643 737 684 c 0
 737 771 709 811 649 811 c 0
 520 811 463 744 401 656 c 1
 379 541 357 426 335 311 c 1
 362 253 405 193 480 193 c 0
 595 193 667.155 263.97 719 531 c 0
EndSplineSet
Validated: 1
EndChar

StartChar: Aogonek
Encoding: 260 260 209
Width: 1060
VWidth: 32
Flags: W
HStem: -501 196<533.644 769.515> 0 21G<-69 196.5> 281 223<409.995 673> 1305 20G<505.5 845.5>
VStem: 277 256<-381 -180.691> 686 273<82.375 281>
LayerCount: 2
Fore
SplineSet
953 0 m 1
 694 -100 560.75 -145.25 534 -248 c 0
 533.207 -251.039 533 -253 533 -256 c 0
 533 -293 583 -305 643 -305 c 0
 701 -305 747 -276 781 -254 c 1
 813 -301 845 -348 877 -395 c 1
 824 -443 695 -501 595 -501 c 0
 430 -501 277 -455 277 -307 c 0
 277 -292 278.746 -274.95 282 -257 c 0
 318.162 -57.527 567 -12 685 82 c 1
 686 90 686 98 686 106 c 0
 686 127 684 147 682 167 c 1
 679 205 676 243 673 281 c 1
 520 278 436 282 310 252 c 1
 294 222 278 192 262 162 c 1
 230 101 202 43 191 0 c 1
 104.333 -0 17.6667 0 -69 0 c 1
 -53 61 -14 143 28 223 c 1
 219 590.333 410 957.667 601 1325 c 1
 675.667 1325 750.333 1325 825 1325 c 1
 866 964.667 907 604.333 948 244 c 1
 953 194 959 144 959 93 c 0
 959 62 957 32 951 2 c 1
 951.667 1.33333 952.333 0.666667 953 0 c 1
674 504 m 1
 674 511 l 0
 674 625 636 773 636 905 c 0
 636 937 638 968 644 998 c 1
 605 830 472 625 407 486 c 1
 470 499 590 499 674 504 c 1
EndSplineSet
Validated: 1
EndChar

StartChar: aogonek
Encoding: 261 261 210
Width: 1060
VWidth: 32
Flags: W
HStem: -502 196<463.917 695.812> -11 200<296.489 524.03> 470 200<357.281 614.996> 820 208<400.93 656.788>
VStem: 25 258<203.885 397.367> 204 256<-382 -194.644> 694 252<623 784.924>
LayerCount: 2
Fore
SplineSet
286 317 m 0xfa
 283.86 305.027 283 294 283 284 c 0
 283 212 338 189 394 189 c 0
 504 189 605 291 634 347 c 1
 637.333 362.667 640.667 378.333 644 394 c 1
 616 436 554 470 490 470 c 0
 424 470 305.703 427.216 286 317 c 0xfa
666 101 m 1
 575 23 486 -11 304 -11 c 0
 151 -11 25 94 25 246 c 0xfa
 25 264 26.1985 282.963 30 302 c 0
 47.9324 391.804 93.8549 479.17 165 540 c 0
 278.767 637.271 387 670 529 670 c 0
 593 670 655 649 688 623 c 1
 692 643 694 661 694 678 c 0
 694 796 603 820 550 820 c 0
 435 820 365 760 296 683 c 1
 237.667 719.667 179.333 756.333 121 793 c 1
 252 975 420 1025 599 1028 c 1
 798 1028 946 923 946 734 c 0
 946 709 943 683 938 655 c 1
 916 542 894 429 872 316 c 1
 867 288 864 264 864 242 c 0
 864 193 879 158 912 127 c 1
 672 -162 487.3 -149.1 461 -249 c 0
 460.198 -252.039 460 -254 460 -257 c 0
 460 -294 510 -306 570 -306 c 0
 628 -306 673 -277 707 -255 c 1
 739.333 -302 771.667 -349 804 -396 c 1
 751 -444 621 -502 521 -502 c 0
 356 -502 204 -456 204 -308 c 0xf6
 204 -292 205.241 -276.047 209 -258 c 0
 246.382 -78.5294 636 -51 666 101 c 1
EndSplineSet
Validated: 1
EndChar

StartChar: dcaron
Encoding: 271 271 211
Width: 1060
VWidth: 32
Flags: W
HStem: -7 180<304.824 473.881> 813 200<419.761 603.807>
VStem: 40 244<190.833 564.268> 558 210<7 92.6226> 806 230<1237.95 1403>
LayerCount: 2
Fore
SplineSet
302 478 m 4
 290.082 416.984 284 365 284 321 c 0
 284 227 313 173 382 173 c 4
 439 173 519 247 587 349 c 5
 608.667 460.333 630.333 571.667 652 683 c 5
 632 738 589 813 521 813 c 4
 435 813 353.355 740.93 302 478 c 4
59 459 m 4
 134.058 839.788 281 1013 528 1013 c 4
 635 1013 692 958 722 930 c 5
 722 957 l 0
 722 1021 727.699 1073.06 743 1152 c 4
 760.652 1243.07 784 1339 806 1412 c 5
 882.667 1409 959.333 1406 1036 1403 c 5
 1016 1335 993.062 1250.99 975 1157 c 4
 921.185 876.965 854.706 514.324 800 267 c 4
 798.221 258.957 796.779 251.043 795 243 c 4
 776.765 160.559 772 73 768 7 c 5
 705.333 0.333333 642.667 -6.33333 580 -13 c 5
 580 -13 558 37 558 77 c 0
 558 83 558 88 559 93 c 5
 513 40 430 -7 314 -7 c 4
 129 -7 40 92 40 284 c 0
 40 336 46.1808 393.965 59 459 c 4
1293 1364 m 1
 1241 1249 1199 1138 1134 984 c 1
 1087 995.333 1040 1006.67 993 1018 c 1
 1035 1163 1084 1307 1120 1412 c 1
 1177.67 1396 1235.33 1380 1293 1364 c 1
EndSplineSet
Validated: 1
EndChar

StartChar: Dcroat
Encoding: 272 272 212
Width: 1060
VWidth: 0
Flags: W
HStem: -10 205<287 551.549> 732 210<114 143 436 651> 1127 204<464.259 671.305>
VStem: 762 264<478.979 1030.94>
LayerCount: 2
Fore
SplineSet
547 1127 m 1
 537 1127 527 1127 517 1127 c 1
 501 1127 489 1127 471 1124 c 1
 467 1098 462.023 1068 456 1037 c 0
 448.031 995.994 442 973 436 942 c 1
 520.667 942 605.333 942 690 942 c 1
 677 872.333 664 802.667 651 733 c 1
 565.667 732.667 480.333 732.333 395 732 c 1
 347 488 304 280 287 198 c 1
 374 195 326 195 386 195 c 0
 389 195 l 0
 429 195 572.616 197.239 669 353 c 0
 696.888 398.069 722.052 488.99 733 544 c 0
 753.096 644.981 762 734 762 810 c 0
 762 1018 689 1127 547 1127 c 1
184 942 m 1
 186.333 953.667 188.667 965.333 191 977 c 1
 216 1106 236 1229 244 1317 c 1
 327 1325 373 1331 472 1331 c 0
 743 1331 883 1249 970 1066 c 1
 1007 986 1026 885 1026 776 c 0
 1026 713 1019.73 646.051 1007 580 c 0
 993.716 511.056 972.007 441.997 946 376 c 0
 851.026 134.99 666.029 13.6723 483 -3 c 0
 427.009 -8.10023 376 -10 321 -10 c 0
 237 -10 105 -3 -9 -3 c 1
 -2 31 -2 30 20 128 c 1
 29 174 88 454 143 732 c 1
 119.667 732 96.3333 732 73 732 c 1
 86.6667 802 100.333 872 114 942 c 1
 137.333 942 160.667 942 184 942 c 1
EndSplineSet
Validated: 1
EndChar

StartChar: dcroat
Encoding: 273 273 213
Width: 1060
VWidth: -2
Flags: W
HStem: -7 180<373.737 551.89> 813 200<491.475 684.294> 1093 194<574 816 1104 1107>
VStem: 89 259<195.099 564.32>
LayerCount: 2
Fore
SplineSet
366 478 m 0
 354.881 420.023 348 369 348 326 c 0
 348 229 380 173 455 173 c 0
 516 173 600 247 671 349 c 1
 692.667 460.333 714.333 571.667 736 683 c 1
 714 738 667 813 595 813 c 0
 503 813 416.459 741.103 366 478 c 0
107 459 m 0
 180.876 840.024 337 1013 600 1013 c 0
 714 1013 776 958 808 930 c 1
 808 944 807 957 807 970 c 0
 807 1011 810 1049 816 1093 c 1
 722.667 1093 629.333 1093 536 1093 c 1
 548.667 1157.67 561.333 1222.33 574 1287 c 1
 668.333 1287 762.667 1287 857 1287 c 1
 868 1332 879 1375 891 1412 c 1
 973.333 1409 1055.67 1406 1138 1403 c 1
 1127 1368 1115 1329 1104 1287 c 1
 1117.67 1287 1131.33 1287 1145 1287 c 1
 1132.33 1222.33 1119.67 1157.67 1107 1093 c 1
 1092 1093 1077 1093 1062 1093 c 1
 1010 824 951.882 495.529 901 267 c 0
 899.209 258.959 897.779 251.043 896 243 c 0
 877.765 160.559 872 73 869 7 c 1
 802.333 0.333333 735.667 -6.33333 669 -13 c 1
 669 -13 644 37 644 78 c 0
 644 83 644 88 645 93 c 1
 597 40 509 -7 385 -7 c 0
 185 -7 89 94 89 291 c 0
 89 341 94.9798 397.004 107 459 c 0
EndSplineSet
Validated: 1
EndChar

StartChar: Eogonek
Encoding: 280 280 218
Width: 1060
VWidth: 32
Flags: W
HStem: -501 195<442.644 678.027> 0 204<323 487> 646 203<450 749> 1118 205<502 1033.5>
VStem: 186 256<-381 -183.454>
LayerCount: 2
Fore
SplineSet
283 1319 m 1
 340 1323 410 1323 488 1323 c 0
 586 1323 l 1
 622.667 1323 659.333 1323 696 1323 c 1
 845 1323 981 1320 1055 1320 c 1
 1060.33 1320 1065.67 1320 1071 1320 c 1
 1057.67 1252.67 1044.33 1185.33 1031 1118 c 1
 854.667 1118 678.333 1118 502 1118 c 1
 484.667 1028.33 467.333 938.667 450 849 c 1
 562.667 849 675.333 849 788 849 c 1
 775 781.333 762 713.667 749 646 c 1
 636.333 646 523.667 646 411 646 c 1
 409 635.667 407 625.333 405 615 c 1
 365 408 338 283 323 204 c 1
 461.667 204.667 600.333 205.333 739 206 c 1
 795 206 869 233 869 233 c 1
 880.333 166.667 891.667 100.333 903 34 c 1
 595 -126 469.3 -149.1 443 -249 c 0
 442.198 -252.039 442 -254 442 -257 c 0
 442 -294 492 -306 552 -306 c 0
 610 -306 655 -277 689 -255 c 1
 721.333 -302 753.667 -349 786 -396 c 1
 733 -444 604 -501 504 -501 c 0
 339 -501 186 -455 186 -307 c 0
 186 -292 187.712 -274.942 191 -257 c 0
 213.973 -131.662 315 -89 487 0 c 1
 333.667 -0 180.333 0 27 0 c 1
 112.333 439.667 197.667 879.333 283 1319 c 1
EndSplineSet
Validated: 1
EndChar

StartChar: eogonek
Encoding: 281 281 219
Width: 1060
VWidth: 32
Flags: W
HStem: -502 196<401.917 633.812> 434 196<408.871 726.981> 818 203<482.25 697.997>
VStem: 86 251<236.674 401.759> 142 256<-382 -187.516> 727 250<630.356 790.713>
LayerCount: 2
Fore
SplineSet
379 606 m 1xe4
 496 626 590 630 723 630 c 1
 726 647 727 663 727 678 c 0
 727 775 672 818 595 818 c 0
 493 818 408 722 379 606 c 1xe4
632 1021 m 0
 880 1021 977 894 977 680 c 0
 977 619 969.385 550.923 955 477 c 0
 951.104 456.98 945 434 945 434 c 1
 659 430 444 416 338 396 c 1
 338 390 337 383 337 377 c 0xf4
 337 275 384 196 471 196 c 0
 577 196 614 205 692 294 c 1
 750.333 251.333 808.667 208.667 867 166 c 1
 679 -61 426.6 -144.2 399 -249 c 0
 398.198 -252.039 398 -254 398 -257 c 0
 398 -294 448 -306 508 -306 c 0
 566 -306 611 -277 645 -255 c 1
 677.333 -302 709.667 -349 742 -396 c 1
 689 -444 559 -502 459 -502 c 0
 294 -502 142 -456 142 -308 c 0xec
 142 -292 143.208 -276.041 147 -258 c 0
 170.271 -147.282 290 -95 420 -10 c 1
 191 -8 86 132 86 350 c 0xf4
 86 401 91.734 457.052 103 516 c 0
 157.706 802.241 349 1021 632 1021 c 0
EndSplineSet
Validated: 1
EndChar

StartChar: Hbar
Encoding: 294 294 232
Width: 1060
VWidth: 0
Flags: W
HStem: 0 21G<-15 261 600 887.167> 599 215<398.475 716> 991 207<158 178 475 793 1088 1130.5> 1302 20G<456.167 495>
LayerCount: 2
Fore
SplineSet
218 1198 m 1
 226 1238.67 234 1279.33 242 1320 c 1
 327.667 1320.67 413.333 1321.33 499 1322 c 1
 491 1280.67 483 1239.33 475 1198 c 1
 594 1198 713 1198 832 1198 c 1
 839 1234 846 1271 855 1317 c 1
 940.333 1317 1025.67 1317 1111 1317 c 1
 1103.33 1277.33 1095.67 1237.67 1088 1198 c 1
 1114.67 1198 1141.33 1198 1168 1198 c 1
 1154.67 1129 1141.33 1060 1128 991 c 1
 1101.33 991 1074.67 991 1048 991 c 1
 983.667 660.667 919.333 330.333 855 0 c 1
 770 -0 685 0 600 0 c 1
 638.667 199.667 677.333 399.333 716 599 c 1
 705.333 599 694.667 599 684 599 c 1
 538 599 475 596 352 570 c 1
 284 220 279 185 243 0 c 1
 157 -0 71 0 -15 0 c 1
 49.3333 330.333 113.667 660.667 178 991 c 1
 158 991 138 991 118 991 c 1
 131.333 1060 144.667 1129 158 1198 c 1
 178 1198 198 1198 218 1198 c 1
793 991 m 1
 673.333 991 553.667 991 434 991 c 1
 420.667 922.333 407.333 853.667 394 785 c 1
 490 806 551 814 671 814 c 1
 700 814 729 814 758 814 c 1
 772 886 784 943 793 991 c 1
EndSplineSet
Validated: 1
EndChar

StartChar: hbar
Encoding: 295 295 233
Width: 1060
VWidth: -2
Flags: W
HStem: -11 11G<65 333.167 686 730.667> 812 200<533.755 748.18> 1114 207<182 283 564 856>
VStem: 315 249<1321 1402> 674 248<17.0521 338.023> 769 255<425.82 791.26>
LayerCount: 2
Fore
SplineSet
1007 566 m 1xf4
 984.333 450 961.667 334 939 218 c 1
 929 166 922 116 922 77 c 0
 922 55 924 36 929 22 c 1
 849.667 4 770.333 -14 691 -32 c 1
 681 -14 674 16 674 59 c 0xf8
 674 91 678 129 687 176 c 1
 707.333 281 727.667 386 748 491 c 1
 763 566 769 623 769 667 c 0
 769 805 707 812 637 812 c 0
 565 812 488 737 444 682 c 1
 399.667 454.667 355.333 227.333 311 0 c 1
 229 -0 147 0 65 0 c 1
 137.667 371.333 210.333 742.667 283 1114 c 1
 236 1114 189 1114 142 1114 c 1
 155.333 1183 168.667 1252 182 1321 c 1
 226.333 1321 270.667 1321 315 1321 c 1
 318 1350 322 1377 324 1402 c 1
 407 1405 490 1408 573 1411 c 1
 571 1384 568 1353 564 1321 c 1
 674.667 1321 785.333 1321 896 1321 c 1
 882.667 1252 869.333 1183 856 1114 c 1
 747 1114 638 1114 529 1114 c 1
 514 1045 498 995 470 929 c 1
 512 957 596 1012 710 1012 c 0
 914 1012 1024 930 1024 725 c 0
 1024 678 1019 626 1007 566 c 1xf4
EndSplineSet
Validated: 1
EndChar

StartChar: Iogonek
Encoding: 302 302 240
Width: 1060
VWidth: 32
Flags: W
HStem: -500 196<364.644 600.515> 4 214<100 333 641.961 774> 1112 212<314 509 765 994>
VStem: 108 256<-380 -171.686>
LayerCount: 2
Fore
SplineSet
314 1324 m 1
 471 1328 572 1329 668 1329 c 0
 773 1329 873 1328 1036 1326 c 1
 1022 1255.67 1008 1185.33 994 1115 c 1
 871 1115 860 1120 765 1120 c 1
 706.667 819.667 648.333 519.333 590 219 c 1
 636 219 621 220 672 220 c 0
 717 220 764 219 815 216 c 1
 801.333 143.667 787.667 71.3333 774 -1 c 1
 514 -66 391.3 -147.1 365 -247 c 0
 364.198 -250.039 364 -252 364 -255 c 0
 364 -292 414 -304 474 -304 c 0
 532 -304 578 -275 612 -253 c 1
 644 -300 676 -347 708 -394 c 1
 655 -442 526 -500 426 -500 c 0
 261 -500 108 -454 108 -306 c 0
 108 -291 109.769 -273.955 113 -256 c 0
 134.459 -136.743 226 -77 390 4 c 1
 315 3 200 -3 58 -3 c 1
 72 69 86 141 100 213 c 1
 186 217 224 218 281 218 c 1
 298.333 218 315.667 218 333 218 c 1
 391.667 518.333 450.333 818.667 509 1119 c 1
 443 1118 386 1118 279 1112 c 1
 290.667 1182.67 302.333 1253.33 314 1324 c 1
EndSplineSet
Validated: 1
EndChar

StartChar: iogonek
Encoding: 303 303 241
Width: 1060
VWidth: 32
Flags: W
HStem: -501 195<503.77 738.661> 813 200<209.635 437> 1181 225<527 775>
VStem: 247 256<-381 -169.81> 312 272<119.5 398.462>
LayerCount: 2
Fore
SplineSet
527 1406 m 1xe0
 624 1406 721 1406 818 1406 c 1
 803.667 1331 789.333 1256 775 1181 c 1
 678 1181 581 1181 484 1181 c 1
 498.333 1256 512.667 1331 527 1406 c 1xe0
476 1013 m 1
 561 1013 646 1013 731 1013 c 1
 678 740 588 274 588 274 c 2
 585.503 261.096 584 249 584 239 c 0xe8
 584 200 606 182 679 182 c 0
 772 182 839 215 910 273 c 1
 930 209.667 950 146.333 970 83 c 1
 968 81 964.986 79.0206 962 77 c 0
 663.615 -124.922 515.5 -130 504 -248 c 0
 503.812 -249.963 503 -253 503 -255 c 0
 503 -289 553 -306 613 -306 c 0
 671 -306 717 -276 751 -254 c 1
 783 -301.333 815 -348.667 847 -396 c 1
 794 -444 665 -501 565 -501 c 0
 400 -501 247 -455 247 -307 c 0xf0
 247 -292 248.742 -274.949 252 -257 c 0
 272.378 -144.73 369 -96 512 -14 c 1
 454 -8 403.996 2.99283 376 20 c 0
 324.992 50.9869 312 97 312 142 c 0xe8
 312 164 315 186 319 206 c 1
 358.333 408.333 397.667 610.667 437 813 c 1
 388 813 297 807 198 785 c 1
 200.333 847 202.667 909 205 971 c 1
 304 999 396 1013 476 1013 c 1
EndSplineSet
Validated: 1
EndChar

StartChar: IJ
Encoding: 306 306 243
Width: 1060
VWidth: 0
Flags: W
HStem: 0 212<-23 60 317 331.204 562.871 742.883> 1108 216<192 234.719 492.875 549.944 713.081 886.241 1122 1196.06> 1119 210<192 236 489.404 547.125>
VStem: 409 238<215.402 432.253> 887 235<639.033 1103.1>
LayerCount: 2
Fore
SplineSet
656 0 m 0xd8
 473 0 409 130 409 292 c 0
 409 338 414 386 423 435 c 1
 501.333 434.667 579.667 434.333 658 434 c 1
 651 387 647 348 647 316 c 0
 647 245 664 212 691 212 c 0
 752 212 781.102 302.794 845 639 c 0
 859.245 713.953 887 906 887 1027 c 0
 887 1058 886 1085 881 1104 c 1
 832 1104 837 1108 809 1108 c 1
 730 1105 719 1096 698 1090 c 1
 702.667 1160.67 707.333 1231.33 712 1302 c 1
 735 1309 761 1321 850 1324 c 1
 959 1324 1121 1323 1238 1323 c 1
 1223.33 1250.67 1208.67 1178.33 1194 1106 c 1
 1158 1106 1172 1107 1122 1107 c 1
 1122 988 1109.84 750.031 1088 639 c 0
 1013.46 260.107 926 0 656 0 c 0xd8
192 1324 m 1
 279 1328 334 1329 387 1329 c 0
 445 1329 499 1328 589 1326 c 1
 575.333 1255.67 561.667 1185.33 548 1115 c 1
 529.333 1116.67 510.667 1118.33 492 1120 c 1
 433.667 820 375.333 520 317 220 c 1
 335 218.667 353 217.333 371 216 c 1
 357 143.667 343 71.3333 329 -1 c 1
 283 4 250 5 215 5 c 0
 189 5 162 4 130 4 c 0
 89 4 20 -3 -65 -3 c 1
 -51 69 -37 141 -23 213 c 1
 16 216 37 218 60 218 c 1
 118.667 518.333 177.333 818.667 236 1119 c 1xb8
 208.667 1116.67 181.333 1114.33 154 1112 c 1
 166.667 1182.67 179.333 1253.33 192 1324 c 1
EndSplineSet
Validated: 1
EndChar

StartChar: ij
Encoding: 307 307 244
Width: 1060
VWidth: 0
Flags: W
HStem: -390 202<300.428 603.594> -18 200<345 546.669> 794 186<121 250.609 647 817.304> 813 200<125.562 251 651.592 819> 1181 225<342 591 892 1141.69>
VStem: 126 268<120.5 398.352>
LayerCount: 2
Fore
SplineSet
290 1013 m 1xdc
 375.333 1013 460.667 1013 546 1013 c 1
 498 766.667 450 520.333 402 274 c 1
 398 251 394 232 394 218 c 0
 394 193 405 182 443 182 c 0
 503 182 515 184 564 242 c 1
 583.667 189 603.333 136 623 83 c 1
 554 12 451 -18 372 -18 c 0
 318 -18 229.894 -4.16883 191 20 c 0
 139.863 51.7768 126 98 126 143 c 0
 126 165 129 187 133 206 c 1
 172.333 408.333 211.667 610.667 251 813 c 1
 226 813 l 0xdc
 202 813 193 811 115 794 c 1
 117 856 119 918 121 980 c 1xec
 220 1008 210 1013 290 1013 c 1xdc
900 -78 m 1
 870 -231 757 -389 471 -389 c 3
 445 -389 419 -390 393 -390 c 0
 298 -390 198 -376 26 -244 c 1
 87 -186 148 -128 209 -70 c 1
 314 -186 418 -188 482 -188 c 0
 488 -188 l 0
 506 -188 l 3
 626 -188 643 -83 652 -48 c 1
 707.667 239 763.333 526 819 813 c 1
 789 813 l 0xdc
 754 813 719 811 641 794 c 1
 643 856 645 918 647 980 c 1xec
 746 1008 778 1013 858 1013 c 1
 942.667 1013 1027.33 1013 1112 1013 c 1
 1041.33 649.333 970.667 285.667 900 -78 c 1
892 1406 m 1
 988.667 1406 1085.33 1406 1182 1406 c 1
 1167.67 1331 1153.33 1256 1139 1181 c 1
 1042.33 1181 945.667 1181 849 1181 c 1
 863.333 1256 877.667 1331 892 1406 c 1
342 1406 m 1
 439.333 1406 536.667 1406 634 1406 c 1
 619.667 1331 605.333 1256 591 1181 c 1
 493.667 1181 396.333 1181 299 1181 c 1
 313.333 1256 327.667 1331 342 1406 c 1
EndSplineSet
Validated: 1
EndChar

StartChar: Lcaron
Encoding: 317 317 254
Width: 1060
VWidth: 32
Flags: W
HStem: -3 210<376 919.823> 1291 20G<744 870.919> 1305 20<296.833 594>
LayerCount: 2
Fore
SplineSet
972 1274 m 1xc0
 942 1159 922 1048 887 894 c 1
 701 916 l 1
 715 1061 736 1206 752 1311 c 1
 972 1274 l 1xc0
EndSplineSet
Refer: 35 76 N 1 0 0 1 0 0 2
Validated: 1
EndChar

StartChar: lcaron
Encoding: 318 318 255
Width: 1060
VWidth: 32
Flags: W
HStem: -18 215<489.04 818.08>
VStem: 186 265<236.501 560.039>
LayerCount: 2
Fore
SplineSet
1019 1393 m 1
 989 1278 969 1167 934 1013 c 1
 748 1035 l 1
 762 1180 783 1325 799 1430 c 1
 1019 1393 l 1
EndSplineSet
Refer: 12 108 N 1 0 0 1 0 0 2
Validated: 1
EndChar

StartChar: Lslash
Encoding: 321 321 258
Width: 1060
VWidth: 0
Flags: W
HStem: -3 210<486 919.823> 999 20G<833.333 886.833> 1305 20G<431.667 704>
LayerCount: 2
Fore
SplineSet
292 513 m 1
 243.333 489.667 194.667 466.333 146 443 c 1
 124.333 507.667 102.667 572.333 81 637 c 1
 167.333 678.667 253.667 720.333 340 762 c 1
 376.667 949.667 413.333 1137.33 450 1325 c 1
 534.667 1325 619.333 1325 704 1325 c 1
 676 1182 648 1039 620 896 c 1
 705.333 937 790.667 978 876 1019 c 1
 897.667 954 919.333 889 941 824 c 1
 818 765 695 706 572 647 c 1
 543.333 500.333 514.667 353.667 486 207 c 1
 592 207 698 207 804 207 c 1
 864 210 875 213 922 228 c 1
 933.333 162.333 944.667 96.6667 956 31 c 1
 906 15 840 -3 765 -3 c 1
 573.667 -3 382.333 -3 191 -3 c 1
 224.667 169 258.333 341 292 513 c 1
EndSplineSet
Validated: 1
EndChar

StartChar: lslash
Encoding: 322 322 259
Width: 1060
VWidth: -2
Flags: W
HStem: -18 200<574.904 833.134> 1230 200<279.636 508>
VStem: 302 272<119.5 397.503>
LayerCount: 2
Fore
SplineSet
547 1430 m 1
 631.667 1430 716.333 1430 801 1430 c 1
 782 1334 750 1162 714 979 c 1
 801.667 1021 889.333 1063 977 1105 c 1
 998.667 1040 1020.33 975 1042 910 c 1
 916.667 850 791.333 790 666 730 c 1
 618 484 578 274 578 274 c 2
 575.288 259.945 574 248 574 238 c 0
 574 199 595 182 668 182 c 0
 761 182 828 215 899 273 c 1
 919 209.667 939 146.333 959 83 c 1
 859 12 703 -18 579 -18 c 0
 494 -18 405.065 -3.89262 366 20 c 0
 315.086 51.1395 302 97 302 142 c 0
 302 164 305 186 309 206 c 1
 334.333 335.667 359.667 465.333 385 595 c 1
 339.333 573 293.667 551 248 529 c 1
 226.333 593.667 204.667 658.333 183 723 c 1
 266.333 763 349.667 803 433 843 c 1
 458 972 483 1101 508 1230 c 1
 459 1230 367 1224 268 1202 c 1
 270.333 1264 272.667 1326 275 1388 c 1
 374 1416 467 1430 547 1430 c 1
EndSplineSet
Validated: 1
EndChar

StartChar: Eng
Encoding: 330 330 266
Width: 1060
VWidth: 0
Flags: W
HStem: -396 222<282 507.402> -3 21G<33.5 41.3333> 1087 209<569.704 784.503>
VStem: 216 220<1147 1266.64> 805 248<784.738 1063.34>
LayerCount: 2
Fore
SplineSet
717 1296 m 1
 956 1296 1053 1164 1053 982 c 0
 1053 943 1048.09 901.983 1040 860 c 0
 995.482 628.908 955 400 909 165 c 1
 906.667 153.667 904.333 142.333 902 131 c 1
 852 -125 773 -396 273 -396 c 1
 261.667 -396 250.333 -396 239 -396 c 1
 253.333 -322 267.667 -248 282 -174 c 1
 567 -174 614 -58 646 106 c 1
 694.333 354.667 742.667 603.333 791 852 c 1
 800 898 805 935 805 966 c 0
 805 1058 763 1087 674 1087 c 0
 569 1087 471 938 422 870 c 1
 365.667 580 309.333 290 253 0 c 1
 168.333 -1 83.6667 -2 -1 -3 c 1
 68 351 137 705 206 1059 c 1
 213 1097 216 1132 216 1162 c 0
 216 1221 206 1259 206 1259 c 1
 277.333 1279 348.667 1299 420 1319 c 1
 428 1290 436 1265 436 1222 c 0
 436 1207 435 1190 433 1171 c 1
 523 1246 601 1296 717 1296 c 1
EndSplineSet
Validated: 1
EndChar

StartChar: eng
Encoding: 331 331 267
Width: 1060
VWidth: 6
Flags: W
HStem: -407 219<302 433.487> 0 21G<25 299.667> 819 207<536.449 797> 1032 20G<388.833 431>
VStem: 192 251<927 1006.09> 707 270<594.734 911>
LayerCount: 2
Fore
SplineSet
443 927 m 1
 509 977 614 1026 724 1026 c 0
 870 1026 977 974 977 848 c 0
 977 832 976 814 972 796 c 1
 938.333 623.333 904.667 450.667 871 278 c 1
 794 -119 674 -407 260 -407 c 1
 274 -334 288 -261 302 -188 c 1
 518 -188 571 34 602 191 c 1
 634.333 360.333 666.667 529.667 699 699 c 1
 704 723 707 744 707 762 c 0
 707 798 693 819 648 819 c 0
 585 819 512 781 413 707 c 1
 367.667 471.333 322.333 235.667 277 0 c 1
 193 -0 109 0 25 0 c 1
 70.6667 235.333 116.333 470.667 162 706 c 1
 185 824 192 876 192 924 c 0
 192 949 190 972 188 1004 c 1
 268.333 1020 348.667 1036 429 1052 c 1
 433 1031 443 987 443 943 c 0
 443 927 l 1
EndSplineSet
Validated: 1
EndChar

StartChar: Scedilla
Encoding: 350 350 284
Width: 1060
VWidth: 32
Flags: W
HStem: -449 172<242.374 465.266> -170 370<334.245 469.985> -2 202<545.508 628.027> 1118 210<486.337 738.489>
VStem: 23 268<237.995 420> 163 274<893.217 1074.01> 469 224<-270.644 -174.055> 720 266<287.603 530.142>
LayerCount: 2
Fore
SplineSet
292 702 m 0xbb
 212.066 742.132 163 809 163 918 c 0
 163 945 165.877 974.024 172 1006 c 0
 214.155 1226.16 398 1328 653 1328 c 0
 662 1328 l 0
 902 1328 1083 1246 1095 1078 c 1
 997.333 1044 899.667 1010 802 976 c 1
 776 1077 697 1118 627 1118 c 0
 541 1118 454.751 1081.84 441 1014 c 0
 438.156 999.97 437 987 437 976 c 0
 437 909 481.066 889.156 527 870 c 0
 641.161 822.39 710 813 830 752 c 1
 912 708 986 627 986 486 c 0
 986 458 983.177 428.966 977 396 c 0
 929.364 141.752 753 28 555 -1 c 1
 551 -19 541 -68 540 -71 c 1
 625 -75 693 -120 693 -209 c 0
 693 -221 691.852 -232.971 689 -247 c 0
 662.634 -376.707 536 -449 378 -449 c 0
 312 -449 223 -431 174 -395 c 1
 203.667 -346 233.333 -297 263 -248 c 1
 293 -266 335 -277 386 -277 c 0
 422 -277 459 -266 469 -228 c 1
 469 -227.333 469 -226.667 469 -226 c 1
 470 -223 470 -219 470 -216 c 0
 470 -191 450 -170 408 -170 c 0xd7
 360 -170 327 -173 297 -183 c 1
 309 -122.667 321 -62.3333 333 -2 c 1
 108 30 23 157 23 317 c 0
 23 351 27 386 34 422 c 1
 122.333 421.333 210.667 420.667 299 420 c 1
 294 394 291 371 291 350 c 0
 291 252 346 200 471 200 c 0
 579 200 687.423 236.115 716 382 c 0
 718.941 397.011 720 411 720 424 c 0
 720 506 667.033 552.069 605 582 c 0
 499.057 633.118 413.1 641.2 292 702 c 0xbb
EndSplineSet
Validated: 1
EndChar

StartChar: scedilla
Encoding: 351 351 285
Width: 1060
VWidth: 32
Flags: W
HStem: -460 172<204.374 427.269> 829 200<449.079 714.29>
VStem: 45 256<200.492 330> 183 254<701.61 814.446> 431 224<-281.644 -184.42> 631 256<227.367 410.738>
LayerCount: 2
Fore
SplineSet
281 549 m 0xe4
 220.822 581.667 183 641 183 722 c 0
 183 740 184.969 760.006 189 781 c 0
 224.724 967.052 427 1029 602 1029 c 0
 741 1029 892 1014 979 893 c 1
 909.333 838.667 839.667 784.333 770 730 c 1
 727 788 662 829 566 829 c 0
 484 829 448.318 806.929 440 768 c 0
 438.074 758.985 437 752 437 745 c 0
 437 728 443 714 461 701 c 1
 674 607 887 569 887 355 c 0xd4
 887 331 884.173 305.967 879 278 c 0
 849.004 115.821 686.446 25.8833 574 0 c 0
 555.088 -4.35294 537 -8 517 -11 c 1
 512 -36 l 0
 508 -56 503 -80 503 -82 c 1
 587 -86 655 -131 655 -219 c 0
 655 -231 653.852 -243.971 651 -258 c 0
 624.634 -387.707 498 -460 340 -460 c 0
 274 -460 185 -442 136 -406 c 1
 165.667 -357 195.333 -308 225 -259 c 1
 255 -277 298 -288 349 -288 c 0
 385 -288 421 -277 431 -239 c 1
 431 -238.333 431 -237.667 431 -237 c 1xc8
 432 -233 432 -229 432 -226 c 0
 432 -201 413 -181 371 -181 c 0
 323 -181 289 -184 259 -194 c 1
 271 -133.333 283 -72.6667 295 -12 c 1
 134 15 45 112 45 254 c 0
 45 278 48 303 53 330 c 1
 137.333 330 221.667 330 306 330 c 1
 302 312 301 296 301 281 c 0
 301 210 344 182 434 182 c 0
 493 182 611.691 201.74 627 290 c 0
 629.246 302.952 631 315 631 326 c 0
 631 364 615 389 582 415 c 1
 522 459 364.747 503.539 281 549 c 0xe4
EndSplineSet
Validated: 1
EndChar

StartChar: Tcommaaccent
Encoding: 354 354 288
Width: 1060
VWidth: 32
Flags: W
HStem: -449 172<208.374 431.266> 1118 207<221 497 757 1049.96>
VStem: 435 224<-269.655 -173.055>
LayerCount: 2
Fore
SplineSet
278 -9 m 1
 351 366.667 424 742.333 497 1118 c 1
 299 1118 257 1117 181 1117 c 1
 194.333 1186 207.667 1255 221 1324 c 1
 343 1324 798 1325 986 1325 c 0
 1059 1325 1126 1316 1149 1309 c 1
 1116 1241.33 1083 1173.67 1050 1106 c 1
 1050 1106 1000 1118 940 1118 c 1
 879 1118 818 1118 757 1118 c 1
 684 742.333 611 366.667 538 -9 c 1
 531.667 -9 525.333 -9 519 -9 c 1
 515 -30 506 -68 506 -70 c 1
 591 -74 659 -119 659 -208 c 0
 659 -220 657.852 -231.971 655 -246 c 0
 628.634 -375.707 502 -449 344 -449 c 0
 278 -449 189 -431 140 -395 c 1
 169.667 -345.667 199.333 -296.333 229 -247 c 1
 259 -265 301 -277 352 -277 c 0
 388 -277 425 -265 435 -227 c 1
 435 -226.333 435 -225.667 435 -225 c 1
 436 -221 436 -217 436 -214 c 0
 436 -190 417 -170 375 -170 c 0
 327 -170 294 -172 264 -182 c 1
 275 -124.333 286 -66.6667 297 -9 c 1
 290.667 -9 284.333 -9 278 -9 c 1
EndSplineSet
Validated: 1
EndChar

StartChar: tcommaaccent
Encoding: 355 355 289
Width: 1060
VWidth: 32
Flags: W
HStem: -445 172<260.374 482.769> -4 200<561.754 688.87> 811 204<153.233 228 522 863>
VStem: 120 261<217.36 523.07> 488 223<-266.644 -170.055>
LayerCount: 2
Fore
SplineSet
398 435 m 1
 395.333 421.667 392.667 408.333 390 395 c 1
 384 364 381 338 381 315 c 0
 381 242 412.995 210.971 475 200 c 0
 491.999 196.992 526 196 539 196 c 0
 604 196 636 209 664 223 c 0
 722 252 746 320 757 339 c 1
 819.667 305.667 882.333 272.333 945 239 c 1
 930 211 854.691 100.58 730 35 c 0
 682.885 10.2204 630 1.37792e-06 571 -4 c 1
 567 -25 558 -65 558 -67 c 1
 643 -71 711 -116 711 -205 c 0
 711 -217 709.852 -228.971 707 -243 c 0
 680.634 -372.707 554 -445 396 -445 c 0
 330 -445 241 -427 192 -391 c 1
 221.667 -342 251.333 -293 281 -244 c 1
 311 -262 353 -273 404 -273 c 0
 440 -273 476 -262 486 -224 c 1
 486.333 -223.333 486.667 -222.667 487 -222 c 1
 488 -218 488 -214 488 -211 c 0
 488 -186 469 -166 427 -166 c 0
 379 -166 345 -169 315 -179 c 1
 326.667 -118.667 338.333 -58.3333 350 2 c 1
 241 18 161.391 59.832 132 164 c 0
 123.831 192.951 120 223 120 253 c 0
 120 298 128 345 138 397 c 1
 141 411.333 144 425.667 147 440 c 1
 166 530 191 648 228 811 c 1
 223.333 811 218.667 811 214 811 c 1
 186 811 157 807 130 800 c 1
 137.333 867.667 144.667 935.333 152 1003 c 1
 178 1012 223 1015 256 1015 c 1
 261 1015 266 1015 271 1015 c 1
 285 1085 304 1179 318 1249 c 1
 401.333 1247 484.667 1245 568 1243 c 1
 555 1177 536 1088 522 1020 c 1
 631 1019 897 1016 905 1016 c 1
 891 948 877 880 863 812 c 1
 726 812 613 814 480 814 c 1
 442 647 421 535 398 435 c 1
EndSplineSet
Validated: 1
EndChar

StartChar: tcaron
Encoding: 357 357 291
Width: 1060
VWidth: 32
Flags: HW
HStem: -6 202<467.117 723.614> 805 204<521 948>
VStem: 177 254<229.428 472.672>
LayerCount: 2
Fore
SplineSet
949 1476 m 1
 919 1361 899 1249 864 1095 c 1
 678 1117 l 1
 692 1262 714 1407 730 1512 c 1
 949 1476 l 1
EndSplineSet
Refer: 19 116 N 1 0 0 1 0 0 2
Validated: 1
EndChar

StartChar: Tbar
Encoding: 358 358 292
Width: 1060
VWidth: 0
Flags: W
HStem: -9 21G<278 554.667> 504 217<193 378 680 847> 1118 207<221 497 757 1049.96>
LayerCount: 2
Fore
SplineSet
378 504 m 1
 302.333 504 226.667 504 151 504 c 1
 165 576.333 179 648.667 193 721 c 1
 268.667 721 344.333 721 420 721 c 1
 445.667 853.333 471.333 985.667 497 1118 c 1
 299 1118 257 1117 181 1117 c 1
 194.333 1186 207.667 1255 221 1324 c 1
 343 1324 798 1325 986 1325 c 0
 1059 1325 1126 1316 1149 1309 c 1
 1116 1241.33 1083 1173.67 1050 1106 c 1
 1050 1106 1000 1118 940 1118 c 1
 879 1118 818 1118 757 1118 c 1
 731.333 985.667 705.667 853.333 680 721 c 1
 749.667 721 819.333 721 889 721 c 1
 875 648.667 861 576.333 847 504 c 1
 777.333 504 707.667 504 638 504 c 1
 604.667 333 571.333 162 538 -9 c 1
 451.333 -9 364.667 -9 278 -9 c 1
 311.333 162 344.667 333 378 504 c 1
EndSplineSet
Validated: 1
EndChar

StartChar: tbar
Encoding: 359 359 293
Width: 1060
VWidth: 0
Flags: W
HStem: -6 202<484.108 772.07> 433 205<69 228 524 724> 805 204<562 989>
VStem: 203 261<215.904 432.438>
LayerCount: 2
Fore
SplineSet
480 433 m 1
 477.667 420.667 475.333 408.333 473 396 c 1
 467 365 464 338 464 315 c 0
 464 241 495.774 208.97 558 200 c 0
 575.897 197.421 609 196 622 196 c 0
 687 196 719.951 210.099 748 224 c 0
 804.9 252.2 829 320 840 340 c 1
 903 306.667 966 273.333 1029 240 c 1
 1014 212 936.823 100.338 813 36 c 0
 747.908 2.17832 670 -6 585 -6 c 0
 401 -6 256.455 15.8497 215 164 c 0
 206.894 192.97 203 222 203 253 c 0
 203 299 211 346 221 398 c 1
 223.333 409.667 225.667 421.333 228 433 c 1
 161.667 433 95.3333 433 29 433 c 1
 42.3333 501.333 55.6667 569.667 69 638 c 1
 136.667 638 204.333 638 272 638 c 1
 283 687 295 742 309 805 c 1
 304.333 805 299.667 805 295 805 c 1
 267 805 239 801 211 793 c 1
 218.667 861 226.333 929 234 997 c 1
 260 1005 305 1009 338 1009 c 1
 343 1009 348 1009 353 1009 c 1
 367 1079 387 1180 401 1250 c 1
 484.333 1248 567.667 1246 651 1244 c 1
 638 1178 618 1081 604 1013 c 1
 713 1013 1024 1009 1032 1009 c 1
 1017.67 941 1003.33 873 989 805 c 1
 852 805 695 807 562 807 c 1
 548 743 535 687 524 638 c 1
 604 638 684 638 764 638 c 1
 750.667 569.667 737.333 501.333 724 433 c 1
 642.667 433 561.333 433 480 433 c 1
EndSplineSet
Validated: 1
EndChar

StartChar: Uogonek
Encoding: 370 370 304
Width: 1060
VWidth: 32
Flags: W
HStem: -503 196<385.666 621.8> 1329 1G<234.5 511 877 929.333>
VStem: 72 263<225.728 664.828> 130 255<-309 -176.288> 253 258<1128.91 1329> 888 248<1182.47 1323.31>
LayerCount: 2
Fore
SplineSet
888 1350 m 1xe4
 970.667 1340.67 1053.33 1331.33 1136 1322 c 1
 1119 1272 1111.64 1236.86 1103 1195 c 0
 1101.14 1185.97 1099.98 1176 1098 1166 c 0
 1068.71 1018.06 1047 888 1025 775 c 1
 1021 755.333 1017 735.667 1013 716 c 1
 967 479 918.88 253.125 781 121 c 0
 605.848 -46.841 416.65 -132.55 386 -250 c 4
 385.205 -253.039 385 -255 385 -258 c 0
 385 -295 435 -307 495 -307 c 0
 553 -307 599 -278 633 -256 c 1
 665.333 -303 697.667 -350 730 -397 c 1
 677 -445 547 -503 447 -503 c 0
 282 -503 130 -457 130 -309 c 0xd4
 130 -293 131.224 -277.044 135 -259 c 0
 158.376 -147.306 228 -89 337 -6 c 1
 141 17 72 129 72 315 c 0xe4
 72 358 75.1852 404.976 82 456 c 0
 92.2791 532.962 114.091 656.982 141 795 c 0
 175.115 969.977 216 1168 253 1329 c 1
 339 1329 425 1329 511 1329 c 1xcc
 474 1161 426.385 931.923 389 743 c 0
 379.102 692.98 370.03 644.994 362 602 c 0
 350.045 537.992 339.74 485.01 338 448 c 0
 336.825 423.009 335 395 335 366 c 0
 335 285 351 203 454 200 c 1
 656 209 702.643 430.877 758 718 c 0
 782.282 843.945 806.174 992.966 840 1166 c 0
 854.072 1237.99 866 1287 888 1350 c 1xe4
EndSplineSet
Validated: 1
EndChar

StartChar: uogonek
Encoding: 371 371 305
Width: 1060
VWidth: 32
Flags: W
HStem: -503 196<463.666 699.8> 2 204<286.758 535.114> 1000 21G<357.833 400 753.333 1030>
VStem: 16 262<212.007 426.129> 148 252<702.308 991.764> 208 255<-383 -194.462>
LayerCount: 2
Fore
SplineSet
700 108 m 1xe4
 610 31 473 5 322 2 c 1
 319 2 316 2 313 2 c 1
 174 2 16 45 16 187 c 0xf0
 16 200 17.0352 213.993 20 229 c 0
 36.1923 310.962 55.2325 407.955 74 504 c 0
 112.476 700.906 148 897 148 973 c 0
 148 980 148 987 147 992 c 1
 231.333 1001.33 315.667 1010.67 400 1020 c 1
 400 1010 l 0xe8
 400 910 345 652 278 298 c 1
 278 292 l 0xf0
 278 230 294 206 376 206 c 1
 529 213 630 291 655 418 c 1
 694.333 619 733.667 820 773 1021 c 1
 858.667 1021 944.333 1021 1030 1021 c 1
 983.333 782.667 936.667 544.333 890 306 c 1
 889 302 889 299 889 295 c 0
 889 245 937 186 981 166 c 1
 701 -155 490.3 -150.1 464 -250 c 0
 463.198 -253.039 463 -255 463 -258 c 0
 463 -295 513 -307 573 -307 c 0
 631 -307 677 -278 711 -256 c 1
 743.333 -303 775.667 -350 808 -397 c 1
 755 -445 625 -503 525 -503 c 0
 360 -503 208 -457 208 -309 c 0
 208 -293 209.263 -277.05 213 -259 c 0
 253.859 -61.6353 522 -72 700 108 c 1xe4
EndSplineSet
Validated: 1
EndChar

StartChar: longs
Encoding: 383 383 317
Width: 1060
VWidth: -2
Flags: W
HStem: 0 21G<249 538.833> 807 205<253 406> 1217 201<758.563 1008.52>
LayerCount: 2
Fore
SplineSet
1007 1206 m 1
 982 1215 924 1217 885 1217 c 0
 753 1217 727.57 1143.08 716 1083 c 0
 710.808 1056.04 703 1012 703 1012 c 1
 637.333 674.667 571.667 337.333 506 0 c 1
 420.333 -0 334.667 0 249 0 c 1
 301.333 269 353.667 538 406 807 c 1
 341.667 807 277.333 807 213 807 c 1
 226.333 875.333 239.667 943.667 253 1012 c 1
 317.333 1012 381.667 1012 446 1012 c 1
 449 1028 452.167 1044.97 456 1064 c 0
 482.134 1193.76 591 1418 907 1418 c 0
 968 1418 1046 1414 1092 1404 c 1
 1063.67 1338 1035.33 1272 1007 1206 c 1
EndSplineSet
Validated: 1
EndChar

StartChar: Euro
Encoding: 8364 8364 318
Width: 1060
VWidth: 0
Flags: W
HStem: -31 213<456.148 679.947> 394 190<95.1223 176 475 636> 676 188<154.749 217 538 790> 1125 218<641.819 854.511>
VStem: 175 263<196.243 394>
LayerCount: 2
Fore
SplineSet
887 866 m 1
 854.667 804.667 822.333 743.333 790 682 c 1
 786.008 682 781.989 682.14 778 682 c 0
 721 680 688 676 612 676 c 0
 494 676 l 1
 490 653 483.706 630.824 479 609 c 0
 477.264 600.952 477 593 475 584 c 1
 505 583 508 583 546 583 c 0
 632 583 623 584 712 585 c 0
 720.664 585.097 729.335 585 738 585 c 1
 704 520.667 670 456.333 636 392 c 1
 572 392.667 508 393.333 444 394 c 1
 440 366 438 342 438 321 c 0
 438 219 478 182 526 182 c 1
 532 182 538 182 544 182 c 1
 610 182 695 209 764 315 c 1
 820.667 262 877.333 209 934 156 c 1
 784 -1.84793e-06 687 -31 500 -31 c 0
 421 -31 301.256 -2.85166 238 107 c 0
 194.178 183.102 175 255 175 356 c 0
 175 368 175 381 176 394 c 1
 149 395 125 396 101 396 c 0
 72 396 44 395 11 394 c 1
 33 448 65 522 102 583 c 1
 142 583 181 584 199 584 c 1
 202 601 205 617 208 632 c 0
 211 647 213 662 217 676 c 1
 137 677 105 677 58 681 c 1
 92 737 135 826 163 870 c 1
 190 867 218 867 273 866 c 1
 314 978 342.763 1032.15 392 1108 c 0
 508.438 1287.36 685 1343 784 1343 c 0
 892 1343 1000 1312 1072 1209 c 1
 1024 1122.67 976 1036.33 928 950 c 1
 894 1053 842 1125 745 1125 c 0
 652 1125 581 1040 538 864 c 1
 647 864 l 0
 724 864 l 1
 776 866 812 868 854 868 c 0
 864.948 868 876.069 866.662 887 866 c 1
EndSplineSet
Validated: 1
EndChar

StartChar: uniE000
Encoding: 57344 57344 319
Width: 1060
VWidth: 6
Flags: W
HStem: 390 154<532.77 688.114> 486 158<295.487 455.189>
VStem: 159 649
LayerCount: 2
Fore
SplineSet
171 491 m 2x60
 252 603 323 644 387 644 c 0x60
 491 644 567 544 625 544 c 0
 648 544 675 560 710 624 c 0
 724 650 l 1
 808 546 l 1
 798 532 l 0
 723 430 656 390 595 390 c 0xa0
 491 390 421 486 363 486 c 0
 336 486 312 475 274 409 c 0
 261 387 l 1
 159 475 l 1
 171 491 l 2x60
EndSplineSet
Validated: 1
EndChar

StartChar: uniE001
Encoding: 57345 57345 320
Width: 1060
VWidth: 6
Flags: W
HStem: -312 150<326.205 532.989> -26 21G<711 750.5> -11 152<354.499 523.328> 513 151<493.606 641.495> 894 150<560.211 698.241> 1191 152<568.675 792.512>
VStem: 94 124<-23.537 581.797> 267 133<141.58 403.207> 705 120<643.324 889.795> 902 115<444.238 1047.95>
LayerCount: 2
Fore
SplineSet
404 -11 m 1xbfc0
 305 -6 267 87 267 196 c 0
 267 230 270 265 277 299 c 0
 277 300 278 302 278 303 c 1
 293 380 326 461 373 524 c 1
 451 628 531 661 601 664 c 0
 604 664 606 664 609 664 c 0
 645 664 672 652 689 641 c 1
 698 705 705 757 705 797 c 0
 705 861 688 894 636 894 c 0
 577 894 563 860 481 727 c 0
 470 709 l 1
 378 770 l 1
 387 787 l 0
 476 963 566 1041 665 1044 c 1
 706 1044 760 1025 790 967 c 1
 810 928 825 870 825 795 c 0
 825 756 821 712 811 663 c 0
 727 229 l 1
 723 201 721 184 721 172 c 0
 721 152 726 148 735 133 c 1
 736 131 738 128 741 126 c 1
 752 132 762 149 772 169 c 0
 823 267 849 386 874 515 c 0
 893 612 902 702 902 784 c 0
 902 1028 822 1191 688 1191 c 0
 510 1191 321 901 246 515 c 0
 227 418 218 328 218 246 c 0
 218 1 298 -162 425 -162 c 0
 485 -162 549 -129 610 -72 c 0
 625 -57 l 1
 683 -153 l 1
 670 -166 l 0
 593 -239 481 -312 395 -312 c 0
 204 -312 94 -85 94 225 c 0
 94 316 103 414 123 515 c 0
 210 962 470 1343 717 1343 c 0
 908 1343 1017 1116 1017 807 c 0
 1017 716 1008 617 988 515 c 0
 959 364 909 222 849 98 c 1
 835 71 784 -26 717 -26 c 0
 716 -26 715 -26 714 -26 c 0
 712 -26 l 1xdfc0
 711 -25 l 0
 693 -20 666 -9 651 16 c 0
 650 16 l 0
 641 34 620 59 617 110 c 1
 588 80 565 65 531 38 c 1
 494 11 449 -11 404 -11 c 1xbfc0
432 141 m 0xbfc0
 458 141 489 155 509 170 c 1
 585 229 612 299 630 334 c 1
 636 367 648 433 652 452 c 1
 629 495 603 513 572 513 c 0
 571 513 570 513 569 513 c 0
 514 511 428 415 408 310 c 0
 408 308 407 307 407 305 c 1
 402 277 400 252 400 231 c 0
 400 173 415 141 432 141 c 0xbfc0
EndSplineSet
Validated: 1
EndChar

StartChar: uniE002
Encoding: 57346 57346 321
Width: 1060
VWidth: 6
Flags: W
HStem: -310 150<393.811 599.099> -9 153<470 642.322> 702 152<627.643 777.205> 1198 153<634.581 833.957>
VStem: 162 124<-20.9354 584.854> 378 131<147.481 375> 862 118<823.808 1172.55>
LayerCount: 2
Fore
SplineSet
937 703 m 0
 937 703 931 678 929 666 c 0
 845 231 l 1
 842 213 841 198 841 184 c 0
 841 143 853 119 873 98 c 0
 887 83 l 1
 777 4 l 1
 769 20 l 1
 760 39 739 63 736 113 c 1
 707 83 684 68 650 41 c 1
 613 14 568 -9 522 -9 c 1
 418 -4 378 138 378 269 c 0
 378 307 382 345 388 378 c 0
 388 379 389 380 389 381 c 1
 391 393 394 407 397 422 c 0
 411 496 435 600 506 711 c 0
 578 823 668 851 737 854 c 0
 739 854 741 854 743 854 c 0
 786 854 821 835 840 821 c 1
 844 854 849 882 851 903 c 0
 856 946 862 993 862 1037 c 0
 862 1124 839 1198 742 1198 c 0
 585 1198 389 905 314 518 c 0
 295 421 286 330 286 248 c 0
 286 4 365 -160 492 -160 c 0
 552 -160 617 -126 678 -69 c 0
 693 -54 l 1
 750 -150 l 1
 737 -163 l 0
 660 -236 549 -310 463 -310 c 0
 272 -310 162 -82 162 228 c 0
 162 319 171 417 191 518 c 0
 278 964 525 1351 772 1351 c 0
 932 1351 980 1221 980 1054 c 0
 980 945 960 819 937 703 c 0
552 144 m 0
 578 144 608 158 628 173 c 1
 704 232 730 301 748 336 c 1
 804 621 l 1
 781 665 732 702 703 702 c 0
 603 702 541 498 517 375 c 0
 516 370 515 365 514 360 c 1
 511 340 509 320 509 301 c 0
 509 218 535 144 552 144 c 0
EndSplineSet
Validated: 1
EndChar

StartChar: gravecomb
Encoding: 768 768 322
Width: 1060
VWidth: -43
Flags: W
HStem: 1267 442
VStem: 417 547
LayerCount: 2
Fore
SplineSet
964 1441 m 5
 922.667 1383 881.333 1325 840 1267 c 5
 706 1314 506 1425 417 1537 c 5
 472.667 1594.33 528.333 1651.67 584 1709 c 5
 678 1601 830 1489 964 1441 c 5
EndSplineSet
Validated: 1
EndChar

StartChar: acutecomb
Encoding: 769 769 323
Width: 1060
VWidth: -43
Flags: W
HStem: 1267 442
VStem: 404 585
LayerCount: 2
Fore
SplineSet
404 1441 m 1
 556 1489 752 1601 888 1709 c 1
 921.667 1651.67 955.333 1594.33 989 1537 c 1
 856 1425 612 1314 460 1267 c 1
 441.333 1325 422.667 1383 404 1441 c 1
EndSplineSet
Validated: 1
EndChar

StartChar: uni0302
Encoding: 770 770 324
Width: 1060
VWidth: -10
Flags: W
HStem: 1252 447
LayerCount: 2
Fore
SplineSet
774 1699 m 5
 881.333 1602 988.667 1505 1096 1408 c 5
 1039.67 1356 983.333 1304 927 1252 c 5
 860 1319 793 1386 726 1453 c 5
 640 1390 554 1327 468 1264 c 5
 429 1310 390 1356 351 1402 c 5
 492 1501 633 1600 774 1699 c 5
EndSplineSet
Validated: 1
EndChar

StartChar: tildecomb
Encoding: 771 771 325
Width: 1060
VWidth: -12
Flags: W
HStem: 1376 178<811.761 969.951> 1506 180<505.682 671.52>
LayerCount: 2
Fore
SplineSet
592 1686 m 0x40
 808 1686 801 1554 891 1554 c 0
 941 1554 978 1585 997 1654 c 1
 1052.33 1636 1107.67 1618 1163 1600 c 1
 1123 1504 1040 1376 878 1376 c 0x80
 680 1376 685 1506 584 1506 c 0
 542 1506 497 1469 476 1406 c 1
 419.667 1432 363.333 1458 307 1484 c 1
 358 1577 451 1686 592 1686 c 0x40
EndSplineSet
Validated: 1
EndChar

StartChar: uni0304
Encoding: 772 772 326
Width: 1060
VWidth: -34
Flags: W
HStem: 1463 194<482.235 947>
VStem: 447 538
LayerCount: 2
Fore
SplineSet
985 1657 m 1
 972.333 1592.33 959.667 1527.67 947 1463 c 5
 941.345 1463 935.651 1463.19 930 1463 c 4
 872 1461 773 1456 699 1456 c 4
 625 1456 533 1457 465 1459 c 4
 459.001 1459.18 452.993 1459.67 447 1460 c 5
 459.667 1525.67 472.333 1591.33 485 1657 c 1
 491.274 1656.34 497.697 1655.19 504 1655 c 0
 569 1653 683 1652 775 1652 c 0
 836 1652 923 1657 968 1657 c 0
 985 1657 l 1
EndSplineSet
Validated: 1
EndChar

StartChar: uni0305
Encoding: 773 773 327
Width: 1060
VWidth: -34
Flags: W
HStem: 1458 203<335 1087>
LayerCount: 2
Fore
SplineSet
1126 1658 m 1
 1113 1591 1100 1524 1087 1457 c 5
 823 1457.33 559 1457.67 295 1458 c 5
 308.333 1525.67 321.667 1593.33 335 1661 c 1
 598.667 1660 862.333 1659 1126 1658 c 1
EndSplineSet
Validated: 1
EndChar

StartChar: uni0306
Encoding: 774 774 328
Width: 1060
VWidth: -12
Flags: W
HStem: 1325 183<616.572 865.181>
LayerCount: 2
Fore
SplineSet
728 1508 m 0
 836 1508 915 1571 936 1649 c 1
 1007 1639 1078 1629 1149 1619 c 1
 1091 1442 939 1325 699 1325 c 1
 474 1325 356 1403 352 1628 c 1
 427 1638 502 1648 577 1658 c 1
 581 1541 653 1508 728 1508 c 0
EndSplineSet
Validated: 1
EndChar

StartChar: uni0308
Encoding: 776 776 329
Width: 1060
VWidth: -28
Flags: W
HStem: 1414 240<393 627.204 810.796 1047>
LayerCount: 2
Fore
SplineSet
813 1654 m 1
 906.667 1653 1000.33 1652 1094 1651 c 1
 1078.33 1571 1062.67 1491 1047 1411 c 1
 953.333 1412 859.667 1413 766 1414 c 1
 781.667 1494 797.333 1574 813 1654 c 1
393 1654 m 1
 486 1654 579 1654 672 1654 c 1
 656.333 1574 640.667 1494 625 1414 c 1
 532 1414 439 1414 346 1414 c 1
 361.667 1494 377.333 1574 393 1654 c 1
EndSplineSet
Validated: 1
EndChar

StartChar: uni0307
Encoding: 775 775 330
Width: 1060
VWidth: -28
Flags: W
HStem: 1425 246<557.796 798>
VStem: 513 331
LayerCount: 2
Fore
SplineSet
560 1671 m 1
 654.667 1671 749.333 1671 844 1671 c 1
 828.667 1589 813.333 1507 798 1425 c 1
 703 1425 608 1425 513 1425 c 1
 528.667 1507 544.333 1589 560 1671 c 1
EndSplineSet
Validated: 1
EndChar

StartChar: uni030A
Encoding: 778 778 331
Width: 1060
VWidth: -8
Flags: W
HStem: 1278 132<648.419 808.905> 1535 142<655.698 817.047>
VStem: 454 191<1415.96 1521.29> 819 192<1425.27 1530.9>
LayerCount: 2
Fore
SplineSet
744 1535 m 4
 691 1535 653.95 1503.35 646 1473 c 4
 645.202 1469.96 645 1468 645 1465 c 0
 645 1437 673 1410 720 1410 c 4
 772 1410 810.05 1442.65 818 1473 c 4
 818.798 1476.04 819 1479 819 1482 c 0
 819 1510 792 1535 744 1535 c 4
457 1473 m 0
 480.096 1588.98 625 1677 773 1677 c 0
 908 1677 1011 1604 1011 1503 c 0
 1011 1493 1009.96 1483.01 1008 1473 c 0
 985.519 1358.1 855 1278 695 1278 c 0
 555 1278 454 1346 454 1444 c 0
 454 1453 455.008 1463 457 1473 c 0
EndSplineSet
Validated: 1
EndChar

StartChar: uni0237
Encoding: 567 567 332
Width: 1060
VWidth: 0
Flags: W
HStem: -389 201<240.358 456.515> -28 20G<125 186> 834 179<443.258 651.491>
VStem: 660 254<536.195 824.726>
LayerCount: 2
Fore
SplineSet
752 -78 m 1
 722 -231 610 -389 324 -389 c 3
 201 -389 51 -361 -35 -156 c 1
 29 -106.667 93 -57.3333 157 -8 c 1
 215 -153 277 -188 340 -188 c 0
 358 -188 l 3
 478 -188 495 -83 504 -48 c 1
 555 205.667 606 459.333 657 713 c 1
 659 724 660 736 660 746 c 0
 660 799 631 834 575 834 c 0
 525 834 455 806 365 737 c 1
 325 782 285 827 245 872 c 1
 398 992 488 1013 641 1013 c 1
 866 1013 914 859 914 775 c 0
 914 763 913 751 911 743 c 1
 858 469.333 805 195.667 752 -78 c 1
EndSplineSet
Validated: 1
EndChar

StartChar: uni030B
Encoding: 779 779 333
Width: 1060
VWidth: -43
Flags: W
HStem: 1143 545
LayerCount: 2
Fore
SplineSet
646 1286 m 5
 781 1381 927 1547 1024 1688 c 5
 1082.67 1645.67 1141.33 1603.33 1200 1561 c 5
 1107 1417 901 1237 765 1143 c 5
 725.333 1190.67 685.667 1238.33 646 1286 c 5
264 1293 m 5
 399 1388 545 1554 642 1695 c 5
 700.667 1652.67 759.333 1610.33 818 1568 c 5
 725 1424 520 1244 384 1150 c 5
 344 1197.67 304 1245.33 264 1293 c 5
EndSplineSet
Validated: 1
EndChar

StartChar: uni030C
Encoding: 780 780 334
Width: 1060
VWidth: -10
Flags: W
HStem: 1206 447
LayerCount: 2
Fore
SplineSet
681 1206 m 1
 578.333 1305 475.667 1404 373 1503 c 1
 430 1549 487 1595 544 1641 c 1
 605.667 1578 667.333 1515 729 1452 c 1
 822 1519 915 1586 1008 1653 c 1
 1044 1601 1080 1549 1116 1497 c 1
 971 1400 826 1303 681 1206 c 1
EndSplineSet
Validated: 1
EndChar

StartChar: uni030F
Encoding: 783 783 335
Width: 1060
VWidth: -43
Flags: W
HStem: 1170 545
LayerCount: 2
Fore
SplineSet
758 1313 m 1
 699.333 1265.33 640.667 1217.67 582 1170 c 1
 482 1264 348 1444 311 1588 c 1
 386 1630.33 461 1672.67 536 1715 c 1
 579 1574 659 1408 758 1313 c 1
1143 1320 m 1
 1084.67 1272.67 1026.33 1225.33 968 1178 c 1
 868 1272 732 1452 695 1596 c 1
 770.333 1638 845.667 1680 921 1722 c 1
 964 1581 1044 1415 1143 1320 c 1
EndSplineSet
Validated: 1
EndChar

StartChar: uni0191
Encoding: 401 401 339
Width: 1060
VWidth: 0
Flags: W
HStem: -303 264<-84 40.6961> 642 216<491 777.395> 1115 209<542 1061.92>
LayerCount: 2
Fore
SplineSet
345 78 m 1
 303 -108 197 -303 -135 -303 c 1
 -118 -215 -101 -127 -84 -39 c 1
 20 -39 55 -8.00001 81 85 c 1
 161 498 241 911 321 1324 c 1
 549.333 1324 777.667 1324 1006 1324 c 1
 1108 1324 1150 1307 1181 1290 c 1
 1141.67 1222.33 1102.33 1154.67 1063 1087 c 1
 1040 1101 1021 1114 923 1115 c 1
 899.333 1115 875.667 1115 852 1115 c 1
 748 1115 725 1115 542 1114 c 1
 525 1028 508 942 491 856 c 1
 611 856 574 858 696 858 c 0
 786 858 849 840 886 822 c 1
 850.333 754.667 814.667 687.333 779 620 c 1
 745 637 696 642 651 642 c 0
 566 642 l 0
 536 642 514 642 449 640 c 1
 429 539 375 236 345 78 c 1
EndSplineSet
Validated: 1
EndChar

StartChar: florin
Encoding: 402 402 340
Width: 1060
VWidth: -2
Flags: W
HStem: -340 244<2 141.679> 807 205<268 370 668 940.063> 1217 201<722.813 938.839>
LayerCount: 2
Fore
SplineSet
494 126 m 1
 442 -120 273 -340 -47 -340 c 1
 -30.6667 -258.667 -14.3333 -177.333 2 -96 c 1
 144 -96 203 -30 240 138 c 1
 283.333 361 326.667 584 370 807 c 1
 322.667 807 275.333 807 228 807 c 1
 241.333 875.333 254.667 943.667 268 1012 c 1
 315.333 1012 362.667 1012 410 1012 c 1
 413 1028 416.167 1044.97 420 1064 c 0
 446.134 1193.76 555 1418 871 1418 c 0
 1067 1418 1137 1368 1185 1213 c 1
 1108 1180.67 1031 1148.33 954 1116 c 1
 944 1198 911 1217 850 1217 c 0
 718 1217 691.57 1143.08 680 1083 c 0
 674.808 1056.04 668 1012 668 1012 c 1
 852 1012 l 0
 957 1012 996 1000 1024 991 c 1
 996.333 925.333 968.667 859.667 941 794 c 1
 921 801 902 807 846 807 c 1
 772.667 807 699.333 807 626 807 c 1
 582 580 538 353 494 126 c 1
EndSplineSet
Validated: 1
EndChar

StartChar: alpha
Encoding: 945 945 341
Width: 1060
VWidth: 4
Flags: W
HStem: -32 21G<786 870> -7 206<339.61 466.372> 815 203<437.768 565.716> 1017 20G<900 961.333>
VStem: 61 254<216.122 621.784>
LayerCount: 2
Fore
SplineSet
871 493 m 1xd8
 880 416 875.814 359.974 889 263 c 0
 896.889 204.985 924 179 985 153 c 1
 939 91.3333 893 29.6667 847 -32 c 1
 725 -1.45957e-07 686.898 87.1171 680 147 c 0
 677.347 170.035 675 193 672 215 c 1
 578 67 491 -7 360 -7 c 0
 138 -7 61 151 61 346 c 0
 61 404 68.0026 464.999 80 527 c 0
 151.016 893.997 365 1018 540 1018 c 0xe8
 705 1018 772 923 790 767 c 1
 840 866 873 944 927 1037 c 1
 995.667 1013.67 1064.33 990.333 1133 967 c 1
 1043 841 956 661 871 493 c 1xd8
333 524 m 0
 320.089 457.983 315 406 315 364 c 0
 315 203 391 199 400 199 c 1
 402.667 199 405.333 199 408 199 c 1
 461 199 525 326 598 495 c 1
 594 711 583 815 510 815 c 0
 461 815 373.277 729.945 333 524 c 0
EndSplineSet
Validated: 1
EndChar

StartChar: beta
Encoding: 946 946 342
Width: 1060
VWidth: 0
Flags: W
HStem: 0 199<454.476 693.255> 634 207<494 648.341> 1122 206<497.845 683.944>
VStem: -40 233<-284.046 -122.116> 704 253<901.994 1103.21> 762 251<282.874 556.422>
LayerCount: 2
Back
SplineSet
67 1003 m 4xf4
 67 1159 183 1328 390 1328 c 4
 626 1328 798 1243 798 1009 c 5xf4
 798 886 753 815 670 779 c 5
 814 754 972 661 972 381 c 4
 972 76 844 -2 624 -2 c 4
 437 -2 373 95 373 298 c 4
 373 306 374 314 374 322 c 5
 578 320 l 5
 578 257 583 199 646 199 c 4
 700 199 728 247 728 395 c 4xfa
 728 504 664 634 376 634 c 5
 376 840 l 5
 541 840 554 905 554 1003 c 4
 554 1088 472 1122 413 1122 c 5
 346 1122 316 1073 316 1007 c 4
 316 851 321 637 321 450 c 4
 321 410 322 370 322 331 c 4
 322 251 319 176 299 117 c 4
 272 35 169 -9 113 -37 c 5
 21 211 l 5
 41 221 59 235 67 261 c 4
 75 287 76 323 76 398 c 4
 76 413 76 429 76 448 c 4
 76 635 67 829 67 1003 c 4xf4
EndSplineSet
Fore
SplineSet
285 112 m 1xf4
 279 83 274.938 59.012 271 39 c 0
 246.615 -84.9231 220 -203 193 -300 c 1
 115.333 -294.333 37.6667 -288.667 -40 -283 c 1
 -11 -183 14.3042 -74.0586 36 37 c 0
 72.5114 223.899 180.26 828.95 214 1003 c 0
 244.232 1158.95 389 1328 587 1328 c 0
 770 1328 957 1284 957 1085 c 0xf8
 957 1062 954.149 1036.97 949 1010 c 0
 914.985 831.818 816 802 778 779 c 1
 914 754 1013 670 1013 495 c 0
 1013 461 1009.01 422.997 1001 382 c 0
 936.106 49.9794 783 0 539 0 c 0
 531 0 l 0
 403 0 361 39 285 112 c 1xf4
580 199 m 0
 702 199 736.904 291.019 756 387 c 0
 759.98 407.004 762 425 762 442 c 0xf4
 762 583 634 634 454 634 c 1
 467.333 703 480.667 772 494 841 c 1
 634 841 681.87 882.59 702 1003 c 0
 703.165 1009.97 704 1017 704 1024 c 0
 704 1073 669 1122 585 1122 c 0
 525 1122 481.048 1082.99 464 993 c 0
 445.054 892.99 399 640 352 398 c 1
 416 223 516 199 580 199 c 0
EndSplineSet
Validated: 1
EndChar

StartChar: gamma
Encoding: 947 947 343
Width: 1060
VWidth: 14
Flags: W
HStem: 1021 20G<149.833 173.5>
LayerCount: 2
Fore
SplineSet
321 -376 m 1
 341 -272 386 -26 386 60 c 0
 386 68 l 0
 377 315 300.371 583.151 237 740 c 0
 213.14 799.056 199.856 803.792 189 811 c 0
 175.835 819.741 154 820 129 820 c 0
 124 820 119 819 114 819 c 1
 128.333 893 142.667 967 157 1041 c 1
 190 1041 229.034 1040.21 256 1036 c 0
 317.07 1026.47 389.421 1010.19 431 917 c 0
 498.683 765.309 550 552 581 351 c 1
 697 568 927 1061 927 1061 c 1
 998.333 1036 1069.67 1011 1141 986 c 1
 1141 986 816 387 648 15 c 1
 638 -67 618.479 -175.099 595 -291 c 0
 589.12 -320.024 584 -350 578 -379 c 1
 492.333 -378 406.667 -377 321 -376 c 1
EndSplineSet
Validated: 1
EndChar

StartChar: delta
Encoding: 948 948 344
Width: 1060
VWidth: 6
Flags: W
HStem: 1 197<386.413 599.491> 1182 197<473.971 871.828>
VStem: 85 255<237.108 579.232> 217 252<1040.5 1168.04> 720 257<379.425 660.383>
LayerCount: 2
Back
SplineSet
625 247 m 1
 672 299 685 403 685 530 c 0
 685 536 685 540 685 546 c 0
 683 703 648 830 520 830 c 0
 369 830 324 690 324 482 c 0
 324 316 387 197 508 197 c 1
 563 198 589 211 625 247 c 1
507 -6 m 1
 197 -6 72 184 72 464 c 0
 72 835 213 1032 505 1032 c 0
 702 1032 812 963 882 831 c 0
 923 752 941 639 941 543 c 0
 941 258 845 -6 509 -6 c 2
 507 -6 l 1
EndSplineSet
Fore
SplineSet
585 748 m 1xe8
 414 716 365.57 556.08 349 469 c 0
 343.867 442.026 340 411 340 380 c 0
 340 290 371 198 489 198 c 0
 658 198 704.96 428.72 718 506 c 0
 719.175 512.966 720 521 720 530 c 0
 720 592 684 688 585 748 c 1xe8
967 504 m 0
 915.519 244.096 773 1 451 1 c 1
 450.333 1 449.667 1 449 1 c 1
 217 2 85 135 85 348 c 0xe8
 85 385 89.0278 422.995 97 464 c 0
 134.129 654.975 244 824 366 854 c 1
 325 876 312.839 893.828 290 915 c 0
 255.762 946.739 217 1008 217 1073 c 0
 217 1083 218.032 1092.99 220 1103 c 0
 266.769 1340.85 465 1379 675 1379 c 0
 799 1379 933 1351 1048 1322 c 1
 1020.33 1251.67 992.667 1181.33 965 1111 c 1
 839 1148 725 1182 629 1182 c 0
 544 1182 469 1177 469 1124 c 0xd8
 469 1098 504.884 1077.78 532 1063 c 0
 746.057 946.302 977 858 977 602 c 0
 977 572 973.935 539.013 967 504 c 0
EndSplineSet
Validated: 1
EndChar

StartChar: epsilon
Encoding: 949 949 345
Width: 1060
VWidth: 0
Flags: W
HStem: -4 197<380.364 772.942> 469 196<482.597 733> 825 199<453.242 931.221>
VStem: 84 268<226.701 395.114>
LayerCount: 2
Fore
SplineSet
989 138 m 1
 908 85 720 -4 497 -4 c 0
 315 -4 225.656 13.6356 162 73 c 0
 108.716 122.692 84 201 84 263 c 0
 84 276 84.8516 289.029 87 301 c 0
 110.378 431.27 193 548 352 584 c 1
 224 598 176 666 176 746 c 0
 176 760 177.031 773.994 180 789 c 0
 216.385 972.923 458 1024 680 1024 c 1
 684.333 1024 688.667 1024 693 1024 c 1
 926 1024 1028 963 1044 951 c 1
 1010 892.333 976 833.667 942 775 c 1
 921 790 788 825 643 825 c 0
 528 825 448 813 443 761 c 0
 442.815 759.036 442 756 442 754 c 0
 442 687 645 665 741 665 c 1
 743.333 665 745.667 665 748 665 c 1
 749.667 665 751.333 665 753 665 c 1
 759 665 765 665 771 665 c 1
 758.333 599.333 745.667 533.667 733 468 c 1
 707 468 681 469 655 469 c 0
 454 469 375.192 417.962 353 306 c 0
 352.009 300.998 352 296 352 291 c 0
 352 245 398 193 561 193 c 0
 729 193 846 249 906 295 c 1
 933.667 242.667 961.333 190.333 989 138 c 1
EndSplineSet
Validated: 1
EndChar

StartChar: zeta
Encoding: 950 950 346
Width: 1060
VWidth: 0
Flags: W
HStem: -347 198<522 675.34> 0 215<429.294 699.015> 1155 197<368.042 790.222> 1356 20G<1092 1167.33>
VStem: 143 262<238.095 589.206> 700 229<-111.234 66>
LayerCount: 2
Fore
SplineSet
404 1414 m 1
 436 1372 468 1352 548 1352 c 0
 714 1352 1024 1358 1160 1376 c 1
 1174.67 1309.33 1189.33 1242.67 1204 1176 c 1
 1026 978 486.822 845.628 419 504 c 0
 409.262 454.949 405 412 405 374 c 0
 405 272 440 215 507 215 c 0
 511 215 679 216 683 216 c 0
 857 216 929 127 929 5 c 0
 929 -18 926.937 -40.9878 922 -66 c 0
 876.423 -296.885 612 -337 520 -347 c 1
 520.667 -281 521.333 -215 522 -149 c 1
 609 -136 689.824 -114.706 698 -77 c 0
 699.745 -68.9531 700 -62 700 -55 c 0
 700 -2 651 0 573 0 c 0
 553 0 l 0
 415 0 l 0
 251 0 143 117 143 337 c 0
 143 387 149.101 442.98 161 504 c 0
 230.592 860.884 519 991 797 1164 c 1
 666 1157 658 1155 530 1155 c 0
 416 1155 302 1175 243 1274 c 1
 296.667 1320.67 350.333 1367.33 404 1414 c 1
EndSplineSet
Validated: 1
EndChar

StartChar: eta
Encoding: 951 951 347
Width: 1060
VWidth: 6
Flags: W
HStem: 0 21G<35 309.667> 819 207<557.674 842> 1032 20G<398.833 441>
VStem: 202 251<927 1006.09> 594 253<-314.845 61.7188> 768 273<612.836 924>
LayerCount: 2
Fore
SplineSet
936 296 m 1xf4
 913 177 890 58 867 -61 c 1
 857 -112 847 -204 847 -266 c 0
 847 -285 848 -301 850 -312 c 1
 766.667 -332.667 683.333 -353.333 600 -374 c 1
 598 -333 594 -296 594 -248 c 0xf8
 594 -202 598 -147 613 -68 c 1
 631 24.6667 649 117.333 667 210 c 1
 699.333 379 731.667 548 764 717 c 1
 767 732 768 745 768 756 c 0
 768 801 745 819 692 819 c 0
 629 819 522 781 423 707 c 1
 377.667 471.333 332.333 235.667 287 0 c 1
 203 -0 119 0 35 0 c 1
 80.6667 235.333 126.333 470.667 172 706 c 1
 195 824 202 876 202 924 c 0
 202 949 200 972 198 1004 c 1
 278.333 1020 358.667 1036 439 1052 c 1
 443 1031 453 987 453 943 c 0
 453 927 l 1
 519 977 658 1026 768 1026 c 0
 916 1026 1041 988 1041 860 c 0
 1041 846 1039 830 1036 814 c 1
 1002.67 641.333 969.333 468.667 936 296 c 1xf4
EndSplineSet
Validated: 1
EndChar

StartChar: theta
Encoding: 952 952 348
Width: 1060
VWidth: 0
Flags: W
HStem: -16 203<355.816 578.472> 567 222<386.781 749> 1147 203<553.08 756.774>
VStem: 51 264<228.397 548.619> 801 257<791.969 1102.78>
LayerCount: 2
Fore
SplineSet
330 277 m 0
 362.816 202.919 397 187 471 187 c 0
 550 187 611 249 657 326 c 1
 687 372 724 476 749 566 c 1
 732 566 715 567 697 567 c 0
 612 567 506 562 330 549 c 1
 322 496 315 435 315 381 c 0
 315 339 318.938 301.972 330 277 c 0
709 1350 m 1
 843 1350 1058 1299 1058 917 c 0
 1058 841 1049 752 1030 647 c 1
 1029.33 643.333 1028.67 639.667 1028 636 c 1
 996 469 933.404 311.715 867 217 c 0
 763.632 69.561 597 -16 432 -16 c 0
 310 -16 169.299 25.1813 108 127 c 0
 68.195 193.117 51 274 51 367 c 0
 51 432 59.1534 502.97 74 579 c 0
 142.709 930.86 233.119 1089.89 322 1187 c 0
 406.112 1278.9 552 1347 709 1350 c 1
792 789 m 1
 798 833 801 878 801 919 c 0
 801 952 798.835 982.971 794 1009 c 0
 774.332 1114.87 729 1147 669 1147 c 0
 604 1147 561.048 1121.96 507 1051 c 0
 462.04 991.969 418 906 380 774 c 1
 525 786 649 789 753 789 c 0
 792 789 l 1
EndSplineSet
Validated: 1
EndChar

StartChar: iota
Encoding: 953 953 349
Width: 1060
VWidth: 0
Flags: W
HStem: -18 202<557.5 763.17> 813 200<219.635 447>
VStem: 322 278<119.5 396.496>
LayerCount: 2
Fore
SplineSet
486 1013 m 1
 571 1013 656 1013 741 1013 c 1
 688 740 603 296 603 296 c 2
 600.887 285.022 600 275 600 265 c 0
 600 217 625 184 673 184 c 0
 718 184 816 252 850 336 c 1
 903.667 303.333 957.333 270.667 1011 238 c 1
 954 98 828 -18 600 -18 c 0
 515 -18 425.065 -3.89262 386 20 c 0
 335.086 51.1395 322 97 322 142 c 0
 322 164 325 186 329 206 c 1
 368.333 408.333 407.667 610.667 447 813 c 1
 398 813 307 807 208 785 c 1
 210.333 847 212.667 909 215 971 c 1
 314 999 406 1013 486 1013 c 1
EndSplineSet
Validated: 1
EndChar

StartChar: kappa
Encoding: 954 954 350
Width: 1060
VWidth: 0
Flags: W
HStem: 0 5G<15 281 704 759.333> 1002 20G<180.833 472 979 1024>
LayerCount: 2
Fore
SplineSet
633 588 m 1
 730 469 952 248 976 110 c 1
 889.333 68 802.667 26 716 -16 c 1
 692 95 538 251 433 380 c 1
 433 380 365 318 321 246 c 1
 305 164 289 82 273 0 c 1
 187 -0 101 0 15 0 c 1
 81.3333 340.667 147.667 681.333 214 1022 c 1
 300 1022 386 1022 472 1022 c 1
 449.333 906.667 426.667 791.333 404 676 c 1
 535 821 951 1038 1007 1058 c 1
 1041 990.667 1075 923.333 1109 856 c 1
 880 738 707 662 633 588 c 1
EndSplineSet
Validated: 1
EndChar

StartChar: lambda
Encoding: 955 955 351
Width: 1060
VWidth: 14
Flags: W
HStem: 0 244<781.5 957.067> 1178 211<393.874 585.5>
LayerCount: 2
Fore
SplineSet
127 -39 m 1
 65 8.33333 3.00001 55.6667 -59 103 c 1
 39 237 376 630 541 978 c 1
 524 1084 517 1178 459 1178 c 0
 407 1178 389 1140 382 1102 c 1
 312 1102.67 242 1103.33 172 1104 c 1
 213 1317 352 1389 511 1389 c 0
 660 1389 724.81 1297.97 739 1200 c 0
 775.51 947.93 820 504 838 348 c 1
 845 283 853 244 889 244 c 1
 915 244 952 265 952 265 c 1
 963 194 974 123 985 52 c 1
 959 28 929 0 827 0 c 0
 736 0 643.086 88.8743 620 250 c 0
 608.547 329.933 590 479 580 606 c 1
 496 459 325 228 127 -39 c 1
EndSplineSet
Validated: 1
EndChar

StartChar: nu
Encoding: 957 957 353
Width: 1060
VWidth: 6
Flags: W
HStem: -8 21G<279 441.5> 1034 20G<309.5 406.5 1013.83 1067.5>
VStem: 828 262<603.742 981.42>
LayerCount: 2
Fore
SplineSet
349 1054 m 1
 464 771 504 508 522 251 c 1
 717 372 775.414 487.921 817 704 c 0
 825.08 745.984 828 782 828 814 c 0
 828 889 811 938 803 972 c 1
 887.333 999.333 971.667 1026.67 1056 1054 c 1
 1079 993 1090 927 1090 859 c 0
 1090 815 1085.87 771.025 1077 726 c 0
 971.462 190.308 608 -8 275 -8 c 1
 283 33 287 80 287 131 c 0
 287 399 188 770 112 924 c 1
 191 967.333 270 1010.67 349 1054 c 1
EndSplineSet
Validated: 1
EndChar

StartChar: xi
Encoding: 958 958 354
Width: 1060
VWidth: 0
Flags: W
HStem: -347 198<528 680.869> 0 215<377.843 700.378> 661 197<699.033 857> 1155 197<373.412 597.934> 1356 20G<980 1056>
VStem: 79 269<143 427.51> 389 269<883.756 1011.39> 705 229<-114.83 82>
LayerCount: 2
Fore
SplineSet
403 1428 m 1
 435 1386 474 1352 556 1352 c 0
 720 1352 912 1358 1048 1376 c 1
 1064 1309.67 1080 1243.33 1096 1177 c 1
 1000 1103 673.9 1046.3 660 964 c 0
 658.824 957.034 658 950 658 944 c 0
 658 869 757 858 896 858 c 1
 883 792.333 870 726.667 857 661 c 1
 580 595 385.353 502.912 349 339 c 0
 348.108 334.979 348 331 348 326 c 0
 348 285 379 215 513 215 c 0
 515 215 685 216 687 216 c 0
 831 216 934 155 934 9 c 0
 934 -14 931.144 -39.0283 926 -66 c 0
 885.146 -280.212 650 -335 526 -347 c 1
 526.667 -281 527.333 -215 528 -149 c 1
 615 -136 693.576 -116.906 702 -77 c 0
 703.904 -67.9808 705 -60 705 -53 c 0
 705 -15 677 0 603 0 c 0
 583 0 l 0
 419 0 l 0
 242 0 79 46 79 240 c 0
 79 266 81.9866 294.003 88 325 c 0
 136.891 577.021 382 716 505 752 c 1
 470 762 389 790 389 906 c 0
 389 924 390.834 944.031 395 967 c 0
 411.346 1057.11 502 1125 601 1161 c 1
 601 1161 542 1155 512 1155 c 0
 396 1155 303 1182 243 1264 c 1
 296.333 1318.67 349.667 1373.33 403 1428 c 1
EndSplineSet
Validated: 1
EndChar

StartChar: pi
Encoding: 960 960 356
Width: 1060
VWidth: 6
Flags: W
HStem: 0 237<720.5 936.697> 822 198<518 651.153 911 1012.51>
VStem: 583 251<152.5 526.824> 654 261<488.812 821.088>
LayerCount: 2
Fore
SplineSet
937 1020 m 0xd0
 978 1020 996 1038 1030 1088 c 1
 1075.33 1063.33 1120.67 1038.67 1166 1014 c 1
 1120 940 1074 822 942 822 c 1
 931.667 822 921.333 822 911 822 c 1
 914 808 915 792 915 774 c 0xd0
 915 733 908 678 890 587 c 1
 872.333 496.667 854.667 406.333 837 316 c 1
 835 304 834 293 834 284 c 0
 834 253 845 237 862 237 c 0
 887 237 904 240 926 259 c 1
 948 201 970 143 992 85 c 1
 954 43 904 0 777 0 c 0
 664 0 583 99 583 206 c 0xe0
 583 315 592.037 364.993 634 583 c 0
 649.013 660.997 654 708 654 740 c 0
 654 779 647 797 639 822 c 1
 598.667 821.667 558.333 821.333 518 821 c 1
 478.667 619 439.333 417 400 215 c 1
 386 142 358 44 333 -13 c 1
 251 -1.66667 169 9.66667 87 21 c 1
 118 89 131 146 145 219 c 1
 183.333 417.333 221.667 615.667 260 814 c 1
 212 805 188 797 150 770 c 1
 144.333 832 138.667 894 133 956 c 1
 189 988 293 1019 393 1019 c 2
 393 1019 725 1020 937 1020 c 0xd0
EndSplineSet
Validated: 1
EndChar

StartChar: rho
Encoding: 961 961 357
Width: 1060
VWidth: -2
Flags: W
HStem: -6 198<411.281 602.837> 818 214<492.646 706.823>
VStem: -11 285<-380.192 -310.451 -216.356 38.625> -11 257<-350 40.4081> 743 282<425.075 785.547>
LayerCount: 2
Fore
SplineSet
728 517 m 0xc8
 731 532 l 0
 739 572 743 611 743 646 c 0
 743 745 708 818 608 818 c 0
 510 818 408.106 733.979 369 533 c 0
 361.022 491.996 357 454 357 420 c 0
 357 277 420 192 500 192 c 0
 636 192 696 351 728 517 c 0xc8
136 562 m 2
 193.725 853.857 407 1032 669 1032 c 0
 866 1032 963 963 1007 831 c 0
 1020 792 1025 745 1025 695 c 0
 1025 644 1019.74 592.051 1010 543 c 0
 953.482 258.31 826 -6 504 -6 c 1
 503.333 -6 502.667 -6 502 -6 c 1
 365 -6 322 17 271 96 c 1
 273 79 274 62 274 45 c 0xe8
 274 -15 263.132 -70.024 258 -99 c 0
 250.201 -143.035 246 -183 246 -218 c 0
 246 -286 258 -337 267 -377 c 1
 178 -397.333 89 -417.667 0 -438 c 1
 -7 -411 -11 -364 -11 -308 c 0xd8
 -11 -236 -4 -149 11 -70 c 1
 52.6667 140.667 94.3333 351.333 136 562 c 2
EndSplineSet
Validated: 1
EndChar

StartChar: sigma1
Encoding: 962 962 358
Width: 1060
VWidth: 4
Flags: W
HStem: -347 198<522 674.891> 10 212<438.768 695.383> 807 211<551.239 821.81>
VStem: 133 266<261.244 618.606> 699 230<-114.739 82.5>
LayerCount: 2
Fore
SplineSet
411 528 m 0
 402.798 485.04 399 447 399 414 c 0
 399 281 459 223.5 520 222 c 0
 522.996 221.926 689.005 213.085 692 213 c 0
 833 209 929 153 929 12 c 0
 929 -11 926.757 -37.9523 921 -66 c 0
 877.156 -279.605 645 -335 520 -347 c 1
 520.667 -281 521.333 -215 522 -149 c 1
 609 -136 688.059 -116.765 697 -77 c 0
 698.808 -68.9615 699 -62 699 -55 c 0
 699 -17 671 -2 597 0 c 0
 590.01 0.188636 584 1 577 1 c 0
 573 1 419.996 9.90498 416 10 c 0
 353 11.5 280 34 236 73 c 1
 163 140 133 230 133 342 c 0
 133 398 140.997 460.001 154 527 c 0
 219.986 867.003 428 1018 743 1018 c 0
 838 1018 931.074 999.097 986 957 c 0
 1038.07 917.092 1073 858 1085 806 c 1
 1005 772 925 738 845 704 c 1
 842 742 824 807 684 807 c 0
 537 807 438.326 671.125 411 528 c 0
EndSplineSet
Validated: 1
EndChar

StartChar: sigma
Encoding: 963 963 359
Width: 1060
VWidth: 6
Flags: W
HStem: -6 203<384.176 600.086> 830 202<494.391 713.946>
VStem: 82 260<238.301 580.729> 723 259<386.49 680.17 684.431 689.655 694.061 814> 741 255<421.549 813.081>
LayerCount: 2
Fore
SplineSet
983 814 m 1xf0
 992 778 996 736 996 692 c 0xe8
 996 642 991.034 589.993 982 543 c 0
 927.205 257.961 779 -6 443 -6 c 1
 442.333 -6 441.667 -6 441 -6 c 1
 187 -6 82 121 82 321 c 0
 82 365 87.0105 412.998 97 464 c 0
 169.076 831.985 345 1029 633 1032 c 0
 641 1032 l 0
 768 1032 1109 1021 1158 1012 c 1
 1141.67 942.667 1125.33 873.333 1109 804 c 1
 1080 809 1035 812 983 814 c 1xf0
608 247 m 1
 665 299 699.865 402.689 723 530 c 0xf0
 724.087 535.983 724.956 540.008 726 546 c 0
 735.595 601.068 741 643 741 682 c 0
 741 734 732 777 714 828 c 1
 714 828 639 830 616 830 c 0
 465 830 392.687 690.059 353 482 c 0
 345.944 445.011 342 410 342 379 c 0
 342 269 387 197 481 197 c 1
 536 198 565 211 608 247 c 1
EndSplineSet
Validated: 1
EndChar

